<svg width="16" height="16" viewBox="0 0 16 16" fill="none" xmlns="http://www.w3.org/2000/svg">
<rect x="1" y="1" width="14" height="7" fill="#8BE8FC"/>
<rect x="1" y="8" width="14" height="7" fill="#FEF98B"/>
<path d="M7.64792 6.99077L7.75169 7.00025C7.96818 7.01403 8.17768 6.98725 8.37234 6.93745C9.09819 6.30542 8.87908 5.8545 8.62848 5.61261C8.45142 5.44169 8.21006 5.35086 7.9646 5.36821C7.85832 5.37573 7.76809 5.40197 7.69164 5.44234C7.50497 5.79635 7.32111 6.30249 7.39947 6.83691C7.39947 6.83691 7.39911 6.83655 7.39852 6.83577V6.83601L7.39911 6.83661L7.39965 6.8372C7.39965 6.8372 7.36035 6.88014 7.27805 6.92129C7.35969 7.01194 7.44676 7.09722 7.53861 7.17773C7.58399 7.05071 7.64721 6.99047 7.64721 6.99047C7.64744 6.99059 7.64768 6.99071 7.64792 6.99077Z" fill="white"/>
<path d="M10.7004 5.76112C10.4182 5.61739 10.1934 5.63331 10.1934 5.63331C10.3467 5.25324 10.7045 5.11429 10.9747 5.32892C11.2448 5.5435 10.9826 5.90484 10.7004 5.76112ZM10.3365 4.50742C10.649 4.15669 10.8993 4.39059 10.9474 4.49579C10.9955 4.60099 10.9327 4.87097 10.6427 4.96191C10.3526 5.0528 10.1309 5.24704 10.1309 5.24704C10.1309 5.24704 10.024 4.85815 10.3365 4.50742ZM10.1781 3.84741C10.2548 3.79409 10.3647 3.81968 10.4236 3.90448C10.4824 3.98929 10.468 4.10123 10.3912 4.15454C10.3144 4.2078 10.2045 4.18221 10.1456 4.09741C10.0868 4.0126 10.1013 3.90066 10.1781 3.84741ZM9.94714 4.64053C9.84874 4.70887 9.70776 4.67607 9.63231 4.56735C9.55687 4.45863 9.57548 4.31509 9.67388 4.2468C9.77228 4.17852 9.91321 4.21132 9.98865 4.32004C10.0641 4.42875 10.0455 4.57224 9.94714 4.64053ZM8.98334 4.14297C8.98334 4.14297 9.19577 3.93865 9.31111 3.65746C9.42644 3.37621 9.70078 3.33667 9.80151 3.39363C9.90223 3.45052 10.1139 3.71978 9.73781 4.00127C9.36168 4.2827 8.98334 4.14297 8.98334 4.14297ZM8.6038 4.04773C8.6038 4.04773 8.63881 3.82516 8.51972 3.53175C8.40062 3.23827 8.78302 3.00783 8.97374 3.29528C9.16452 3.5828 8.99556 3.92744 8.6038 4.04773ZM11.2034 4.76726V3.16366H9.65402V1.56001C8.41589 1.56001 7.34187 2.26135 6.80687 3.28831C6.83907 3.28175 6.87247 3.2787 6.90592 3.27936C7.12539 3.28175 7.37885 3.42965 7.33174 4.12615C7.32458 4.23416 7.31498 4.33608 7.30484 4.43275C7.30484 4.43293 7.30478 4.43317 7.30478 4.43347C7.36322 4.35337 7.429 4.27274 7.50355 4.19176C7.61901 4.06634 7.72027 3.92834 7.80031 3.77781C7.86889 3.6487 7.93574 3.49084 7.96896 3.32212C7.96896 3.32212 8.45286 3.57409 8.33257 4.22378C8.5097 4.22694 8.71187 4.27239 8.94272 4.37228C8.94272 4.37228 10.0717 4.83829 10.0993 5.95667C10.0999 5.98482 10.0977 6.01261 10.094 6.04004C10.8475 5.79529 11.1489 6.34527 11.1489 6.34527C10.9809 6.38218 10.8245 6.45244 10.6969 6.52382C10.5482 6.60708 10.4124 6.71132 10.2895 6.82946C10.2101 6.9058 10.1308 6.97343 10.0519 7.0336C10.0521 7.03354 10.0522 7.03354 10.0524 7.03348C10.149 7.02162 10.2504 7.00969 10.3589 7.00015C11.0537 6.93753 11.2075 7.18801 11.2147 7.40741C11.2165 7.46824 11.2075 7.52788 11.1885 7.58459C12.185 7.0401 12.8613 5.98273 12.8613 4.76726H11.2034Z" fill="white"/>
<path d="M7.38912 6.82495C7.36753 6.79966 7.31427 6.73424 7.25064 6.63572C7.29077 6.71373 7.33956 6.77587 7.38912 6.82495Z" fill="#D83341"/>
<path d="M7.38897 6.8122C7.37883 6.78775 7.3669 6.76031 7.35378 6.7305L7.35355 6.73026C7.36655 6.7766 7.3805 6.8113 7.39374 6.82979C7.39219 6.8283 7.39064 6.82657 7.38909 6.82502C7.39374 6.83045 7.39702 6.83421 7.39851 6.83582V6.83546C7.39553 6.8283 7.39255 6.81995 7.38897 6.8122Z" fill="#D83341"/>
<path d="M7.96893 3.32212C7.93571 3.49083 7.86886 3.64875 7.80028 3.77781C7.72024 3.92839 7.61898 4.06634 7.50352 4.19175C7.42897 4.27274 7.36319 4.35337 7.30475 4.43346C7.23974 5.03777 7.13251 5.43782 7.16114 5.89327V5.89387C7.1612 5.8947 7.16132 5.8956 7.16132 5.89643C7.17647 6.13725 7.22954 6.39297 7.34661 6.70375C7.34661 6.70387 7.34667 6.70404 7.34667 6.70404C7.34685 6.70458 7.34721 6.70506 7.34721 6.70554C7.36033 6.74072 7.37405 6.77591 7.38896 6.81229C7.39253 6.82004 7.39552 6.82839 7.3985 6.83555V6.8359C7.39909 6.83668 7.39951 6.83704 7.39951 6.83704C7.32109 6.30268 7.50495 5.79648 7.69168 5.44247C7.8521 5.13832 8.01461 4.94647 8.01461 4.94647C8.20062 4.66426 8.29527 4.42517 8.33254 4.22378C8.45283 3.57415 7.96893 3.32212 7.96893 3.32212Z" fill="#D83341"/>
<path d="M7.35316 6.73007C7.30724 6.6263 7.24402 6.49331 7.16769 6.35614C7.16739 6.35614 7.16751 6.35603 7.16739 6.35591C7.16733 6.35573 7.16709 6.35555 7.16709 6.35555C7.11461 6.26132 7.05557 6.1653 6.99116 6.07466C6.99056 6.07466 6.99056 6.07406 6.99056 6.07406C6.87069 5.90588 6.73174 5.75738 6.57847 5.67866C6.64407 5.9029 6.73472 6.117 6.84564 6.31798C6.96611 6.53625 7.11163 6.73842 7.27802 6.92151C7.36032 6.88036 7.39968 6.83742 7.39968 6.83742L7.39908 6.83682L7.39848 6.83623V6.83599C7.39699 6.83438 7.36652 6.77677 7.35352 6.73043L7.35316 6.73007Z" fill="#D83341"/>
<path d="M8.37236 6.93746C8.17771 6.9872 7.96814 7.01397 7.75166 7.00026L8.24223 7.04504C8.28893 7.00861 8.33181 6.97282 8.37236 6.93746Z" fill="#D83341"/>
<path d="M10.094 6.04C9.92669 6.09433 9.7374 6.18736 9.5239 6.33479C9.5239 6.33479 9.03439 6.76835 8.37235 6.93754C8.3318 6.97291 8.28892 7.00869 8.24229 7.04513L7.75171 7.00034C7.71724 6.99808 7.68271 6.99515 7.64794 6.9908C7.65253 6.99259 7.65754 6.9948 7.66213 6.99653C7.84158 7.06582 8.00224 7.11503 8.1517 7.14902C8.15265 7.14926 8.15372 7.1495 8.15468 7.14973C8.82846 7.30181 9.26561 7.13488 10.0519 7.03356C10.1308 6.97339 10.2101 6.90576 10.2895 6.82936C10.4124 6.71128 10.5482 6.60697 10.6969 6.52378C10.8245 6.45239 10.9809 6.38208 11.1488 6.34522C11.1488 6.34522 10.8476 5.79525 10.094 6.04Z" fill="#D83341"/>
<path d="M7.64709 6.99019C7.64709 6.99019 7.64767 6.99068 7.64855 6.99146L7.64806 6.99087C7.64777 6.99068 7.64738 6.99048 7.64709 6.99019Z" fill="#D83341"/>
<path d="M7.64778 6.99025C7.64778 6.99025 7.64737 6.99025 7.64709 6.99025C7.64764 6.99052 7.64805 6.9908 7.64847 6.99121L7.64778 6.99025Z" fill="#D83341"/>
<path d="M7.6472 6.99025L7.64756 6.99073L7.64862 6.99084C7.64815 6.99061 7.64767 6.99037 7.6472 6.99025Z" fill="#D83341"/>
<path d="M7.64872 6.99084L7.64735 6.99071C7.6479 6.99084 7.64831 6.99084 7.64872 6.99084Z" fill="#D83341"/>
<path d="M8.41951 7.38265C8.41933 7.38254 8.41909 7.38236 8.41891 7.38218C8.27698 7.28562 8.12192 7.20207 7.98296 7.13528C7.98243 7.13528 7.98201 7.13498 7.98153 7.1348C7.98141 7.1348 7.98123 7.13468 7.98112 7.13468C7.85474 7.07451 7.74143 7.02793 7.66211 6.99632C7.65758 6.99465 7.65251 6.99245 7.64792 6.99066C7.64774 6.99066 7.64756 6.99066 7.64738 6.9906C7.64738 6.99066 7.64768 6.99102 7.64768 6.99102C7.64774 6.99107 7.64792 6.99131 7.64792 6.99131C7.64744 6.9909 7.64709 6.9906 7.64709 6.9906H7.64738L7.6472 6.99036C7.6472 6.99036 7.58399 7.05059 7.5386 7.17762C7.79868 7.40663 8.09568 7.59329 8.42011 7.72808H8.4207C8.56324 7.78771 8.71054 7.83727 8.86262 7.87598C8.79887 7.6883 8.62264 7.52155 8.41951 7.38265Z" fill="#D83341"/>
<path d="M9.80153 3.39356C9.70081 3.3366 9.42647 3.37614 9.31113 3.65739C9.1958 3.93858 8.98331 4.1429 8.98331 4.1429C8.98331 4.1429 9.36171 4.28269 9.73784 4.0012C10.1139 3.71977 9.90226 3.45051 9.80153 3.39356Z" fill="#D83341"/>
<path d="M10.9474 4.49569C10.8993 4.39043 10.649 4.15654 10.3365 4.50732C10.024 4.85805 10.1309 5.24695 10.1309 5.24695C10.1309 5.24695 10.3526 5.05271 10.6427 4.96176C10.9327 4.87087 10.9955 4.60089 10.9474 4.49569Z" fill="#D83341"/>
<path d="M7.64794 6.99088C7.68271 6.99518 7.7173 6.99816 7.75171 7.00037L7.64794 6.99088Z" fill="#1D1D1D"/>
<path d="M8.62853 5.61265C8.87907 5.85454 9.09818 6.30546 8.37239 6.9375C9.03442 6.76831 9.52393 6.33474 9.52393 6.33474C9.73743 6.18732 9.92672 6.09434 10.094 6.04001C10.0976 6.01252 10.1 5.98479 10.0993 5.95664C10.0718 4.8382 8.94276 4.37225 8.94276 4.37225C8.71184 4.2723 8.50973 4.22691 8.33261 4.22369C8.29528 4.42503 8.20063 4.66418 8.01468 4.94638C8.01468 4.94638 7.85211 5.13824 7.69168 5.44239C7.76814 5.40201 7.85837 5.37577 7.96459 5.36826C8.21011 5.3509 8.45147 5.44173 8.62853 5.61265Z" fill="#1D1D1D"/>
<path d="M7.34672 6.70407C7.34672 6.70395 7.34666 6.70389 7.34666 6.70378C7.22953 6.39294 7.17651 6.13722 7.16137 5.89646C7.16131 5.89557 7.16119 5.89473 7.16113 5.8939V5.8933C7.13256 5.43785 7.23979 5.0378 7.3048 4.43349C7.3048 4.4332 7.30485 4.43296 7.30485 4.43278C7.31499 4.33611 7.32454 4.23413 7.33175 4.12618C7.37886 3.42967 7.12541 3.28177 6.90588 3.27939C6.87248 3.27873 6.83909 3.28177 6.80688 3.28833C6.57668 3.73084 6.44667 4.23413 6.44667 4.76728C6.44667 5.08396 6.49259 5.38996 6.57853 5.67861C6.73174 5.75733 6.87075 5.90583 6.99056 6.074C6.99056 6.074 6.99056 6.0746 6.99122 6.0746C7.05563 6.16525 7.11461 6.26126 7.16709 6.35549C7.16709 6.35549 7.16733 6.35561 7.16745 6.35579C7.16751 6.35591 7.16745 6.35609 7.16775 6.35609C7.24402 6.49325 7.30724 6.62625 7.35316 6.73002L7.35358 6.73037L7.35382 6.73061C7.36688 6.76043 7.37886 6.78786 7.38894 6.81226C7.37403 6.77594 7.36038 6.74075 7.3472 6.7055C7.3472 6.70509 7.34684 6.70455 7.34672 6.70407Z" fill="#1D1D1D"/>
<path d="M10.3589 7.00001C10.2504 7.00955 10.149 7.02148 10.0524 7.03341C10.0522 7.03341 10.0521 7.03347 10.052 7.03347C9.26558 7.13485 8.82849 7.30178 8.15471 7.1497C8.15369 7.14946 8.15268 7.14916 8.15167 7.14892C8.00221 7.11499 7.84161 7.06573 7.6621 6.99643C7.74142 7.02804 7.85473 7.07456 7.98116 7.13479C7.98128 7.13479 7.9814 7.13485 7.98152 7.13491C7.982 7.13503 7.98247 7.13539 7.98295 7.13539C8.12191 7.20218 8.27696 7.28567 8.4189 7.38229C8.41914 7.38241 8.41932 7.38258 8.4195 7.3827C8.62262 7.5216 8.79885 7.68841 8.86261 7.87609C9.05464 7.92499 9.25383 7.9566 9.45838 7.96852C9.52339 7.9727 9.58839 7.97449 9.654 7.97449C9.93727 7.97449 10.2128 7.93751 10.474 7.86833C10.7263 7.80213 10.9654 7.70612 11.1885 7.58446C11.2076 7.5278 11.2165 7.46816 11.2147 7.40733C11.2076 7.18787 11.0537 6.93739 10.3589 7.00001Z" fill="#1D1D1D"/>
<path d="M8.60379 4.04761C8.99555 3.92732 9.1645 3.58267 8.97378 3.29516C8.783 3.00771 8.4006 3.23815 8.5197 3.53162C8.6388 3.82504 8.60379 4.04761 8.60379 4.04761Z" fill="#1D1D1D"/>
<path d="M10.1935 5.63327C10.1935 5.63327 10.4182 5.61735 10.7004 5.76107C10.9826 5.9048 11.2448 5.54346 10.9747 5.32888C10.7046 5.11424 10.3467 5.2532 10.1935 5.63327Z" fill="#1D1D1D"/>
<path d="M9.94714 4.64047C10.0455 4.57219 10.0641 4.4287 9.98871 4.31992C9.91326 4.21126 9.77228 4.17846 9.67388 4.24675C9.57548 4.31503 9.55693 4.45852 9.63237 4.56724C9.70781 4.67602 9.84874 4.70882 9.94714 4.64047Z" fill="#1D1D1D"/>
<path d="M10.3912 4.15434C10.4679 4.10102 10.4824 3.98908 10.4236 3.90434C10.3647 3.81948 10.2548 3.79395 10.178 3.84721C10.1013 3.90046 10.0867 4.0124 10.1456 4.09721C10.2045 4.18201 10.3144 4.2076 10.3912 4.15434Z" fill="#1D1D1D"/>
<path d="M11.0413 9.42319C10.9329 9.5065 10.802 9.53573 10.6758 9.58028C10.5426 9.62721 10.4126 9.68428 10.2905 9.75537C10.2221 9.79521 10.1557 9.83892 10.0927 9.88675C10.0882 9.89021 10.0616 9.90739 10.0429 9.92218C10.0346 9.92874 10.0223 9.92295 10.0223 9.9124V9.9121C10.0214 9.78978 10.0798 9.66717 10.138 9.56274C10.2153 9.42361 10.3134 9.29521 10.4238 9.1807C10.5288 9.07175 10.6486 8.97024 10.7859 8.90446C10.9186 8.84083 11.1034 8.80475 11.2026 8.94526C11.3162 9.10658 11.1725 9.32228 11.0413 9.42319ZM10.6737 10.6809C10.0517 11.2547 9.43586 11.0471 9.43586 11.0471C10.1309 10.7496 10.4579 10.1891 10.4579 10.1891C9.83478 10.3712 9.4822 10.8725 9.4822 10.8725C9.60583 10.3117 10.0339 10.0209 10.0339 10.0209C10.6293 9.54909 11.1662 9.80851 11.1662 9.80851C10.9247 10.4095 10.6737 10.6809 10.6737 10.6809ZM10.1309 11.7625C9.77764 12.2393 9.34521 12.3271 9.34521 12.3271C8.46448 12.5815 7.8767 11.6747 7.88791 11.6794C8.89459 12.1039 9.57947 11.6462 9.57947 11.6462C9.11453 11.4224 7.98506 11.5818 7.98506 11.5818C8.11954 11.4653 8.27018 11.3807 8.41898 11.3192C8.8532 11.1397 9.33901 11.1319 9.78313 11.2854C10.1055 11.3968 10.3296 11.5338 10.3296 11.5338C10.2412 11.6164 10.1309 11.7625 10.1309 11.7625ZM5.41796 6.28727C5.51422 6.31864 5.52805 6.44674 5.52805 6.44674C5.58417 6.84297 5.30703 7.05105 5.30703 7.05105C5.32421 7.02373 5.18812 6.65702 5.19539 6.49242C5.20273 6.32782 5.32165 6.25596 5.41796 6.28727ZM5.76362 6.83456C5.76362 6.83456 5.87556 6.77075 5.95732 6.83045C6.03914 6.89015 6.05054 7.02862 5.92136 7.13096C5.79225 7.23324 5.41534 7.33767 5.40323 7.3676C5.40323 7.3676 5.40961 7.02117 5.76362 6.83456ZM5.8034 6.28536C5.8034 6.28536 5.85838 6.23401 5.91283 6.25686C5.96734 6.2797 5.99257 6.35681 5.93305 6.43237C5.87353 6.50793 5.67357 6.61814 5.67076 6.63675C5.67076 6.63675 5.62759 6.43911 5.8034 6.28536ZM6.1645 8.67349C6.12264 8.78602 5.92703 8.99362 5.93078 9.01682C5.93078 9.01682 5.80387 8.79831 5.95416 8.54825C5.95416 8.54825 5.99984 8.46613 6.07344 8.47251C6.14697 8.47883 6.20643 8.56083 6.1645 8.67349ZM3.75509 8.71303C3.77435 8.65393 3.85301 8.6454 3.85301 8.6454C4.09627 8.61099 4.22408 8.78107 4.22408 8.78107C4.20732 8.77058 3.98213 8.85413 3.88104 8.84972C3.78002 8.84524 3.73582 8.77213 3.75509 8.71303ZM11.1038 8.32115C11.1163 8.35216 11.1217 8.38615 11.1175 8.42253C11.099 8.5758 10.9416 8.68136 10.8181 8.74756C10.3786 8.98372 10.2301 9.24016 10.1854 9.34453C10.1806 9.35526 10.1645 9.35228 10.1645 9.34035C10.1651 9.30934 10.1675 9.27774 10.1687 9.24971C10.1705 9.20617 10.1728 9.16204 10.177 9.1185C10.1848 9.03859 10.1973 8.95981 10.2158 8.88174C10.2599 8.70044 10.3404 8.52571 10.4722 8.39087C10.5164 8.34614 10.5647 8.30564 10.616 8.26926C10.669 8.23229 10.7275 8.19889 10.7895 8.18279C10.4937 8.07008 10.177 8.0003 9.84664 7.98062C10.1317 8.63126 9.84545 9.20975 9.84545 9.20975C9.93312 8.73146 9.82756 8.22811 9.75778 7.97644C9.72319 7.97525 9.6886 7.97465 9.65401 7.97465C9.65401 8.15416 9.6391 8.33009 9.61048 8.50125C9.96234 9.21327 9.61406 9.85145 9.61406 9.85145C9.71723 9.39582 9.64209 8.90918 9.58364 8.64617C9.53116 8.89069 9.45125 9.12506 9.34688 9.34572C9.4256 9.40238 9.47987 9.49541 9.48703 9.59202C9.49538 9.69997 9.47212 9.80791 9.43753 9.9093C9.11668 10.8593 8.12849 11.0471 8.12849 11.0471C8.26148 10.9804 8.3408 10.8325 8.40163 10.7037C8.44397 10.6136 8.47975 10.5212 8.51255 10.4275C8.34318 10.5707 8.1583 10.6959 7.9609 10.8021H7.96031C7.75993 10.9094 7.54762 10.9965 7.32457 11.0596C7.32398 11.0603 7.32338 11.0603 7.32338 11.0603C7.17309 11.1026 7.01863 11.1348 6.86 11.1551C6.8755 11.1593 6.8916 11.1629 6.90711 11.1664C6.97152 11.1808 7.03652 11.1921 7.10212 11.2016C7.36334 11.238 7.62992 11.2321 7.89053 11.1945C8.02114 11.1748 8.14996 11.1474 8.27639 11.1104C8.40282 11.074 8.52627 11.0281 8.64614 10.9744C8.76601 10.9202 8.88052 10.8563 8.99025 10.7842C9.09933 10.712 9.20136 10.6297 9.29619 10.5397C9.38982 10.4484 9.4745 10.3488 9.54965 10.2415C9.58662 10.1872 9.62181 10.1311 9.65521 10.0745C9.6886 10.0172 9.71962 9.95939 9.74884 9.89975C9.86632 9.6624 9.95518 9.40953 10.0244 9.15124C10.0941 8.89307 10.1424 8.62828 10.1645 8.35932C10.1705 8.62942 10.1395 8.90017 10.0852 9.16562C10.0572 9.29801 10.0238 9.42981 9.98441 9.55982C9.96413 9.62483 9.94206 9.68983 9.91821 9.75364C9.89435 9.81745 9.86811 9.88067 9.84008 9.94269C9.78343 10.0673 9.71842 10.189 9.64328 10.3041C9.56754 10.4204 9.47868 10.5277 9.38087 10.6261C9.28247 10.7239 9.17453 10.8116 9.06062 10.8891C8.94552 10.9667 8.82446 11.0335 8.69922 11.0913C8.57338 11.1474 8.44331 11.1951 8.31098 11.2327C8.17858 11.269 8.0438 11.2971 7.90723 11.315C7.77126 11.3322 7.63349 11.3412 7.49633 11.3388C7.46233 11.3376 7.42775 11.3376 7.39316 11.3352L7.34187 11.3328L7.29058 11.3287C7.222 11.3221 7.15401 11.3131 7.08656 11.3012C7.01863 11.2893 6.95184 11.2744 6.88504 11.2571C6.81885 11.2392 6.75324 11.2195 6.68884 11.1962C6.67273 11.1903 6.65663 11.1843 6.64113 11.1784L6.63516 11.176H6.63457C6.57254 11.1796 6.50992 11.1813 6.44671 11.1813V11.0955C6.40258 11.0758 6.35844 11.0549 6.31491 11.0329C6.07272 10.9112 5.84198 10.7717 5.61297 10.6291C5.8557 10.7465 6.09485 10.8712 6.34175 10.9756C6.37634 10.9905 6.41152 11.0054 6.44671 11.0192V10.8009C6.35844 10.7281 6.27435 10.6494 6.19683 10.5647C6.17655 10.5421 6.15568 10.52 6.136 10.4967C6.09544 10.4502 6.04356 10.418 5.99108 10.387C5.87657 10.3184 5.75789 10.2569 5.63683 10.1997C5.62967 10.1962 5.62132 10.1932 5.61357 10.1902C5.61053 10.189 5.6082 10.1884 5.60522 10.1878C5.5587 10.2522 5.45911 10.2582 5.45911 10.2582C5.2378 10.3172 5.02018 10.3017 4.80608 10.2122C4.67249 10.1562 4.55381 10.0756 4.4411 9.98504C4.33733 9.90095 4.24012 9.80964 4.1441 9.71667C4.06777 9.64212 3.99203 9.56757 3.91748 9.49183C3.86613 9.44055 3.81729 9.38687 3.76779 9.33379C3.7499 9.31471 3.73857 9.29205 3.72903 9.26819C3.71054 9.22048 3.72187 9.17814 3.76302 9.14713C3.78747 9.12804 3.81669 9.11791 3.84591 9.10956C3.90913 9.09107 3.97473 9.08272 4.04093 9.07908C4.29021 9.06364 4.52817 9.11314 4.75718 9.21154C4.92595 9.28429 5.0822 9.37727 5.22116 9.49899C5.28676 9.55684 5.34759 9.62065 5.4018 9.68983C5.43645 9.73271 5.46925 9.7763 5.50026 9.82163C5.5265 9.86039 5.55089 9.90095 5.57302 9.9421C5.59389 9.98146 5.61417 10.0214 5.62311 10.065C5.62544 10.078 5.6261 10.0905 5.62669 10.1037C5.62669 10.1073 5.6249 10.1264 5.62788 10.1282C5.63146 10.1306 5.63564 10.1323 5.63981 10.1341C5.66963 10.1467 5.69826 10.161 5.72688 10.1753C5.79487 10.2105 5.86166 10.2457 5.92965 10.2808C5.93979 10.2862 5.95052 10.291 5.96126 10.2963C5.9708 10.2862 5.96066 10.2808 5.95708 10.2749C5.91772 10.2182 5.87777 10.161 5.83781 10.1049C5.77519 10.0178 5.72092 9.92653 5.66605 9.83475C5.60403 9.73038 5.5438 9.62483 5.48654 9.51748C5.4281 9.40709 5.36846 9.29682 5.31598 9.18345C5.30525 9.15965 5.28676 9.14892 5.2629 9.14176C5.18358 9.1185 5.10427 9.09399 5.02495 9.069C4.94503 9.04276 4.86631 9.01235 4.78878 8.97776C4.74048 9.02428 4.64142 9.02487 4.55083 8.97537C4.44646 8.91872 4.3916 8.81733 4.42857 8.74935C4.46615 8.68076 4.58065 8.67122 4.68501 8.72788C4.76791 8.77261 4.8186 8.84536 4.8186 8.90739C4.8186 8.91335 4.81801 8.91872 4.81741 8.92408C4.91879 8.96702 5.02197 9.00519 5.12693 9.03799C5.15436 9.04634 5.1818 9.05469 5.20923 9.06304L5.26231 9.0767L5.23607 9.01652L5.23428 9.01235C5.23368 9.01056 5.23249 9.00877 5.23189 9.00698C5.19074 8.91454 5.15019 8.8227 5.10904 8.73086C5.10128 8.71356 5.09234 8.69746 5.0822 8.68196C5.01183 8.57759 4.93191 8.48157 4.83888 8.39749C4.75718 8.32353 4.6707 8.25614 4.57528 8.20068C4.57051 8.1983 4.56634 8.19591 4.56216 8.19412C4.52996 8.24243 4.46615 8.30863 4.34747 8.33123C4.13337 8.39271 3.93 8.35872 3.74155 8.21738C3.66223 8.15715 3.60319 8.07902 3.56443 7.98658C3.54773 7.94722 3.53938 7.90607 3.53699 7.86313C3.53043 7.74684 3.60617 7.65679 3.69145 7.61564C3.7821 7.5721 3.87872 7.55958 3.97831 7.56673C4.18108 7.58164 4.3415 7.67349 4.46316 7.8357C4.47509 7.85061 4.48583 7.86611 4.49656 7.88222C4.49656 7.88222 4.59669 8.01103 4.59019 8.13806C4.59437 8.14104 4.59914 8.14403 4.6045 8.14701C4.66355 8.17981 4.71841 8.21977 4.77209 8.26092C4.81622 8.29491 4.85856 8.33188 4.89911 8.37065C4.89971 8.37065 4.98738 8.4505 4.98738 8.4505L4.95219 8.35037C4.89911 8.21321 4.84663 8.07544 4.80131 7.93589C4.75718 7.80051 4.7202 7.66335 4.68859 7.52499C4.6874 7.52022 4.68561 7.51545 4.68501 7.51008C4.68442 7.49577 4.68144 7.48384 4.67607 7.4743C4.57349 7.44925 4.51028 7.38424 4.51028 7.38424C4.45064 7.33892 4.40114 7.28405 4.36059 7.21845C4.27173 7.07532 4.24191 6.91847 4.25145 6.75268C4.25741 6.66203 4.2765 6.57496 4.31765 6.49385C4.34448 6.44018 4.38027 6.39366 4.43096 6.35967C4.50193 6.31136 4.57826 6.30182 4.65818 6.32926C4.7536 6.36206 4.82337 6.42766 4.8693 6.51652C4.90866 6.59226 4.93669 6.67396 4.9504 6.75805C4.96054 6.81769 4.96233 6.87792 4.95935 6.93756C4.95338 7.03715 4.9349 7.13973 4.90508 7.23455C4.87645 7.3258 4.82874 7.42241 4.73809 7.46535C4.74167 7.48443 4.74579 7.50352 4.75062 7.5226C4.78103 7.65321 4.81622 7.78262 4.85737 7.91025L4.86214 7.92337V7.92516L4.9015 8.04503C4.9015 8.04503 4.91164 8.00865 4.91283 8.00268C4.92595 7.93947 4.94682 7.87864 4.97426 7.82019C4.98201 7.8035 4.98917 7.7862 4.99692 7.76891C5.0005 7.76115 5.00229 7.7528 5.0005 7.74505C4.95696 7.70092 4.95279 7.61922 4.99453 7.54825C5.04224 7.46654 5.1317 7.43076 5.19432 7.46774C5.25634 7.50411 5.26827 7.59953 5.22056 7.68124C5.18239 7.74565 5.11798 7.78143 5.06192 7.77487L5.05835 7.78203C5.04165 7.82258 5.02197 7.86194 5.00586 7.90309C4.97068 7.99255 4.95696 8.08558 4.96472 8.1816C4.9677 8.21022 4.97366 8.23825 4.98434 8.26509C5.03986 8.40643 5.09651 8.54777 5.15734 8.68732C5.19909 8.78215 5.24024 8.87697 5.28252 8.97179L5.3291 9.06721L5.33447 8.9867L5.33506 8.97537C5.34043 8.81554 5.36786 8.6587 5.41557 8.50543C5.41796 8.49762 5.42094 8.48992 5.42333 8.48157C5.42512 8.47621 5.42571 8.47144 5.42452 8.46666C5.30882 8.39689 5.29809 8.29789 5.29809 8.29789C5.2957 8.28954 5.29391 8.28119 5.29212 8.27225C5.27662 8.18875 5.27006 8.10466 5.28795 8.01998C5.31419 7.89176 5.37323 7.78203 5.47104 7.69495C5.5265 7.64605 5.5921 7.62041 5.66605 7.621C5.75962 7.6216 5.85212 7.67885 5.89089 7.78262C5.91116 7.83808 5.91295 7.89474 5.9046 7.95259C5.88969 8.05994 5.84854 8.15774 5.79069 8.24899C5.75372 8.30743 5.71197 8.36051 5.6577 8.40404C5.5921 8.46541 5.52829 8.48098 5.49012 8.48396C5.48654 8.48933 5.48356 8.49523 5.48118 8.50304C5.46806 8.54837 5.45315 8.5931 5.44241 8.63902C5.412 8.76843 5.39411 8.89963 5.39649 9.03262V9.05231L5.39828 9.12029L5.46686 9.14057C5.49549 9.15011 5.52352 9.16144 5.55089 9.17397C5.67977 9.23301 5.75789 9.3332 5.78771 9.47156C5.80435 9.54849 5.80739 9.62602 5.79785 9.70355C5.79189 9.75245 5.78294 9.80076 5.7728 9.84847C5.76863 9.86994 5.77161 9.88663 5.78235 9.90572C5.84079 10.0071 5.90997 10.1013 5.97617 10.1973C6.04893 10.3017 6.12944 10.4001 6.21472 10.4943L6.28092 10.5617L6.27793 10.5057C6.27555 10.4878 6.27316 10.4699 6.27137 10.4514C6.27078 10.4454 6.26899 10.4401 6.26601 10.4353C6.21233 10.4013 6.18013 10.35 6.18013 10.35C6.14136 10.2981 6.11512 10.2385 6.09485 10.1753C6.05727 10.0602 6.04058 9.94144 6.03879 9.82103C6.03461 9.57413 6.07636 9.33618 6.17476 9.1089C6.21472 9.01533 6.26601 8.9276 6.33459 8.85192C6.36799 8.81495 6.40377 8.78215 6.44671 8.7577V4.76735C4.67547 4.76735 3.24 6.20282 3.24 7.97465C3.24 9.48766 4.28783 10.7561 5.69766 11.0937L5.63206 10.8838C5.63206 10.8838 5.89804 11.0293 6.20637 11.1724H6.2069C6.28509 11.1784 6.36441 11.1813 6.44432 11.1813H6.22605C6.41271 11.2678 6.6125 11.3525 6.7771 11.4032C7.21961 11.5386 8.04738 11.9322 8.27877 12.7313L8.472 13.5031C8.472 13.5031 7.68293 13.1464 7.3192 12.9621C6.95542 12.7785 6.16462 12.4075 5.88492 11.6889L5.72569 11.1813H4.97426C4.97426 12.9526 6.40973 14.3887 8.18097 14.3887C9.9522 14.3887 11.3883 12.9526 11.3883 11.1813H12.8589C12.8589 9.93256 12.1451 8.85133 11.1038 8.32115Z" fill="white"/>
<path d="M6.34172 10.4639C6.33695 10.4668 6.33516 10.4716 6.33576 10.4812C6.34113 10.5354 6.35663 10.5873 6.38287 10.635C6.40076 10.6666 6.42104 10.6964 6.44668 10.7214V10.44C6.43714 10.446 6.4282 10.4507 6.41806 10.4543C6.39062 10.4645 6.36498 10.4668 6.34172 10.4639Z" fill="white"/>
<path d="M5.67561 9.35582C5.64817 9.31944 5.61955 9.28724 5.58138 9.261C5.58019 9.26034 5.5784 9.25921 5.5772 9.25796C5.53009 9.22641 5.47821 9.19832 5.42274 9.18341C5.41738 9.18168 5.41141 9.18049 5.40545 9.1787C5.40426 9.1787 5.40306 9.1781 5.40187 9.1781C5.3977 9.17751 5.39352 9.17691 5.38994 9.17512L5.39113 9.1781C5.39292 9.18228 5.39471 9.1858 5.3965 9.19003C5.42036 9.24669 5.44541 9.30268 5.47165 9.3588C5.4955 9.40353 5.51876 9.44826 5.54321 9.49299C5.55335 9.51142 5.56349 9.53056 5.57422 9.54905C5.59629 9.5896 5.61955 9.63015 5.64221 9.67071C5.66487 9.71126 5.69111 9.74943 5.71795 9.7876C5.73226 9.73631 5.74061 9.68383 5.7418 9.63069C5.7424 9.58596 5.73942 9.54123 5.73107 9.49716C5.72153 9.44349 5.70304 9.3928 5.67561 9.35582Z" fill="white"/>
<path d="M10.4722 8.3907C10.3404 8.52554 10.2599 8.70022 10.2158 8.88151C10.1973 8.95964 10.1847 9.03836 10.177 9.11828C10.1728 9.16187 10.1704 9.206 10.1686 9.24948C10.1674 9.27751 10.1651 9.30912 10.1645 9.34019C10.1645 9.35205 10.1806 9.3551 10.1853 9.3443C10.2301 9.23994 10.3786 8.98349 10.8181 8.74733C10.9415 8.68113 11.099 8.57563 11.1175 8.42231C11.1216 8.38599 11.1163 8.35199 11.1038 8.32092H11.1032C11.0018 8.2691 10.8974 8.22312 10.7901 8.18262H10.7895C10.7274 8.19866 10.669 8.23212 10.6159 8.2691C10.5646 8.30542 10.5163 8.34597 10.4722 8.3907Z" fill="#D83341"/>
<path d="M10.7859 8.90431C10.6486 8.97015 10.5288 9.07166 10.4238 9.18055C10.3134 9.29506 10.2154 9.42346 10.1379 9.56259C10.0799 9.66702 10.0215 9.78969 10.0223 9.91195V9.91225C10.0224 9.9228 10.0347 9.92859 10.0429 9.92203C10.0617 9.90724 10.0882 9.89006 10.0927 9.88666C10.1558 9.83877 10.2221 9.79512 10.2905 9.75528C10.4126 9.68413 10.5426 9.62706 10.6758 9.58013C10.8021 9.53558 10.933 9.50641 11.0413 9.42304C11.1725 9.32213 11.3163 9.10648 11.2025 8.94516C11.1035 8.8046 10.9187 8.84074 10.7859 8.90431Z" fill="#D83341"/>
<path d="M10.0339 10.0208C10.0339 10.0208 9.60582 10.3117 9.48225 10.8724C9.48225 10.8724 9.83477 10.3711 10.4579 10.1889C10.4579 10.1889 10.1309 10.7495 9.43585 11.0471C9.43585 11.0471 10.0517 11.2546 10.6737 10.6808C10.6737 10.6808 10.9246 10.4094 11.1662 9.80838C11.1662 9.80838 10.6293 9.54902 10.0339 10.0208Z" fill="#1D1D1D"/>
<path d="M8.41898 11.3191C8.27018 11.3806 8.11954 11.4652 7.98506 11.5818C7.98506 11.5818 9.11453 11.4223 9.57947 11.6462C9.57947 11.6462 8.89465 12.1038 7.88791 11.6793C7.87669 11.6746 8.46448 12.5814 9.34521 12.3271C9.34521 12.3271 9.77764 12.2393 10.131 11.7624C10.131 11.7624 10.2412 11.6164 10.3296 11.5337C10.3296 11.5337 10.1055 11.3968 9.78313 11.2854C9.33901 11.1319 8.8532 11.1396 8.41898 11.3191Z" fill="#1D1D1D"/>
<path d="M5.69767 11.0936H5.69826C5.86346 11.133 6.03223 11.1598 6.20637 11.1724C5.89805 11.0292 5.63206 10.8837 5.63206 10.8837L5.69767 11.0936Z" fill="#1D1D1D"/>
<path d="M7.3192 12.962C7.68299 13.1463 8.472 13.5029 8.472 13.5029L8.27877 12.7312C8.04738 11.9321 7.21961 11.5385 6.7771 11.4031C6.6125 11.3524 6.41271 11.2677 6.22605 11.1812H5.72569L5.88492 11.6888C6.16462 12.4074 6.95541 12.7783 7.3192 12.962Z" fill="#1D1D1D"/>
<path d="M8.12848 11.0471C8.12848 11.0471 9.11667 10.8593 9.43752 9.90929C9.47211 9.80791 9.49537 9.69991 9.48702 9.59202C9.47987 9.49535 9.4256 9.40238 9.34687 9.34572C9.14888 9.76432 8.86262 10.1323 8.51254 10.4275C8.47974 10.5212 8.44396 10.6136 8.40162 10.7036C8.34079 10.8324 8.26147 10.9804 8.12848 11.0471Z" fill="#1D1D1D"/>
<path d="M9.61407 9.85132C9.61407 9.85132 9.96235 9.2132 9.61049 8.50112C9.60274 8.55009 9.59379 8.59833 9.58365 8.64604C9.6421 8.90905 9.71724 9.39569 9.61407 9.85132Z" fill="#D83341"/>
<path d="M9.84543 9.20959C9.84543 9.20959 10.1317 8.63111 9.84663 7.98046C9.81681 7.97868 9.78759 7.97689 9.75777 7.97629C9.82754 8.22796 9.9331 8.7313 9.84543 9.20959Z" fill="#D83341"/>
<path d="M5.61294 10.629C5.84195 10.7716 6.07275 10.9111 6.31488 11.0328C6.35841 11.0548 6.40254 11.0757 6.44667 11.0953V11.019C6.41149 11.0053 6.3763 10.9904 6.34171 10.9755C6.09481 10.8712 5.85567 10.7465 5.61294 10.629Z" fill="#D83341"/>
<path d="M6.68881 11.1961C6.75322 11.2195 6.81882 11.2391 6.88502 11.257C6.95181 11.2743 7.01861 11.2892 7.0866 11.3012C7.15399 11.313 7.22197 11.322 7.29056 11.3286L7.34184 11.3327L7.39313 11.3351C7.42772 11.3375 7.46231 11.3375 7.49631 11.3387C7.63347 11.3411 7.77123 11.3321 7.90721 11.3148C8.04378 11.2969 8.17856 11.269 8.31095 11.2325C8.44335 11.1949 8.57336 11.1473 8.69919 11.0912C8.82443 11.0334 8.9455 10.9665 9.0606 10.8891C9.17451 10.8115 9.28245 10.7238 9.38085 10.626C9.47866 10.5276 9.56752 10.4203 9.64326 10.304C9.7184 10.1889 9.78341 10.0672 9.84006 9.94256C9.86809 9.88054 9.89433 9.81738 9.91819 9.75357C9.94204 9.6897 9.96411 9.62469 9.98438 9.55975C10.0237 9.42974 10.0571 9.29794 10.0852 9.16548C10.1394 8.9001 10.1705 8.62934 10.1645 8.35924C10.1424 8.62815 10.0941 8.893 10.0243 9.15117C9.95516 9.4094 9.8663 9.66226 9.74882 9.89968C9.71959 9.95932 9.68858 10.0171 9.65518 10.0744C9.62179 10.1311 9.5866 10.1871 9.54963 10.2413C9.47448 10.3487 9.3898 10.4483 9.29617 10.5395C9.20134 10.6296 9.09936 10.7119 8.99023 10.7841C8.88049 10.8563 8.76599 10.92 8.64612 10.9743C8.52625 11.028 8.4028 11.0739 8.27636 11.1103C8.14993 11.1473 8.02112 11.1747 7.89051 11.1944C7.62989 11.232 7.36331 11.2379 7.1021 11.2016C7.0365 11.192 6.9715 11.1806 6.90709 11.1663C6.89158 11.1627 6.87548 11.1592 6.85997 11.155C6.78543 11.1646 6.71088 11.1717 6.63514 11.1759L6.6411 11.1782C6.65661 11.1843 6.67271 11.1902 6.68881 11.1961Z" fill="#D83341"/>
<path d="M5.71793 9.7876C5.69109 9.74937 5.66485 9.71126 5.64219 9.67071C5.61953 9.6301 5.59627 9.5896 5.5742 9.54905C5.56347 9.5305 5.55333 9.51142 5.54319 9.49299C5.51874 9.44826 5.49548 9.40353 5.47162 9.35881C5.44538 9.30269 5.42034 9.24669 5.39648 9.18997C5.39469 9.1858 5.3929 9.18228 5.39111 9.17804L5.38992 9.17506C5.3935 9.17691 5.39767 9.17751 5.40185 9.17804C5.40304 9.17804 5.40423 9.1787 5.40543 9.1787C5.41139 9.18043 5.41735 9.18168 5.42272 9.18341C5.47819 9.19832 5.53007 9.22641 5.57718 9.25796C5.57838 9.25921 5.58017 9.26034 5.58136 9.261C5.61953 9.28718 5.64815 9.31938 5.67559 9.35582C5.70302 9.3928 5.72151 9.44343 5.73105 9.49716C5.7394 9.54124 5.74238 9.58596 5.74178 9.63069C5.74059 9.68383 5.73224 9.73631 5.71793 9.7876ZM6.17475 9.10886C6.07635 9.33614 6.0346 9.5741 6.03878 9.821C6.04057 9.9414 6.05727 10.0601 6.09484 10.1752C6.11511 10.2385 6.14135 10.2981 6.18012 10.35C6.18012 10.35 6.21232 10.4013 6.266 10.4352C6.26898 10.44 6.27077 10.4453 6.27136 10.4514C6.27315 10.4698 6.27554 10.4877 6.27792 10.5056L6.28091 10.5616L6.21471 10.4943C6.12943 10.4001 6.04892 10.3016 5.97616 10.1972C5.90996 10.1013 5.84078 10.0071 5.78234 9.90562C5.7716 9.88654 5.76862 9.8699 5.77279 9.84843C5.78293 9.80072 5.79188 9.75235 5.79784 9.70351C5.80738 9.62598 5.8044 9.54839 5.7877 9.47146C5.75789 9.33316 5.67976 9.23291 5.55094 9.17393C5.52351 9.16141 5.49548 9.15007 5.46685 9.14047L5.39827 9.12026L5.39648 9.05227V9.03259C5.3941 8.89954 5.41199 8.76833 5.4424 8.63892C5.45314 8.59306 5.46805 8.54833 5.48117 8.50301C5.48355 8.49519 5.48653 8.48923 5.49011 8.48392C5.52828 8.48094 5.59209 8.46538 5.65769 8.40401C5.71196 8.36041 5.75371 8.3074 5.79069 8.24889C5.84853 8.15771 5.88968 8.05984 5.90459 7.95249C5.91294 7.8947 5.91115 7.83805 5.89088 7.78253C5.85211 7.67882 5.75967 7.62156 5.66604 7.62091C5.59209 7.62037 5.52649 7.64596 5.47103 7.69492C5.37322 7.78199 5.31418 7.89166 5.28794 8.01988C5.27005 8.10457 5.27661 8.18866 5.29212 8.27221C5.29391 8.2811 5.29569 8.2895 5.29808 8.29785C5.29808 8.29785 5.30881 8.39685 5.42451 8.46663C5.4257 8.4714 5.42511 8.47617 5.42332 8.48154C5.42093 8.48983 5.41795 8.49758 5.41557 8.50539C5.36786 8.6586 5.34042 8.81545 5.33505 8.97534L5.33446 8.98661L5.32909 9.06718L5.28257 8.9717C5.24023 8.87687 5.19908 8.78211 5.15734 8.68729C5.0965 8.54773 5.03985 8.40639 4.98439 8.26505C4.97365 8.23822 4.96769 8.21019 4.96471 8.1815C4.95695 8.08554 4.97067 7.99245 5.00586 7.90299C5.02196 7.86184 5.04164 7.82254 5.05834 7.78199L5.06192 7.77483C5.11797 7.78133 5.18238 7.74561 5.22055 7.6812C5.26826 7.5995 5.25633 7.50402 5.19431 7.4677C5.13169 7.43066 5.04223 7.46651 4.99452 7.54821C4.95278 7.61918 4.95695 7.70088 5.00049 7.74501C5.00228 7.75271 5.00049 7.76112 4.99691 7.76881C4.98916 7.7861 4.982 7.8034 4.97425 7.82016C4.94681 7.8786 4.92594 7.93943 4.91282 8.00259C4.91163 8.00855 4.90149 8.04493 4.90149 8.04493L4.86213 7.92512V7.92333L4.85736 7.91021C4.81621 7.78253 4.78102 7.65311 4.75061 7.52257C4.74584 7.50348 4.74166 7.48434 4.73808 7.46531C4.82873 7.42231 4.87644 7.32576 4.90507 7.23446C4.93489 7.13969 4.95337 7.03706 4.95934 6.93746C4.96232 6.87782 4.96053 6.81765 4.95039 6.75801C4.93668 6.67392 4.90865 6.59216 4.86929 6.51642C4.82337 6.42762 4.75359 6.36202 4.65817 6.32922C4.57825 6.30178 4.50192 6.31127 4.43095 6.35963C4.38026 6.39357 4.34448 6.44014 4.31764 6.49382C4.27649 6.57487 4.2574 6.66194 4.25144 6.75259C4.2419 6.91844 4.27172 7.07528 4.36058 7.21835C4.40113 7.28402 4.45063 7.33882 4.51027 7.38421C4.51027 7.38421 4.57348 7.44921 4.67606 7.4742C4.68143 7.4838 4.68441 7.49567 4.68501 7.51004C4.6856 7.51535 4.68739 7.52012 4.68858 7.52495C4.72019 7.66325 4.75717 7.80048 4.8013 7.93585C4.84662 8.07541 4.8991 8.21317 4.95218 8.35027L4.98737 8.45047C4.98737 8.45047 4.8997 8.37055 4.8991 8.37055C4.85855 8.33185 4.81621 8.29487 4.77208 8.26082C4.7184 8.21973 4.66354 8.17977 4.6045 8.14691C4.59913 8.14393 4.59436 8.14101 4.59018 8.13802C4.59674 8.01094 4.49655 7.88218 4.49655 7.88218C4.48582 7.86602 4.47508 7.85057 4.46315 7.83566C4.34149 7.67345 4.18107 7.58161 3.9783 7.5667C3.87871 7.55954 3.78209 7.57206 3.69144 7.6156C3.60616 7.65675 3.53042 7.74674 3.53698 7.86304C3.53937 7.90603 3.54772 7.94718 3.56442 7.98655C3.60318 8.07898 3.66222 8.15705 3.74154 8.21734C3.92999 8.35868 4.13336 8.39262 4.34746 8.33119C4.46614 8.30853 4.52995 8.24239 4.56215 8.19402C4.56633 8.19587 4.5705 8.19826 4.57527 8.20064C4.67069 8.25605 4.75717 8.32344 4.83887 8.39739C4.93191 8.48154 5.01182 8.57755 5.08219 8.68192C5.09233 8.69743 5.10128 8.71347 5.10903 8.73076C5.15018 8.8226 5.19073 8.91445 5.23188 9.00688C5.23248 9.00867 5.23367 9.01052 5.23427 9.01231L5.23606 9.01643L5.2623 9.07666L5.20922 9.063C5.18179 9.05465 5.15435 9.04624 5.12692 9.03796C5.02196 9.00515 4.91879 8.96693 4.8174 8.92405C4.818 8.91868 4.81859 8.91331 4.81859 8.90729C4.81859 8.84527 4.7679 8.77251 4.68501 8.72778C4.58064 8.67112 4.46614 8.68067 4.42856 8.74931C4.39159 8.81724 4.44646 8.91868 4.55082 8.97534C4.64147 9.02484 4.74047 9.02418 4.78878 8.97772C4.8663 9.01231 4.94503 9.04273 5.02494 9.06891C5.10426 9.09395 5.18358 9.11841 5.26289 9.14172C5.28675 9.14888 5.30524 9.15962 5.31597 9.18341C5.36845 9.29678 5.42809 9.40705 5.48653 9.51744C5.54379 9.62479 5.60402 9.73035 5.66604 9.83471C5.72091 9.9265 5.77518 10.0177 5.8378 10.1048C5.87776 10.1609 5.91771 10.2182 5.95707 10.2748C5.96065 10.2808 5.97079 10.2861 5.96125 10.2962C5.95051 10.2909 5.93978 10.2861 5.92964 10.2808C5.86165 10.2456 5.79486 10.2104 5.72687 10.1752C5.69825 10.1609 5.66962 10.1466 5.6398 10.1341C5.63563 10.1322 5.63145 10.1305 5.62788 10.1281C5.62489 10.1263 5.62668 10.1072 5.62668 10.1037C5.62609 10.0905 5.62549 10.078 5.6231 10.0649C5.61416 10.0214 5.59388 9.98142 5.57301 9.94206C5.55094 9.90085 5.52649 9.86036 5.50025 9.82153C5.46924 9.77627 5.43644 9.73267 5.40185 9.68973C5.34758 9.62055 5.28675 9.5568 5.22115 9.49889C5.08219 9.37723 4.92594 9.28426 4.75717 9.2115C4.52816 9.11304 4.29021 9.06354 4.04092 9.07905C3.97472 9.08268 3.90912 9.09097 3.84591 9.10952C3.81668 9.11787 3.78746 9.12795 3.76301 9.14709C3.72186 9.17804 3.71053 9.22039 3.72902 9.26816C3.73856 9.29195 3.74989 9.31461 3.76778 9.33376C3.81728 9.38678 3.86618 9.44051 3.91747 9.4918C3.99202 9.56754 4.06776 9.64208 4.14409 9.71663C4.24011 9.80961 4.33732 9.90085 4.44109 9.985C4.5538 10.0756 4.67248 10.1562 4.80607 10.2122C5.02017 10.3016 5.23785 10.3172 5.4591 10.2581C5.4591 10.2581 5.5587 10.2522 5.60521 10.1878C5.60819 10.1884 5.61058 10.1889 5.61356 10.1902C5.62132 10.1931 5.62966 10.1961 5.63682 10.1996C5.75789 10.2569 5.87656 10.3183 5.99107 10.387C6.04355 10.4179 6.09543 10.4501 6.13599 10.4967C6.15567 10.5199 6.17654 10.542 6.19682 10.5646C6.27435 10.6493 6.35843 10.7281 6.4467 10.8008V10.7215C6.42105 10.6964 6.40078 10.6666 6.38289 10.635C6.35665 10.5873 6.34114 10.5355 6.33577 10.4812C6.33518 10.4716 6.33697 10.4669 6.34174 10.4639C6.365 10.4669 6.39064 10.4645 6.41807 10.4543C6.42821 10.4507 6.43716 10.446 6.4467 10.44V8.7576C6.40376 8.78211 6.36798 8.81485 6.33458 8.85189C6.266 8.92757 6.21471 9.01529 6.17475 9.10886Z" fill="#1D1D1D"/>
<path d="M5.92139 7.13079C6.05057 7.02845 6.03912 6.88997 5.95736 6.83028C5.87559 6.77058 5.76359 6.83439 5.76359 6.83439C5.40958 7.021 5.40326 7.36743 5.40326 7.36743C5.41531 7.33749 5.79222 7.23307 5.92139 7.13079Z" fill="#D83341"/>
<path d="M5.93302 6.43234C5.99254 6.35678 5.96737 6.27967 5.91286 6.25689C5.85835 6.23399 5.80343 6.28539 5.80343 6.28539C5.62755 6.43914 5.67073 6.63672 5.67073 6.63672C5.67354 6.61811 5.8735 6.5079 5.93302 6.43234Z" fill="#D83341"/>
<path d="M5.95413 8.54821C5.80385 8.79827 5.93075 9.01672 5.93075 9.01672C5.927 8.99358 6.12261 8.78599 6.16447 8.67345C6.2064 8.56079 6.14694 8.47879 6.07341 8.47241C5.99987 8.46609 5.95413 8.54821 5.95413 8.54821Z" fill="#D83341"/>
<path d="M5.30705 7.0509C5.30705 7.0509 5.58413 6.84283 5.52807 6.44666C5.52807 6.44666 5.51423 6.31849 5.41792 6.28719C5.32166 6.25582 5.20268 6.32774 5.19541 6.49228C5.18813 6.65694 5.32422 7.02359 5.30705 7.0509Z" fill="#D83341"/>
<path d="M3.88107 8.84968C3.98216 8.8541 4.20729 8.77055 4.22405 8.7811C4.22405 8.7811 4.0963 8.61096 3.85304 8.64537C3.85304 8.64537 3.77432 8.65389 3.75512 8.713C3.73586 8.7721 3.77999 8.84521 3.88107 8.84968Z" fill="#D83341"/>
<path d="M7.64792 6.99077L7.75169 7.00025C7.96818 7.01403 8.17768 6.98725 8.37234 6.93745C9.09819 6.30542 8.87908 5.8545 8.62848 5.61261C8.45142 5.44169 8.21006 5.35086 7.9646 5.36821C7.85832 5.37573 7.76809 5.40197 7.69164 5.44234C7.50497 5.79635 7.32111 6.30249 7.39947 6.83691C7.39947 6.83691 7.39911 6.83655 7.39852 6.83577V6.83601L7.39911 6.83661L7.39965 6.8372C7.39965 6.8372 7.36035 6.88014 7.27805 6.92129C7.35969 7.01194 7.44676 7.09722 7.53861 7.17773C7.58399 7.05071 7.64721 6.99047 7.64721 6.99047C7.64744 6.99059 7.64768 6.99071 7.64792 6.99077Z" fill="white"/>
<path d="M10.7004 5.76112C10.4182 5.61739 10.1934 5.63331 10.1934 5.63331C10.3467 5.25324 10.7045 5.11429 10.9747 5.32892C11.2448 5.5435 10.9826 5.90484 10.7004 5.76112ZM10.3365 4.50742C10.649 4.15669 10.8993 4.39059 10.9474 4.49579C10.9955 4.60099 10.9327 4.87097 10.6427 4.96191C10.3526 5.0528 10.1309 5.24704 10.1309 5.24704C10.1309 5.24704 10.024 4.85815 10.3365 4.50742ZM10.1781 3.84741C10.2548 3.79409 10.3647 3.81968 10.4236 3.90448C10.4824 3.98929 10.468 4.10123 10.3912 4.15454C10.3144 4.2078 10.2045 4.18221 10.1456 4.09741C10.0868 4.0126 10.1013 3.90066 10.1781 3.84741ZM9.94714 4.64053C9.84874 4.70887 9.70776 4.67607 9.63231 4.56735C9.55687 4.45863 9.57548 4.31509 9.67388 4.2468C9.77228 4.17852 9.91321 4.21132 9.98865 4.32004C10.0641 4.42875 10.0455 4.57224 9.94714 4.64053ZM8.98334 4.14297C8.98334 4.14297 9.19577 3.93865 9.31111 3.65746C9.42644 3.37621 9.70078 3.33667 9.80151 3.39363C9.90223 3.45052 10.1139 3.71978 9.73781 4.00127C9.36168 4.2827 8.98334 4.14297 8.98334 4.14297ZM8.6038 4.04773C8.6038 4.04773 8.63881 3.82516 8.51972 3.53175C8.40062 3.23827 8.78302 3.00783 8.97374 3.29528C9.16452 3.5828 8.99556 3.92744 8.6038 4.04773ZM11.2034 4.76726V3.16366H9.65402V1.56001C8.41589 1.56001 7.34187 2.26135 6.80687 3.28831C6.83907 3.28175 6.87247 3.2787 6.90592 3.27936C7.12539 3.28175 7.37885 3.42965 7.33174 4.12615C7.32458 4.23416 7.31498 4.33608 7.30484 4.43275C7.30484 4.43293 7.30478 4.43317 7.30478 4.43347C7.36322 4.35337 7.429 4.27274 7.50355 4.19176C7.61901 4.06634 7.72027 3.92834 7.80031 3.77781C7.86889 3.6487 7.93574 3.49084 7.96896 3.32212C7.96896 3.32212 8.45286 3.57409 8.33257 4.22378C8.5097 4.22694 8.71187 4.27239 8.94272 4.37228C8.94272 4.37228 10.0717 4.83829 10.0993 5.95667C10.0999 5.98482 10.0977 6.01261 10.094 6.04004C10.8475 5.79529 11.1489 6.34527 11.1489 6.34527C10.9809 6.38218 10.8245 6.45244 10.6969 6.52382C10.5482 6.60708 10.4124 6.71132 10.2895 6.82946C10.2101 6.9058 10.1308 6.97343 10.0519 7.0336C10.0521 7.03354 10.0522 7.03354 10.0524 7.03348C10.149 7.02162 10.2504 7.00969 10.3589 7.00015C11.0537 6.93753 11.2075 7.18801 11.2147 7.40741C11.2165 7.46824 11.2075 7.52788 11.1885 7.58459C12.185 7.0401 12.8613 5.98273 12.8613 4.76726H11.2034Z" fill="white"/>
<path d="M7.38912 6.82495C7.36753 6.79966 7.31427 6.73424 7.25064 6.63572C7.29077 6.71373 7.33956 6.77587 7.38912 6.82495Z" fill="#D83341"/>
<path d="M7.38897 6.8122C7.37883 6.78775 7.3669 6.76031 7.35378 6.7305L7.35355 6.73026C7.36655 6.7766 7.3805 6.8113 7.39374 6.82979C7.39219 6.8283 7.39064 6.82657 7.38909 6.82502C7.39374 6.83045 7.39702 6.83421 7.39851 6.83582V6.83546C7.39553 6.8283 7.39255 6.81995 7.38897 6.8122Z" fill="#D83341"/>
<path d="M7.96893 3.32212C7.93571 3.49083 7.86886 3.64875 7.80028 3.77781C7.72024 3.92839 7.61898 4.06634 7.50352 4.19175C7.42897 4.27274 7.36319 4.35337 7.30475 4.43346C7.23974 5.03777 7.13251 5.43782 7.16114 5.89327V5.89387C7.1612 5.8947 7.16132 5.8956 7.16132 5.89643C7.17647 6.13725 7.22954 6.39297 7.34661 6.70375C7.34661 6.70387 7.34667 6.70404 7.34667 6.70404C7.34685 6.70458 7.34721 6.70506 7.34721 6.70554C7.36033 6.74072 7.37405 6.77591 7.38896 6.81229C7.39253 6.82004 7.39552 6.82839 7.3985 6.83555V6.8359C7.39909 6.83668 7.39951 6.83704 7.39951 6.83704C7.32109 6.30268 7.50495 5.79648 7.69168 5.44247C7.8521 5.13832 8.01461 4.94647 8.01461 4.94647C8.20062 4.66426 8.29527 4.42517 8.33254 4.22378C8.45283 3.57415 7.96893 3.32212 7.96893 3.32212Z" fill="#D83341"/>
<path d="M7.35316 6.73007C7.30724 6.6263 7.24402 6.49331 7.16769 6.35614C7.16739 6.35614 7.16751 6.35603 7.16739 6.35591C7.16733 6.35573 7.16709 6.35555 7.16709 6.35555C7.11461 6.26132 7.05557 6.1653 6.99116 6.07466C6.99056 6.07466 6.99056 6.07406 6.99056 6.07406C6.87069 5.90588 6.73174 5.75738 6.57847 5.67866C6.64407 5.9029 6.73472 6.117 6.84564 6.31798C6.96611 6.53625 7.11163 6.73842 7.27802 6.92151C7.36032 6.88036 7.39968 6.83742 7.39968 6.83742L7.39908 6.83682L7.39848 6.83623V6.83599C7.39699 6.83438 7.36652 6.77677 7.35352 6.73043L7.35316 6.73007Z" fill="#D83341"/>
<path d="M8.37236 6.93746C8.17771 6.9872 7.96814 7.01397 7.75166 7.00026L8.24223 7.04504C8.28893 7.00861 8.33181 6.97282 8.37236 6.93746Z" fill="#D83341"/>
<path d="M10.094 6.04C9.92669 6.09433 9.7374 6.18736 9.5239 6.33479C9.5239 6.33479 9.03439 6.76835 8.37235 6.93754C8.3318 6.97291 8.28892 7.00869 8.24229 7.04513L7.75171 7.00034C7.71724 6.99808 7.68271 6.99515 7.64794 6.9908C7.65253 6.99259 7.65754 6.9948 7.66213 6.99653C7.84158 7.06582 8.00224 7.11503 8.1517 7.14902C8.15265 7.14926 8.15372 7.1495 8.15468 7.14973C8.82846 7.30181 9.26561 7.13488 10.0519 7.03356C10.1308 6.97339 10.2101 6.90576 10.2895 6.82936C10.4124 6.71128 10.5482 6.60697 10.6969 6.52378C10.8245 6.45239 10.9809 6.38208 11.1488 6.34522C11.1488 6.34522 10.8476 5.79525 10.094 6.04Z" fill="#D83341"/>
<path d="M7.64709 6.99019C7.64709 6.99019 7.64767 6.99068 7.64855 6.99146L7.64806 6.99087C7.64777 6.99068 7.64738 6.99048 7.64709 6.99019Z" fill="#D83341"/>
<path d="M7.64778 6.99025C7.64778 6.99025 7.64737 6.99025 7.64709 6.99025C7.64764 6.99052 7.64805 6.9908 7.64847 6.99121L7.64778 6.99025Z" fill="#D83341"/>
<path d="M7.6472 6.99025L7.64756 6.99073L7.64862 6.99084C7.64815 6.99061 7.64767 6.99037 7.6472 6.99025Z" fill="#D83341"/>
<path d="M7.64872 6.99084L7.64735 6.99071C7.6479 6.99084 7.64831 6.99084 7.64872 6.99084Z" fill="#D83341"/>
<path d="M8.41951 7.38265C8.41933 7.38254 8.41909 7.38236 8.41891 7.38218C8.27698 7.28562 8.12192 7.20207 7.98296 7.13528C7.98243 7.13528 7.98201 7.13498 7.98153 7.1348C7.98141 7.1348 7.98123 7.13468 7.98112 7.13468C7.85474 7.07451 7.74143 7.02793 7.66211 6.99632C7.65758 6.99465 7.65251 6.99245 7.64792 6.99066C7.64774 6.99066 7.64756 6.99066 7.64738 6.9906C7.64738 6.99066 7.64768 6.99102 7.64768 6.99102C7.64774 6.99107 7.64792 6.99131 7.64792 6.99131C7.64744 6.9909 7.64709 6.9906 7.64709 6.9906H7.64738L7.6472 6.99036C7.6472 6.99036 7.58399 7.05059 7.5386 7.17762C7.79868 7.40663 8.09568 7.59329 8.42011 7.72808H8.4207C8.56324 7.78771 8.71054 7.83727 8.86262 7.87598C8.79887 7.6883 8.62264 7.52155 8.41951 7.38265Z" fill="#D83341"/>
<path d="M9.80153 3.39356C9.70081 3.3366 9.42647 3.37614 9.31113 3.65739C9.1958 3.93858 8.98331 4.1429 8.98331 4.1429C8.98331 4.1429 9.36171 4.28269 9.73784 4.0012C10.1139 3.71977 9.90226 3.45051 9.80153 3.39356Z" fill="#D83341"/>
<path d="M10.9474 4.49569C10.8993 4.39043 10.649 4.15654 10.3365 4.50732C10.024 4.85805 10.1309 5.24695 10.1309 5.24695C10.1309 5.24695 10.3526 5.05271 10.6427 4.96176C10.9327 4.87087 10.9955 4.60089 10.9474 4.49569Z" fill="#D83341"/>
<path d="M7.64794 6.99088C7.68271 6.99518 7.7173 6.99816 7.75171 7.00037L7.64794 6.99088Z" fill="#1D1D1D"/>
<path d="M8.62853 5.61265C8.87907 5.85454 9.09818 6.30546 8.37239 6.9375C9.03442 6.76831 9.52393 6.33474 9.52393 6.33474C9.73743 6.18732 9.92672 6.09434 10.094 6.04001C10.0976 6.01252 10.1 5.98479 10.0993 5.95664C10.0718 4.8382 8.94276 4.37225 8.94276 4.37225C8.71184 4.2723 8.50973 4.22691 8.33261 4.22369C8.29528 4.42503 8.20063 4.66418 8.01468 4.94638C8.01468 4.94638 7.85211 5.13824 7.69168 5.44239C7.76814 5.40201 7.85837 5.37577 7.96459 5.36826C8.21011 5.3509 8.45147 5.44173 8.62853 5.61265Z" fill="#1D1D1D"/>
<path d="M7.34672 6.70407C7.34672 6.70395 7.34666 6.70389 7.34666 6.70378C7.22953 6.39294 7.17651 6.13722 7.16137 5.89646C7.16131 5.89557 7.16119 5.89473 7.16113 5.8939V5.8933C7.13256 5.43785 7.23979 5.0378 7.3048 4.43349C7.3048 4.4332 7.30485 4.43296 7.30485 4.43278C7.31499 4.33611 7.32454 4.23413 7.33175 4.12618C7.37886 3.42967 7.12541 3.28177 6.90588 3.27939C6.87248 3.27873 6.83909 3.28177 6.80688 3.28833C6.57668 3.73084 6.44667 4.23413 6.44667 4.76728C6.44667 5.08396 6.49259 5.38996 6.57853 5.67861C6.73174 5.75733 6.87075 5.90583 6.99056 6.074C6.99056 6.074 6.99056 6.0746 6.99122 6.0746C7.05563 6.16525 7.11461 6.26126 7.16709 6.35549C7.16709 6.35549 7.16733 6.35561 7.16745 6.35579C7.16751 6.35591 7.16745 6.35609 7.16775 6.35609C7.24402 6.49325 7.30724 6.62625 7.35316 6.73002L7.35358 6.73037L7.35382 6.73061C7.36688 6.76043 7.37886 6.78786 7.38894 6.81226C7.37403 6.77594 7.36038 6.74075 7.3472 6.7055C7.3472 6.70509 7.34684 6.70455 7.34672 6.70407Z" fill="#1D1D1D"/>
<path d="M10.3589 7.00001C10.2504 7.00955 10.149 7.02148 10.0524 7.03341C10.0522 7.03341 10.0521 7.03347 10.052 7.03347C9.26558 7.13485 8.82849 7.30178 8.15471 7.1497C8.15369 7.14946 8.15268 7.14916 8.15167 7.14892C8.00221 7.11499 7.84161 7.06573 7.6621 6.99643C7.74142 7.02804 7.85473 7.07456 7.98116 7.13479C7.98128 7.13479 7.9814 7.13485 7.98152 7.13491C7.982 7.13503 7.98247 7.13539 7.98295 7.13539C8.12191 7.20218 8.27696 7.28567 8.4189 7.38229C8.41914 7.38241 8.41932 7.38258 8.4195 7.3827C8.62262 7.5216 8.79885 7.68841 8.86261 7.87609C9.05464 7.92499 9.25383 7.9566 9.45838 7.96852C9.52339 7.9727 9.58839 7.97449 9.654 7.97449C9.93727 7.97449 10.2128 7.93751 10.474 7.86833C10.7263 7.80213 10.9654 7.70612 11.1885 7.58446C11.2076 7.5278 11.2165 7.46816 11.2147 7.40733C11.2076 7.18787 11.0537 6.93739 10.3589 7.00001Z" fill="#1D1D1D"/>
<path d="M8.60379 4.04761C8.99555 3.92732 9.1645 3.58267 8.97378 3.29516C8.783 3.00771 8.4006 3.23815 8.5197 3.53162C8.6388 3.82504 8.60379 4.04761 8.60379 4.04761Z" fill="#1D1D1D"/>
<path d="M10.1935 5.63327C10.1935 5.63327 10.4182 5.61735 10.7004 5.76107C10.9826 5.9048 11.2448 5.54346 10.9747 5.32888C10.7046 5.11424 10.3467 5.2532 10.1935 5.63327Z" fill="#1D1D1D"/>
<path d="M9.94714 4.64047C10.0455 4.57219 10.0641 4.4287 9.98871 4.31992C9.91326 4.21126 9.77228 4.17846 9.67388 4.24675C9.57548 4.31503 9.55693 4.45852 9.63237 4.56724C9.70781 4.67602 9.84874 4.70882 9.94714 4.64047Z" fill="#1D1D1D"/>
<path d="M10.3912 4.15434C10.4679 4.10102 10.4824 3.98908 10.4236 3.90434C10.3647 3.81948 10.2548 3.79395 10.178 3.84721C10.1013 3.90046 10.0867 4.0124 10.1456 4.09721C10.2045 4.18201 10.3144 4.2076 10.3912 4.15434Z" fill="#1D1D1D"/>
<path d="M11.0413 9.42319C10.9329 9.5065 10.802 9.53573 10.6758 9.58028C10.5426 9.62721 10.4126 9.68428 10.2905 9.75537C10.2221 9.79521 10.1557 9.83892 10.0927 9.88675C10.0882 9.89021 10.0616 9.90739 10.0429 9.92218C10.0346 9.92874 10.0223 9.92295 10.0223 9.9124V9.9121C10.0214 9.78978 10.0798 9.66717 10.138 9.56274C10.2153 9.42361 10.3134 9.29521 10.4238 9.1807C10.5288 9.07175 10.6486 8.97024 10.7859 8.90446C10.9186 8.84083 11.1034 8.80475 11.2026 8.94526C11.3162 9.10658 11.1725 9.32228 11.0413 9.42319ZM10.6737 10.6809C10.0517 11.2547 9.43586 11.0471 9.43586 11.0471C10.1309 10.7496 10.4579 10.1891 10.4579 10.1891C9.83478 10.3712 9.4822 10.8725 9.4822 10.8725C9.60583 10.3117 10.0339 10.0209 10.0339 10.0209C10.6293 9.54909 11.1662 9.80851 11.1662 9.80851C10.9247 10.4095 10.6737 10.6809 10.6737 10.6809ZM10.1309 11.7625C9.77764 12.2393 9.34521 12.3271 9.34521 12.3271C8.46448 12.5815 7.8767 11.6747 7.88791 11.6794C8.89459 12.1039 9.57947 11.6462 9.57947 11.6462C9.11453 11.4224 7.98506 11.5818 7.98506 11.5818C8.11954 11.4653 8.27018 11.3807 8.41898 11.3192C8.8532 11.1397 9.33901 11.1319 9.78313 11.2854C10.1055 11.3968 10.3296 11.5338 10.3296 11.5338C10.2412 11.6164 10.1309 11.7625 10.1309 11.7625ZM5.41796 6.28727C5.51422 6.31864 5.52805 6.44674 5.52805 6.44674C5.58417 6.84297 5.30703 7.05105 5.30703 7.05105C5.32421 7.02373 5.18812 6.65702 5.19539 6.49242C5.20273 6.32782 5.32165 6.25596 5.41796 6.28727ZM5.76362 6.83456C5.76362 6.83456 5.87556 6.77075 5.95732 6.83045C6.03914 6.89015 6.05054 7.02862 5.92136 7.13096C5.79225 7.23324 5.41534 7.33767 5.40323 7.3676C5.40323 7.3676 5.40961 7.02117 5.76362 6.83456ZM5.8034 6.28536C5.8034 6.28536 5.85838 6.23401 5.91283 6.25686C5.96734 6.2797 5.99257 6.35681 5.93305 6.43237C5.87353 6.50793 5.67357 6.61814 5.67076 6.63675C5.67076 6.63675 5.62759 6.43911 5.8034 6.28536ZM6.1645 8.67349C6.12264 8.78602 5.92703 8.99362 5.93078 9.01682C5.93078 9.01682 5.80387 8.79831 5.95416 8.54825C5.95416 8.54825 5.99984 8.46613 6.07344 8.47251C6.14697 8.47883 6.20643 8.56083 6.1645 8.67349ZM3.75509 8.71303C3.77435 8.65393 3.85301 8.6454 3.85301 8.6454C4.09627 8.61099 4.22408 8.78107 4.22408 8.78107C4.20732 8.77058 3.98213 8.85413 3.88104 8.84972C3.78002 8.84524 3.73582 8.77213 3.75509 8.71303ZM11.1038 8.32115C11.1163 8.35216 11.1217 8.38615 11.1175 8.42253C11.099 8.5758 10.9416 8.68136 10.8181 8.74756C10.3786 8.98372 10.2301 9.24016 10.1854 9.34453C10.1806 9.35526 10.1645 9.35228 10.1645 9.34035C10.1651 9.30934 10.1675 9.27774 10.1687 9.24971C10.1705 9.20617 10.1728 9.16204 10.177 9.1185C10.1848 9.03859 10.1973 8.95981 10.2158 8.88174C10.2599 8.70044 10.3404 8.52571 10.4722 8.39087C10.5164 8.34614 10.5647 8.30564 10.616 8.26926C10.669 8.23229 10.7275 8.19889 10.7895 8.18279C10.4937 8.07008 10.177 8.0003 9.84664 7.98062C10.1317 8.63126 9.84545 9.20975 9.84545 9.20975C9.93312 8.73146 9.82756 8.22811 9.75778 7.97644C9.72319 7.97525 9.6886 7.97465 9.65401 7.97465C9.65401 8.15416 9.6391 8.33009 9.61048 8.50125C9.96234 9.21327 9.61406 9.85145 9.61406 9.85145C9.71723 9.39582 9.64209 8.90918 9.58364 8.64617C9.53116 8.89069 9.45125 9.12506 9.34688 9.34572C9.4256 9.40238 9.47987 9.49541 9.48703 9.59202C9.49538 9.69997 9.47212 9.80791 9.43753 9.9093C9.11668 10.8593 8.12849 11.0471 8.12849 11.0471C8.26148 10.9804 8.3408 10.8325 8.40163 10.7037C8.44397 10.6136 8.47975 10.5212 8.51255 10.4275C8.34318 10.5707 8.1583 10.6959 7.9609 10.8021H7.96031C7.75993 10.9094 7.54762 10.9965 7.32457 11.0596C7.32398 11.0603 7.32338 11.0603 7.32338 11.0603C7.17309 11.1026 7.01863 11.1348 6.86 11.1551C6.8755 11.1593 6.8916 11.1629 6.90711 11.1664C6.97152 11.1808 7.03652 11.1921 7.10212 11.2016C7.36334 11.238 7.62992 11.2321 7.89053 11.1945C8.02114 11.1748 8.14996 11.1474 8.27639 11.1104C8.40282 11.074 8.52627 11.0281 8.64614 10.9744C8.76601 10.9202 8.88052 10.8563 8.99025 10.7842C9.09933 10.712 9.20136 10.6297 9.29619 10.5397C9.38982 10.4484 9.4745 10.3488 9.54965 10.2415C9.58662 10.1872 9.62181 10.1311 9.65521 10.0745C9.6886 10.0172 9.71962 9.95939 9.74884 9.89975C9.86632 9.6624 9.95518 9.40953 10.0244 9.15124C10.0941 8.89307 10.1424 8.62828 10.1645 8.35932C10.1705 8.62942 10.1395 8.90017 10.0852 9.16562C10.0572 9.29801 10.0238 9.42981 9.98441 9.55982C9.96413 9.62483 9.94206 9.68983 9.91821 9.75364C9.89435 9.81745 9.86811 9.88067 9.84008 9.94269C9.78343 10.0673 9.71842 10.189 9.64328 10.3041C9.56754 10.4204 9.47868 10.5277 9.38087 10.6261C9.28247 10.7239 9.17453 10.8116 9.06062 10.8891C8.94552 10.9667 8.82446 11.0335 8.69922 11.0913C8.57338 11.1474 8.44331 11.1951 8.31098 11.2327C8.17858 11.269 8.0438 11.2971 7.90723 11.315C7.77126 11.3322 7.63349 11.3412 7.49633 11.3388C7.46233 11.3376 7.42775 11.3376 7.39316 11.3352L7.34187 11.3328L7.29058 11.3287C7.222 11.3221 7.15401 11.3131 7.08656 11.3012C7.01863 11.2893 6.95184 11.2744 6.88504 11.2571C6.81885 11.2392 6.75324 11.2195 6.68884 11.1962C6.67273 11.1903 6.65663 11.1843 6.64113 11.1784L6.63516 11.176H6.63457C6.57254 11.1796 6.50992 11.1813 6.44671 11.1813V11.0955C6.40258 11.0758 6.35844 11.0549 6.31491 11.0329C6.07272 10.9112 5.84198 10.7717 5.61297 10.6291C5.8557 10.7465 6.09485 10.8712 6.34175 10.9756C6.37634 10.9905 6.41152 11.0054 6.44671 11.0192V10.8009C6.35844 10.7281 6.27435 10.6494 6.19683 10.5647C6.17655 10.5421 6.15568 10.52 6.136 10.4967C6.09544 10.4502 6.04356 10.418 5.99108 10.387C5.87657 10.3184 5.75789 10.2569 5.63683 10.1997C5.62967 10.1962 5.62132 10.1932 5.61357 10.1902C5.61053 10.189 5.6082 10.1884 5.60522 10.1878C5.5587 10.2522 5.45911 10.2582 5.45911 10.2582C5.2378 10.3172 5.02018 10.3017 4.80608 10.2122C4.67249 10.1562 4.55381 10.0756 4.4411 9.98504C4.33733 9.90095 4.24012 9.80964 4.1441 9.71667C4.06777 9.64212 3.99203 9.56757 3.91748 9.49183C3.86613 9.44055 3.81729 9.38687 3.76779 9.33379C3.7499 9.31471 3.73857 9.29205 3.72903 9.26819C3.71054 9.22048 3.72187 9.17814 3.76302 9.14713C3.78747 9.12804 3.81669 9.11791 3.84591 9.10956C3.90913 9.09107 3.97473 9.08272 4.04093 9.07908C4.29021 9.06364 4.52817 9.11314 4.75718 9.21154C4.92595 9.28429 5.0822 9.37727 5.22116 9.49899C5.28676 9.55684 5.34759 9.62065 5.4018 9.68983C5.43645 9.73271 5.46925 9.7763 5.50026 9.82163C5.5265 9.86039 5.55089 9.90095 5.57302 9.9421C5.59389 9.98146 5.61417 10.0214 5.62311 10.065C5.62544 10.078 5.6261 10.0905 5.62669 10.1037C5.62669 10.1073 5.6249 10.1264 5.62788 10.1282C5.63146 10.1306 5.63564 10.1323 5.63981 10.1341C5.66963 10.1467 5.69826 10.161 5.72688 10.1753C5.79487 10.2105 5.86166 10.2457 5.92965 10.2808C5.93979 10.2862 5.95052 10.291 5.96126 10.2963C5.9708 10.2862 5.96066 10.2808 5.95708 10.2749C5.91772 10.2182 5.87777 10.161 5.83781 10.1049C5.77519 10.0178 5.72092 9.92653 5.66605 9.83475C5.60403 9.73038 5.5438 9.62483 5.48654 9.51748C5.4281 9.40709 5.36846 9.29682 5.31598 9.18345C5.30525 9.15965 5.28676 9.14892 5.2629 9.14176C5.18358 9.1185 5.10427 9.09399 5.02495 9.069C4.94503 9.04276 4.86631 9.01235 4.78878 8.97776C4.74048 9.02428 4.64142 9.02487 4.55083 8.97537C4.44646 8.91872 4.3916 8.81733 4.42857 8.74935C4.46615 8.68076 4.58065 8.67122 4.68501 8.72788C4.76791 8.77261 4.8186 8.84536 4.8186 8.90739C4.8186 8.91335 4.81801 8.91872 4.81741 8.92408C4.91879 8.96702 5.02197 9.00519 5.12693 9.03799C5.15436 9.04634 5.1818 9.05469 5.20923 9.06304L5.26231 9.0767L5.23607 9.01652L5.23428 9.01235C5.23368 9.01056 5.23249 9.00877 5.23189 9.00698C5.19074 8.91454 5.15019 8.8227 5.10904 8.73086C5.10128 8.71356 5.09234 8.69746 5.0822 8.68196C5.01183 8.57759 4.93191 8.48157 4.83888 8.39749C4.75718 8.32353 4.6707 8.25614 4.57528 8.20068C4.57051 8.1983 4.56634 8.19591 4.56216 8.19412C4.52996 8.24243 4.46615 8.30863 4.34747 8.33123C4.13337 8.39271 3.93 8.35872 3.74155 8.21738C3.66223 8.15715 3.60319 8.07902 3.56443 7.98658C3.54773 7.94722 3.53938 7.90607 3.53699 7.86313C3.53043 7.74684 3.60617 7.65679 3.69145 7.61564C3.7821 7.5721 3.87872 7.55958 3.97831 7.56673C4.18108 7.58164 4.3415 7.67349 4.46316 7.8357C4.47509 7.85061 4.48583 7.86611 4.49656 7.88222C4.49656 7.88222 4.59669 8.01103 4.59019 8.13806C4.59437 8.14104 4.59914 8.14403 4.6045 8.14701C4.66355 8.17981 4.71841 8.21977 4.77209 8.26092C4.81622 8.29491 4.85856 8.33188 4.89911 8.37065C4.89971 8.37065 4.98738 8.4505 4.98738 8.4505L4.95219 8.35037C4.89911 8.21321 4.84663 8.07544 4.80131 7.93589C4.75718 7.80051 4.7202 7.66335 4.68859 7.52499C4.6874 7.52022 4.68561 7.51545 4.68501 7.51008C4.68442 7.49577 4.68144 7.48384 4.67607 7.4743C4.57349 7.44925 4.51028 7.38424 4.51028 7.38424C4.45064 7.33892 4.40114 7.28405 4.36059 7.21845C4.27173 7.07532 4.24191 6.91847 4.25145 6.75268C4.25741 6.66203 4.2765 6.57496 4.31765 6.49385C4.34448 6.44018 4.38027 6.39366 4.43096 6.35967C4.50193 6.31136 4.57826 6.30182 4.65818 6.32926C4.7536 6.36206 4.82337 6.42766 4.8693 6.51652C4.90866 6.59226 4.93669 6.67396 4.9504 6.75805C4.96054 6.81769 4.96233 6.87792 4.95935 6.93756C4.95338 7.03715 4.9349 7.13973 4.90508 7.23455C4.87645 7.3258 4.82874 7.42241 4.73809 7.46535C4.74167 7.48443 4.74579 7.50352 4.75062 7.5226C4.78103 7.65321 4.81622 7.78262 4.85737 7.91025L4.86214 7.92337V7.92516L4.9015 8.04503C4.9015 8.04503 4.91164 8.00865 4.91283 8.00268C4.92595 7.93947 4.94682 7.87864 4.97426 7.82019C4.98201 7.8035 4.98917 7.7862 4.99692 7.76891C5.0005 7.76115 5.00229 7.7528 5.0005 7.74505C4.95696 7.70092 4.95279 7.61922 4.99453 7.54825C5.04224 7.46654 5.1317 7.43076 5.19432 7.46774C5.25634 7.50411 5.26827 7.59953 5.22056 7.68124C5.18239 7.74565 5.11798 7.78143 5.06192 7.77487L5.05835 7.78203C5.04165 7.82258 5.02197 7.86194 5.00586 7.90309C4.97068 7.99255 4.95696 8.08558 4.96472 8.1816C4.9677 8.21022 4.97366 8.23825 4.98434 8.26509C5.03986 8.40643 5.09651 8.54777 5.15734 8.68732C5.19909 8.78215 5.24024 8.87697 5.28252 8.97179L5.3291 9.06721L5.33447 8.9867L5.33506 8.97537C5.34043 8.81554 5.36786 8.6587 5.41557 8.50543C5.41796 8.49762 5.42094 8.48992 5.42333 8.48157C5.42512 8.47621 5.42571 8.47144 5.42452 8.46666C5.30882 8.39689 5.29809 8.29789 5.29809 8.29789C5.2957 8.28954 5.29391 8.28119 5.29212 8.27225C5.27662 8.18875 5.27006 8.10466 5.28795 8.01998C5.31419 7.89176 5.37323 7.78203 5.47104 7.69495C5.5265 7.64605 5.5921 7.62041 5.66605 7.621C5.75962 7.6216 5.85212 7.67885 5.89089 7.78262C5.91116 7.83808 5.91295 7.89474 5.9046 7.95259C5.88969 8.05994 5.84854 8.15774 5.79069 8.24899C5.75372 8.30743 5.71197 8.36051 5.6577 8.40404C5.5921 8.46541 5.52829 8.48098 5.49012 8.48396C5.48654 8.48933 5.48356 8.49523 5.48118 8.50304C5.46806 8.54837 5.45315 8.5931 5.44241 8.63902C5.412 8.76843 5.39411 8.89963 5.39649 9.03262V9.05231L5.39828 9.12029L5.46686 9.14057C5.49549 9.15011 5.52352 9.16144 5.55089 9.17397C5.67977 9.23301 5.75789 9.3332 5.78771 9.47156C5.80435 9.54849 5.80739 9.62602 5.79785 9.70355C5.79189 9.75245 5.78294 9.80076 5.7728 9.84847C5.76863 9.86994 5.77161 9.88663 5.78235 9.90572C5.84079 10.0071 5.90997 10.1013 5.97617 10.1973C6.04893 10.3017 6.12944 10.4001 6.21472 10.4943L6.28092 10.5617L6.27793 10.5057C6.27555 10.4878 6.27316 10.4699 6.27137 10.4514C6.27078 10.4454 6.26899 10.4401 6.26601 10.4353C6.21233 10.4013 6.18013 10.35 6.18013 10.35C6.14136 10.2981 6.11512 10.2385 6.09485 10.1753C6.05727 10.0602 6.04058 9.94144 6.03879 9.82103C6.03461 9.57413 6.07636 9.33618 6.17476 9.1089C6.21472 9.01533 6.26601 8.9276 6.33459 8.85192C6.36799 8.81495 6.40377 8.78215 6.44671 8.7577V4.76735C4.67547 4.76735 3.24 6.20282 3.24 7.97465C3.24 9.48766 4.28783 10.7561 5.69766 11.0937L5.63206 10.8838C5.63206 10.8838 5.89804 11.0293 6.20637 11.1724H6.2069C6.28509 11.1784 6.36441 11.1813 6.44432 11.1813H6.22605C6.41271 11.2678 6.6125 11.3525 6.7771 11.4032C7.21961 11.5386 8.04738 11.9322 8.27877 12.7313L8.472 13.5031C8.472 13.5031 7.68293 13.1464 7.3192 12.9621C6.95542 12.7785 6.16462 12.4075 5.88492 11.6889L5.72569 11.1813H4.97426C4.97426 12.9526 6.40973 14.3887 8.18097 14.3887C9.9522 14.3887 11.3883 12.9526 11.3883 11.1813H12.8589C12.8589 9.93256 12.1451 8.85133 11.1038 8.32115Z" fill="white"/>
<path d="M6.34172 10.4639C6.33695 10.4668 6.33516 10.4716 6.33576 10.4812C6.34113 10.5354 6.35663 10.5873 6.38287 10.635C6.40076 10.6666 6.42104 10.6964 6.44668 10.7214V10.44C6.43714 10.446 6.4282 10.4507 6.41806 10.4543C6.39062 10.4645 6.36498 10.4668 6.34172 10.4639Z" fill="white"/>
<path d="M5.67561 9.35582C5.64817 9.31944 5.61955 9.28724 5.58138 9.261C5.58019 9.26034 5.5784 9.25921 5.5772 9.25796C5.53009 9.22641 5.47821 9.19832 5.42274 9.18341C5.41738 9.18168 5.41141 9.18049 5.40545 9.1787C5.40426 9.1787 5.40306 9.1781 5.40187 9.1781C5.3977 9.17751 5.39352 9.17691 5.38994 9.17512L5.39113 9.1781C5.39292 9.18228 5.39471 9.1858 5.3965 9.19003C5.42036 9.24669 5.44541 9.30268 5.47165 9.3588C5.4955 9.40353 5.51876 9.44826 5.54321 9.49299C5.55335 9.51142 5.56349 9.53056 5.57422 9.54905C5.59629 9.5896 5.61955 9.63015 5.64221 9.67071C5.66487 9.71126 5.69111 9.74943 5.71795 9.7876C5.73226 9.73631 5.74061 9.68383 5.7418 9.63069C5.7424 9.58596 5.73942 9.54123 5.73107 9.49716C5.72153 9.44349 5.70304 9.3928 5.67561 9.35582Z" fill="white"/>
<path d="M10.4722 8.3907C10.3404 8.52554 10.2599 8.70022 10.2158 8.88151C10.1973 8.95964 10.1847 9.03836 10.177 9.11828C10.1728 9.16187 10.1704 9.206 10.1686 9.24948C10.1674 9.27751 10.1651 9.30912 10.1645 9.34019C10.1645 9.35205 10.1806 9.3551 10.1853 9.3443C10.2301 9.23994 10.3786 8.98349 10.8181 8.74733C10.9415 8.68113 11.099 8.57563 11.1175 8.42231C11.1216 8.38599 11.1163 8.35199 11.1038 8.32092H11.1032C11.0018 8.2691 10.8974 8.22312 10.7901 8.18262H10.7895C10.7274 8.19866 10.669 8.23212 10.6159 8.2691C10.5646 8.30542 10.5163 8.34597 10.4722 8.3907Z" fill="#D83341"/>
<path d="M10.7859 8.90431C10.6486 8.97015 10.5288 9.07166 10.4238 9.18055C10.3134 9.29506 10.2154 9.42346 10.1379 9.56259C10.0799 9.66702 10.0215 9.78969 10.0223 9.91195V9.91225C10.0224 9.9228 10.0347 9.92859 10.0429 9.92203C10.0617 9.90724 10.0882 9.89006 10.0927 9.88666C10.1558 9.83877 10.2221 9.79512 10.2905 9.75528C10.4126 9.68413 10.5426 9.62706 10.6758 9.58013C10.8021 9.53558 10.933 9.50641 11.0413 9.42304C11.1725 9.32213 11.3163 9.10648 11.2025 8.94516C11.1035 8.8046 10.9187 8.84074 10.7859 8.90431Z" fill="#D83341"/>
<path d="M10.0339 10.0208C10.0339 10.0208 9.60582 10.3117 9.48225 10.8724C9.48225 10.8724 9.83477 10.3711 10.4579 10.1889C10.4579 10.1889 10.1309 10.7495 9.43585 11.0471C9.43585 11.0471 10.0517 11.2546 10.6737 10.6808C10.6737 10.6808 10.9246 10.4094 11.1662 9.80838C11.1662 9.80838 10.6293 9.54902 10.0339 10.0208Z" fill="#1D1D1D"/>
<path d="M8.41898 11.3191C8.27018 11.3806 8.11954 11.4652 7.98506 11.5818C7.98506 11.5818 9.11453 11.4223 9.57947 11.6462C9.57947 11.6462 8.89465 12.1038 7.88791 11.6793C7.87669 11.6746 8.46448 12.5814 9.34521 12.3271C9.34521 12.3271 9.77764 12.2393 10.131 11.7624C10.131 11.7624 10.2412 11.6164 10.3296 11.5337C10.3296 11.5337 10.1055 11.3968 9.78313 11.2854C9.33901 11.1319 8.8532 11.1396 8.41898 11.3191Z" fill="#1D1D1D"/>
<path d="M5.69767 11.0936H5.69826C5.86346 11.133 6.03223 11.1598 6.20637 11.1724C5.89805 11.0292 5.63206 10.8837 5.63206 10.8837L5.69767 11.0936Z" fill="#1D1D1D"/>
<path d="M7.3192 12.962C7.68299 13.1463 8.472 13.5029 8.472 13.5029L8.27877 12.7312C8.04738 11.9321 7.21961 11.5385 6.7771 11.4031C6.6125 11.3524 6.41271 11.2677 6.22605 11.1812H5.72569L5.88492 11.6888C6.16462 12.4074 6.95541 12.7783 7.3192 12.962Z" fill="#1D1D1D"/>
<path d="M8.12848 11.0471C8.12848 11.0471 9.11667 10.8593 9.43752 9.90929C9.47211 9.80791 9.49537 9.69991 9.48702 9.59202C9.47987 9.49535 9.4256 9.40238 9.34687 9.34572C9.14888 9.76432 8.86262 10.1323 8.51254 10.4275C8.47974 10.5212 8.44396 10.6136 8.40162 10.7036C8.34079 10.8324 8.26147 10.9804 8.12848 11.0471Z" fill="#1D1D1D"/>
<path d="M9.61407 9.85132C9.61407 9.85132 9.96235 9.2132 9.61049 8.50112C9.60274 8.55009 9.59379 8.59833 9.58365 8.64604C9.6421 8.90905 9.71724 9.39569 9.61407 9.85132Z" fill="#D83341"/>
<path d="M9.84543 9.20959C9.84543 9.20959 10.1317 8.63111 9.84663 7.98046C9.81681 7.97868 9.78759 7.97689 9.75777 7.97629C9.82754 8.22796 9.9331 8.7313 9.84543 9.20959Z" fill="#D83341"/>
<path d="M5.61294 10.629C5.84195 10.7716 6.07275 10.9111 6.31488 11.0328C6.35841 11.0548 6.40254 11.0757 6.44667 11.0953V11.019C6.41149 11.0053 6.3763 10.9904 6.34171 10.9755C6.09481 10.8712 5.85567 10.7465 5.61294 10.629Z" fill="#D83341"/>
<path d="M6.68881 11.1961C6.75322 11.2195 6.81882 11.2391 6.88502 11.257C6.95181 11.2743 7.01861 11.2892 7.0866 11.3012C7.15399 11.313 7.22197 11.322 7.29056 11.3286L7.34184 11.3327L7.39313 11.3351C7.42772 11.3375 7.46231 11.3375 7.49631 11.3387C7.63347 11.3411 7.77123 11.3321 7.90721 11.3148C8.04378 11.2969 8.17856 11.269 8.31095 11.2325C8.44335 11.1949 8.57336 11.1473 8.69919 11.0912C8.82443 11.0334 8.9455 10.9665 9.0606 10.8891C9.17451 10.8115 9.28245 10.7238 9.38085 10.626C9.47866 10.5276 9.56752 10.4203 9.64326 10.304C9.7184 10.1889 9.78341 10.0672 9.84006 9.94256C9.86809 9.88054 9.89433 9.81738 9.91819 9.75357C9.94204 9.6897 9.96411 9.62469 9.98438 9.55975C10.0237 9.42974 10.0571 9.29794 10.0852 9.16548C10.1394 8.9001 10.1705 8.62934 10.1645 8.35924C10.1424 8.62815 10.0941 8.893 10.0243 9.15117C9.95516 9.4094 9.8663 9.66226 9.74882 9.89968C9.71959 9.95932 9.68858 10.0171 9.65518 10.0744C9.62179 10.1311 9.5866 10.1871 9.54963 10.2413C9.47448 10.3487 9.3898 10.4483 9.29617 10.5395C9.20134 10.6296 9.09936 10.7119 8.99023 10.7841C8.88049 10.8563 8.76599 10.92 8.64612 10.9743C8.52625 11.028 8.4028 11.0739 8.27636 11.1103C8.14993 11.1473 8.02112 11.1747 7.89051 11.1944C7.62989 11.232 7.36331 11.2379 7.1021 11.2016C7.0365 11.192 6.9715 11.1806 6.90709 11.1663C6.89158 11.1627 6.87548 11.1592 6.85997 11.155C6.78543 11.1646 6.71088 11.1717 6.63514 11.1759L6.6411 11.1782C6.65661 11.1843 6.67271 11.1902 6.68881 11.1961Z" fill="#D83341"/>
<path d="M5.71793 9.7876C5.69109 9.74937 5.66485 9.71126 5.64219 9.67071C5.61953 9.6301 5.59627 9.5896 5.5742 9.54905C5.56347 9.5305 5.55333 9.51142 5.54319 9.49299C5.51874 9.44826 5.49548 9.40353 5.47162 9.35881C5.44538 9.30269 5.42034 9.24669 5.39648 9.18997C5.39469 9.1858 5.3929 9.18228 5.39111 9.17804L5.38992 9.17506C5.3935 9.17691 5.39767 9.17751 5.40185 9.17804C5.40304 9.17804 5.40423 9.1787 5.40543 9.1787C5.41139 9.18043 5.41735 9.18168 5.42272 9.18341C5.47819 9.19832 5.53007 9.22641 5.57718 9.25796C5.57838 9.25921 5.58017 9.26034 5.58136 9.261C5.61953 9.28718 5.64815 9.31938 5.67559 9.35582C5.70302 9.3928 5.72151 9.44343 5.73105 9.49716C5.7394 9.54124 5.74238 9.58596 5.74178 9.63069C5.74059 9.68383 5.73224 9.73631 5.71793 9.7876ZM6.17475 9.10886C6.07635 9.33614 6.0346 9.5741 6.03878 9.821C6.04057 9.9414 6.05727 10.0601 6.09484 10.1752C6.11511 10.2385 6.14135 10.2981 6.18012 10.35C6.18012 10.35 6.21232 10.4013 6.266 10.4352C6.26898 10.44 6.27077 10.4453 6.27136 10.4514C6.27315 10.4698 6.27554 10.4877 6.27792 10.5056L6.28091 10.5616L6.21471 10.4943C6.12943 10.4001 6.04892 10.3016 5.97616 10.1972C5.90996 10.1013 5.84078 10.0071 5.78234 9.90562C5.7716 9.88654 5.76862 9.8699 5.77279 9.84843C5.78293 9.80072 5.79188 9.75235 5.79784 9.70351C5.80738 9.62598 5.8044 9.54839 5.7877 9.47146C5.75789 9.33316 5.67976 9.23291 5.55094 9.17393C5.52351 9.16141 5.49548 9.15007 5.46685 9.14047L5.39827 9.12026L5.39648 9.05227V9.03259C5.3941 8.89954 5.41199 8.76833 5.4424 8.63892C5.45314 8.59306 5.46805 8.54833 5.48117 8.50301C5.48355 8.49519 5.48653 8.48923 5.49011 8.48392C5.52828 8.48094 5.59209 8.46538 5.65769 8.40401C5.71196 8.36041 5.75371 8.3074 5.79069 8.24889C5.84853 8.15771 5.88968 8.05984 5.90459 7.95249C5.91294 7.8947 5.91115 7.83805 5.89088 7.78253C5.85211 7.67882 5.75967 7.62156 5.66604 7.62091C5.59209 7.62037 5.52649 7.64596 5.47103 7.69492C5.37322 7.78199 5.31418 7.89166 5.28794 8.01988C5.27005 8.10457 5.27661 8.18866 5.29212 8.27221C5.29391 8.2811 5.29569 8.2895 5.29808 8.29785C5.29808 8.29785 5.30881 8.39685 5.42451 8.46663C5.4257 8.4714 5.42511 8.47617 5.42332 8.48154C5.42093 8.48983 5.41795 8.49758 5.41557 8.50539C5.36786 8.6586 5.34042 8.81545 5.33505 8.97534L5.33446 8.98661L5.32909 9.06718L5.28257 8.9717C5.24023 8.87687 5.19908 8.78211 5.15734 8.68729C5.0965 8.54773 5.03985 8.40639 4.98439 8.26505C4.97365 8.23822 4.96769 8.21019 4.96471 8.1815C4.95695 8.08554 4.97067 7.99245 5.00586 7.90299C5.02196 7.86184 5.04164 7.82254 5.05834 7.78199L5.06192 7.77483C5.11797 7.78133 5.18238 7.74561 5.22055 7.6812C5.26826 7.5995 5.25633 7.50402 5.19431 7.4677C5.13169 7.43066 5.04223 7.46651 4.99452 7.54821C4.95278 7.61918 4.95695 7.70088 5.00049 7.74501C5.00228 7.75271 5.00049 7.76112 4.99691 7.76881C4.98916 7.7861 4.982 7.8034 4.97425 7.82016C4.94681 7.8786 4.92594 7.93943 4.91282 8.00259C4.91163 8.00855 4.90149 8.04493 4.90149 8.04493L4.86213 7.92512V7.92333L4.85736 7.91021C4.81621 7.78253 4.78102 7.65311 4.75061 7.52257C4.74584 7.50348 4.74166 7.48434 4.73808 7.46531C4.82873 7.42231 4.87644 7.32576 4.90507 7.23446C4.93489 7.13969 4.95337 7.03706 4.95934 6.93746C4.96232 6.87782 4.96053 6.81765 4.95039 6.75801C4.93668 6.67392 4.90865 6.59216 4.86929 6.51642C4.82337 6.42762 4.75359 6.36202 4.65817 6.32922C4.57825 6.30178 4.50192 6.31127 4.43095 6.35963C4.38026 6.39357 4.34448 6.44014 4.31764 6.49382C4.27649 6.57487 4.2574 6.66194 4.25144 6.75259C4.2419 6.91844 4.27172 7.07528 4.36058 7.21835C4.40113 7.28402 4.45063 7.33882 4.51027 7.38421C4.51027 7.38421 4.57348 7.44921 4.67606 7.4742C4.68143 7.4838 4.68441 7.49567 4.68501 7.51004C4.6856 7.51535 4.68739 7.52012 4.68858 7.52495C4.72019 7.66325 4.75717 7.80048 4.8013 7.93585C4.84662 8.07541 4.8991 8.21317 4.95218 8.35027L4.98737 8.45047C4.98737 8.45047 4.8997 8.37055 4.8991 8.37055C4.85855 8.33185 4.81621 8.29487 4.77208 8.26082C4.7184 8.21973 4.66354 8.17977 4.6045 8.14691C4.59913 8.14393 4.59436 8.14101 4.59018 8.13802C4.59674 8.01094 4.49655 7.88218 4.49655 7.88218C4.48582 7.86602 4.47508 7.85057 4.46315 7.83566C4.34149 7.67345 4.18107 7.58161 3.9783 7.5667C3.87871 7.55954 3.78209 7.57206 3.69144 7.6156C3.60616 7.65675 3.53042 7.74674 3.53698 7.86304C3.53937 7.90603 3.54772 7.94718 3.56442 7.98655C3.60318 8.07898 3.66222 8.15705 3.74154 8.21734C3.92999 8.35868 4.13336 8.39262 4.34746 8.33119C4.46614 8.30853 4.52995 8.24239 4.56215 8.19402C4.56633 8.19587 4.5705 8.19826 4.57527 8.20064C4.67069 8.25605 4.75717 8.32344 4.83887 8.39739C4.93191 8.48154 5.01182 8.57755 5.08219 8.68192C5.09233 8.69743 5.10128 8.71347 5.10903 8.73076C5.15018 8.8226 5.19073 8.91445 5.23188 9.00688C5.23248 9.00867 5.23367 9.01052 5.23427 9.01231L5.23606 9.01643L5.2623 9.07666L5.20922 9.063C5.18179 9.05465 5.15435 9.04624 5.12692 9.03796C5.02196 9.00515 4.91879 8.96693 4.8174 8.92405C4.818 8.91868 4.81859 8.91331 4.81859 8.90729C4.81859 8.84527 4.7679 8.77251 4.68501 8.72778C4.58064 8.67112 4.46614 8.68067 4.42856 8.74931C4.39159 8.81724 4.44646 8.91868 4.55082 8.97534C4.64147 9.02484 4.74047 9.02418 4.78878 8.97772C4.8663 9.01231 4.94503 9.04273 5.02494 9.06891C5.10426 9.09395 5.18358 9.11841 5.26289 9.14172C5.28675 9.14888 5.30524 9.15962 5.31597 9.18341C5.36845 9.29678 5.42809 9.40705 5.48653 9.51744C5.54379 9.62479 5.60402 9.73035 5.66604 9.83471C5.72091 9.9265 5.77518 10.0177 5.8378 10.1048C5.87776 10.1609 5.91771 10.2182 5.95707 10.2748C5.96065 10.2808 5.97079 10.2861 5.96125 10.2962C5.95051 10.2909 5.93978 10.2861 5.92964 10.2808C5.86165 10.2456 5.79486 10.2104 5.72687 10.1752C5.69825 10.1609 5.66962 10.1466 5.6398 10.1341C5.63563 10.1322 5.63145 10.1305 5.62788 10.1281C5.62489 10.1263 5.62668 10.1072 5.62668 10.1037C5.62609 10.0905 5.62549 10.078 5.6231 10.0649C5.61416 10.0214 5.59388 9.98142 5.57301 9.94206C5.55094 9.90085 5.52649 9.86036 5.50025 9.82153C5.46924 9.77627 5.43644 9.73267 5.40185 9.68973C5.34758 9.62055 5.28675 9.5568 5.22115 9.49889C5.08219 9.37723 4.92594 9.28426 4.75717 9.2115C4.52816 9.11304 4.29021 9.06354 4.04092 9.07905C3.97472 9.08268 3.90912 9.09097 3.84591 9.10952C3.81668 9.11787 3.78746 9.12795 3.76301 9.14709C3.72186 9.17804 3.71053 9.22039 3.72902 9.26816C3.73856 9.29195 3.74989 9.31461 3.76778 9.33376C3.81728 9.38678 3.86618 9.44051 3.91747 9.4918C3.99202 9.56754 4.06776 9.64208 4.14409 9.71663C4.24011 9.80961 4.33732 9.90085 4.44109 9.985C4.5538 10.0756 4.67248 10.1562 4.80607 10.2122C5.02017 10.3016 5.23785 10.3172 5.4591 10.2581C5.4591 10.2581 5.5587 10.2522 5.60521 10.1878C5.60819 10.1884 5.61058 10.1889 5.61356 10.1902C5.62132 10.1931 5.62966 10.1961 5.63682 10.1996C5.75789 10.2569 5.87656 10.3183 5.99107 10.387C6.04355 10.4179 6.09543 10.4501 6.13599 10.4967C6.15567 10.5199 6.17654 10.542 6.19682 10.5646C6.27435 10.6493 6.35843 10.7281 6.4467 10.8008V10.7215C6.42105 10.6964 6.40078 10.6666 6.38289 10.635C6.35665 10.5873 6.34114 10.5355 6.33577 10.4812C6.33518 10.4716 6.33697 10.4669 6.34174 10.4639C6.365 10.4669 6.39064 10.4645 6.41807 10.4543C6.42821 10.4507 6.43716 10.446 6.4467 10.44V8.7576C6.40376 8.78211 6.36798 8.81485 6.33458 8.85189C6.266 8.92757 6.21471 9.01529 6.17475 9.10886Z" fill="#1D1D1D"/>
<path d="M5.92139 7.13079C6.05057 7.02845 6.03912 6.88997 5.95736 6.83028C5.87559 6.77058 5.76359 6.83439 5.76359 6.83439C5.40958 7.021 5.40326 7.36743 5.40326 7.36743C5.41531 7.33749 5.79222 7.23307 5.92139 7.13079Z" fill="#D83341"/>
<path d="M5.93302 6.43234C5.99254 6.35678 5.96737 6.27967 5.91286 6.25689C5.85835 6.23399 5.80343 6.28539 5.80343 6.28539C5.62755 6.43914 5.67073 6.63672 5.67073 6.63672C5.67354 6.61811 5.8735 6.5079 5.93302 6.43234Z" fill="#D83341"/>
<path d="M5.95413 8.54821C5.80385 8.79827 5.93075 9.01672 5.93075 9.01672C5.927 8.99358 6.12261 8.78599 6.16447 8.67345C6.2064 8.56079 6.14694 8.47879 6.07341 8.47241C5.99987 8.46609 5.95413 8.54821 5.95413 8.54821Z" fill="#D83341"/>
<path d="M5.30705 7.0509C5.30705 7.0509 5.58413 6.84283 5.52807 6.44666C5.52807 6.44666 5.51423 6.31849 5.41792 6.28719C5.32166 6.25582 5.20268 6.32774 5.19541 6.49228C5.18813 6.65694 5.32422 7.02359 5.30705 7.0509Z" fill="#D83341"/>
<path d="M3.88107 8.84968C3.98216 8.8541 4.20729 8.77055 4.22405 8.7811C4.22405 8.7811 4.0963 8.61096 3.85304 8.64537C3.85304 8.64537 3.77432 8.65389 3.75512 8.713C3.73586 8.7721 3.77999 8.84521 3.88107 8.84968Z" fill="#D83341"/>
</svg>
