<svg width="20" height="20" viewBox="0 0 20 20" fill="none" xmlns="http://www.w3.org/2000/svg">
<path d="M1.25 7.47222C1.25 5.29424 1.25 4.20525 1.67386 3.37337C2.0467 2.64163 2.64163 2.0467 3.37337 1.67386C4.20525 1.25 5.29424 1.25 7.47222 1.25H12.5278C14.7058 1.25 15.7948 1.25 16.6266 1.67386C17.3584 2.0467 17.9533 2.64163 18.3261 3.37337C18.75 4.20525 18.75 5.29424 18.75 7.47222V12.5278C18.75 14.7058 18.75 15.7948 18.3261 16.6266C17.9533 17.3584 17.3584 17.9533 16.6266 18.3261C15.7948 18.75 14.7058 18.75 12.5278 18.75H7.47222C5.29424 18.75 4.20525 18.75 3.37337 18.3261C2.64163 17.9533 2.0467 17.3584 1.67386 16.6266C1.25 15.7948 1.25 14.7058 1.25 12.5278V7.47222Z" fill="white"/>
<path d="M13.7821 5.32684L10.0401 8.24711L6.21265 5.32684V5.32763L6.21727 5.33158V9.42074L9.99698 12.4041L13.7821 9.53597V5.32684Z" fill="#EA4335"/>
<path d="M14.7647 4.61649L13.782 5.32683V9.53595L16.8742 7.16185V5.73172C16.8742 5.73172 16.4988 3.68911 14.7647 4.61649Z" fill="#FBBC05"/>
<path d="M13.782 9.53602V14.9953H16.152C16.152 14.9953 16.8264 14.9259 16.875 14.1571V7.16193L13.782 9.53602Z" fill="#34A853"/>
<path d="M6.21745 15V9.42069L6.21265 9.41675L6.21745 15Z" fill="#C5221F"/>
<path d="M6.21258 5.32768L5.23529 4.62129C3.50112 3.69391 3.125 5.73573 3.125 5.73573V7.16587L6.21258 9.41684V5.32768Z" fill="#C5221F"/>
<path d="M6.21265 5.32761V9.41676L6.21745 9.42071V5.33155L6.21265 5.32761Z" fill="#C5221F"/>
<path d="M3.125 7.1666V14.1618C3.17279 14.9313 3.84795 15 3.84795 15H6.21798L6.21258 9.41678L3.125 7.1666Z" fill="#4285F4"/>
</svg>
