<svg width="9" height="9" viewBox="0 0 9 9" fill="none" xmlns="http://www.w3.org/2000/svg">
<path d="M4.5 0C3.60999 0 2.73996 0.26392 1.99994 0.758387C1.25991 1.25285 0.683138 1.95566 0.342544 2.77792C0.00194978 3.60019 -0.0871652 4.50499 0.0864682 5.3779C0.260102 6.25082 0.688685 7.05264 1.31802 7.68198C1.94736 8.31131 2.74918 8.7399 3.62209 8.91353C4.49501 9.08717 5.39981 8.99805 6.22208 8.65746C7.04434 8.31686 7.74715 7.74008 8.24161 7.00006C8.73608 6.26004 9 5.39001 9 4.5C9 3.90905 8.8836 3.32389 8.65746 2.77792C8.43131 2.23196 8.09984 1.73588 7.68198 1.31802C7.26412 0.900156 6.76804 0.568688 6.22208 0.342542C5.67611 0.116396 5.09095 0 4.5 0V0ZM4.5 8.1C3.78799 8.1 3.09197 7.88886 2.49995 7.49329C1.90793 7.09772 1.44651 6.53547 1.17404 5.87766C0.90156 5.21984 0.830268 4.49601 0.969175 3.79767C1.10808 3.09934 1.45095 2.45788 1.95442 1.95442C2.45789 1.45095 3.09934 1.10808 3.79768 0.969173C4.49601 0.830266 5.21985 0.901558 5.87766 1.17403C6.53547 1.44651 7.09772 1.90793 7.49329 2.49995C7.88886 3.09196 8.1 3.78799 8.1 4.5C8.1 5.45478 7.72072 6.37045 7.04558 7.04558C6.37045 7.72071 5.45478 8.1 4.5 8.1V8.1ZM4.95 4.4685V2.25C4.95 2.13065 4.90259 2.01619 4.8182 1.9318C4.73381 1.84741 4.61935 1.8 4.5 1.8C4.38065 1.8 4.26619 1.84741 4.1818 1.9318C4.09741 2.01619 4.05 2.13065 4.05 2.25V4.5C4.05 4.5 4.05 4.5315 4.05 4.5495C4.03893 4.64098 4.05621 4.73365 4.0995 4.815L4.7745 5.985C4.83417 6.08883 4.93265 6.1647 5.04827 6.19593C5.16388 6.22715 5.28717 6.21117 5.391 6.1515C5.49483 6.09182 5.57071 5.99335 5.60193 5.87773C5.63316 5.76212 5.61717 5.63883 5.5575 5.535L4.95 4.4685Z" fill="#878787"/>
</svg>
