<svg width="8" height="9" viewBox="0 0 8 9" fill="none" xmlns="http://www.w3.org/2000/svg">
<path d="M3.9195 4.1805C3.8767 4.13953 3.82624 4.10742 3.771 4.086C3.66144 4.04099 3.53856 4.04099 3.429 4.086C3.37376 4.10742 3.3233 4.13953 3.2805 4.1805L2.3805 5.0805C2.29576 5.16524 2.24816 5.28016 2.24816 5.4C2.24816 5.51984 2.29576 5.63476 2.3805 5.7195C2.46524 5.80424 2.58016 5.85184 2.7 5.85184C2.81984 5.85184 2.93476 5.80424 3.0195 5.7195L3.15 5.5845V6.75C3.15 6.86935 3.19741 6.98381 3.2818 7.0682C3.36619 7.15259 3.48065 7.2 3.6 7.2C3.71935 7.2 3.83381 7.15259 3.9182 7.0682C4.00259 6.98381 4.05 6.86935 4.05 6.75V5.5845L4.1805 5.7195C4.22233 5.76168 4.2721 5.79515 4.32694 5.818C4.38178 5.84085 4.44059 5.85261 4.5 5.85261C4.55941 5.85261 4.61822 5.84085 4.67306 5.818C4.7279 5.79515 4.77767 5.76168 4.8195 5.7195C4.86168 5.67767 4.89516 5.6279 4.918 5.57306C4.94085 5.51822 4.95261 5.45941 4.95261 5.4C4.95261 5.34059 4.94085 5.28178 4.918 5.22694C4.89516 5.1721 4.86168 5.12233 4.8195 5.0805L3.9195 4.1805ZM7.2 3.123C7.19531 3.08166 7.18626 3.04093 7.173 3.0015V2.961C7.15136 2.91473 7.1225 2.8722 7.0875 2.835V2.835L4.3875 0.135C4.3503 0.0999973 4.30777 0.0711364 4.2615 0.0495H4.2165C4.17274 0.0261014 4.12572 0.00941489 4.077 0H1.35C0.991958 0 0.64858 0.142232 0.395406 0.395406C0.142232 0.64858 0 0.991958 0 1.35V7.65C0 8.00804 0.142232 8.35142 0.395406 8.60459C0.64858 8.85777 0.991958 9 1.35 9H5.85C6.20804 9 6.55142 8.85777 6.80459 8.60459C7.05777 8.35142 7.2 8.00804 7.2 7.65V3.15C7.2 3.15 7.2 3.15 7.2 3.123ZM4.5 1.5345L5.6655 2.7H4.95C4.83065 2.7 4.71619 2.65259 4.6318 2.5682C4.54741 2.48381 4.5 2.36935 4.5 2.25V1.5345ZM6.3 7.65C6.3 7.76935 6.25259 7.88381 6.1682 7.9682C6.08381 8.05259 5.96935 8.1 5.85 8.1H1.35C1.23065 8.1 1.11619 8.05259 1.0318 7.9682C0.947411 7.88381 0.9 7.76935 0.9 7.65V1.35C0.9 1.23065 0.947411 1.11619 1.0318 1.0318C1.11619 0.947411 1.23065 0.9 1.35 0.9H3.6V2.25C3.6 2.60804 3.74223 2.95142 3.99541 3.20459C4.24858 3.45777 4.59196 3.6 4.95 3.6H6.3V7.65Z" fill="#878787"/>
</svg>
