<?xml version="1.0" encoding="utf-8"?>
<svg width="314" height="64" viewBox="0 0 314 64" fill="none" xmlns="http://www.w3.org/2000/svg">
  <path d="M21.9905 27.0938L22.5082 27.1411C23.5882 27.2098 24.6334 27.0762 25.6045 26.8278C29.2257 23.6746 28.1326 21.4251 26.8824 20.2183C25.999 19.3656 24.7949 18.9125 23.5703 18.9991C23.0402 19.0365 22.59 19.1675 22.2086 19.3689C21.2773 21.135 20.3601 23.66 20.751 26.3261C20.751 26.3261 20.7492 26.3244 20.7463 26.3205V26.3217L20.7492 26.3247L20.7519 26.3276C20.7519 26.3276 20.5558 26.5419 20.1453 26.7471C20.5526 27.1994 20.987 27.6248 21.4451 28.0265C21.6716 27.3928 21.9869 27.0923 21.9869 27.0923C21.9881 27.0929 21.9893 27.0935 21.9905 27.0938Z" fill="white"/>
  <path d="M37.2189 20.9587C35.811 20.2416 34.6897 20.3211 34.6897 20.3211C35.4543 18.425 37.2394 17.7317 38.5872 18.8025C39.9347 19.873 38.6268 21.6757 37.2189 20.9587ZM35.4034 14.7042C36.9625 12.9544 38.2109 14.1213 38.451 14.6461C38.6911 15.171 38.3778 16.5178 36.9309 16.9716C35.4838 17.425 34.3779 18.394 34.3779 18.394C34.3779 18.394 33.8444 16.4539 35.4034 14.7042ZM34.6129 11.4115C34.9958 11.1455 35.5442 11.2731 35.8378 11.6962C36.1315 12.1193 36.0592 12.6777 35.6763 12.9437C35.2934 13.2094 34.7447 13.0818 34.4511 12.6587C34.1574 12.2356 34.23 11.6772 34.6129 11.4115ZM33.4609 15.3682C32.97 15.7092 32.2667 15.5455 31.8903 15.0032C31.5139 14.4608 31.6067 13.7446 32.0977 13.404C32.5886 13.0633 33.2916 13.227 33.668 13.7693C34.0446 14.3117 33.9518 15.0276 33.4609 15.3682ZM28.6526 12.886C28.6526 12.886 29.7124 11.8667 30.2878 10.4639C30.8632 9.06074 32.2318 8.86349 32.7344 9.14762C33.2369 9.43146 34.2931 10.7748 32.4166 12.1791C30.5401 13.5831 28.6526 12.886 28.6526 12.886ZM26.7592 12.4108C26.7592 12.4108 26.9339 11.3005 26.3397 9.83668C25.7456 8.37257 27.6533 7.22294 28.6047 8.657C29.5565 10.0914 28.7136 11.8107 26.7592 12.4108ZM39.7282 16.0005V8.00037H31.9986V-1.33514e-05C25.8217 -1.33514e-05 20.4636 3.49886 17.7946 8.62219C17.9552 8.58947 18.1218 8.57429 18.2887 8.57757C19.3836 8.58947 20.6481 9.32732 20.4131 12.8021C20.3774 13.3409 20.3294 13.8494 20.2789 14.3317C20.2789 14.3325 20.2786 14.3337 20.2786 14.3352C20.5701 13.9357 20.8983 13.5334 21.2702 13.1294C21.8462 12.5037 22.3514 11.8152 22.7507 11.0643C23.0928 10.4201 23.4264 9.63258 23.5921 8.79089C23.5921 8.79089 26.0062 10.0479 25.4061 13.2891C26.2897 13.3049 27.2983 13.5316 28.45 14.03C28.45 14.03 34.0824 16.3548 34.2199 21.9342C34.2232 22.0747 34.2119 22.2133 34.1934 22.3502C37.9529 21.1292 39.4563 23.8729 39.4563 23.8729C38.6182 24.0571 37.8381 24.4076 37.2014 24.7637C36.4593 25.179 35.7822 25.6991 35.169 26.2885C34.7727 26.6693 34.3773 27.0067 33.9837 27.3069C33.9845 27.3066 33.9851 27.3066 33.986 27.3063C34.4677 27.2471 34.9738 27.1876 35.515 27.14C38.9811 26.8276 39.7488 28.0772 39.7848 29.1718C39.7934 29.4753 39.7488 29.7728 39.6538 30.0557C44.6254 27.3393 47.9991 22.0643 47.9991 16.0005H39.7282Z" fill="white"/>
  <path d="M20.6993 26.2667C20.5916 26.1406 20.3259 25.8142 20.0084 25.3227C20.2087 25.7118 20.452 26.0219 20.6993 26.2667Z" fill="#D83341"/>
  <path d="M20.6986 26.2026C20.648 26.0807 20.5885 25.9438 20.523 25.795L20.5219 25.7939C20.5867 26.025 20.6563 26.1982 20.7224 26.2904C20.7146 26.283 20.7069 26.2743 20.6992 26.2666C20.7224 26.2937 20.7387 26.3124 20.7462 26.3205V26.3187C20.7313 26.283 20.7164 26.2413 20.6986 26.2026Z" fill="#D83341"/>
  <path d="M23.592 8.79075C23.4263 9.63244 23.0928 10.4203 22.7506 11.0641C22.3513 11.8154 21.8461 12.5035 21.2701 13.1292C20.8982 13.5333 20.5701 13.9355 20.2785 14.3351C19.9542 17.3499 19.4193 19.3457 19.5621 21.6178V21.6208C19.5624 21.625 19.563 21.6294 19.563 21.6336C19.6385 22.835 19.9033 24.1108 20.4874 25.6612C20.4874 25.6618 20.4877 25.6627 20.4877 25.6627C20.4885 25.6653 20.4903 25.6677 20.4903 25.6701C20.5558 25.8456 20.6242 26.0212 20.6986 26.2027C20.7165 26.2413 20.7313 26.283 20.7462 26.3187V26.3205C20.7492 26.3244 20.7513 26.3261 20.7513 26.3261C20.36 23.6603 21.2773 21.135 22.2088 19.3689C23.0092 17.8515 23.8199 16.8944 23.8199 16.8944C24.7479 15.4865 25.2201 14.2937 25.406 13.289C26.0061 10.0481 23.592 8.79075 23.592 8.79075Z" fill="#D83341"/>
  <path d="M20.5201 25.7921C20.291 25.2744 19.9756 24.6109 19.5948 23.9266C19.5933 23.9266 19.5939 23.9261 19.5933 23.9255C19.593 23.9246 19.5918 23.9237 19.5918 23.9237C19.33 23.4536 19.0355 22.9746 18.7141 22.5223C18.7112 22.5223 18.7112 22.5194 18.7112 22.5194C18.1131 21.6804 17.4199 20.9395 16.6553 20.5468C16.9825 21.6655 17.4348 22.7336 17.9882 23.7362C18.5892 24.8252 19.3151 25.8338 20.1452 26.7472C20.5558 26.5419 20.7522 26.3277 20.7522 26.3277L20.7492 26.3247L20.7462 26.3217V26.3205C20.7388 26.3125 20.5867 26.0251 20.5219 25.7939L20.5201 25.7921Z" fill="#D83341"/>
  <path d="M25.6047 26.8279C24.6336 27.076 23.5881 27.2096 22.5081 27.1412L24.9555 27.3646C25.1884 27.1828 25.4024 27.0043 25.6047 26.8279Z" fill="#D83341"/>
  <path d="M34.1935 22.3503C33.3589 22.6213 32.4146 23.0854 31.3495 23.8209C31.3495 23.8209 28.9074 25.9839 25.6046 26.828C25.4023 27.0044 25.1884 27.1829 24.9557 27.3647L22.5083 27.1413C22.3363 27.13 22.1641 27.1154 21.9906 27.0937C22.0135 27.1026 22.0385 27.1136 22.0614 27.1222C22.9567 27.4679 23.7582 27.7134 24.5038 27.883C24.5085 27.8842 24.5139 27.8854 24.5186 27.8866C27.8801 28.6452 30.0609 27.8125 33.9837 27.307C34.3774 27.0068 34.7728 26.6694 35.1691 26.2883C35.7823 25.6992 36.4594 25.1788 37.2014 24.7638C37.8381 24.4076 38.6182 24.0568 39.4561 23.873C39.4561 23.873 37.953 21.1292 34.1935 22.3503Z" fill="#D83341"/>
  <path d="M21.9863 27.0928C21.9863 27.0928 21.9884 27.0945 21.9915 27.0972L21.9897 27.0951C21.9887 27.0945 21.9874 27.0938 21.9863 27.0928Z" fill="#D83341"/>
  <path d="M21.988 27.093C21.988 27.093 21.9869 27.093 21.9862 27.093C21.9877 27.0937 21.9888 27.0945 21.9898 27.0956L21.988 27.093Z" fill="#D83341"/>
  <path d="M21.9869 27.0922L21.9879 27.0935L21.9907 27.0938C21.9894 27.0932 21.9882 27.0926 21.9869 27.0922Z" fill="#D83341"/>
  <path d="M21.9913 27.0938L21.9877 27.0934C21.9891 27.0938 21.9902 27.0938 21.9913 27.0938Z" fill="#D83341"/>
  <path d="M25.8399 29.0493C25.839 29.0487 25.8378 29.0478 25.8369 29.0469C25.1288 28.5652 24.3553 28.1484 23.662 27.8152C23.6594 27.8152 23.6573 27.8137 23.6549 27.8128C23.6543 27.8128 23.6534 27.8122 23.6528 27.8122C23.0224 27.512 22.4571 27.2796 22.0614 27.1219C22.0387 27.1136 22.0135 27.1026 21.9905 27.0937C21.9897 27.0937 21.9888 27.0937 21.9879 27.0934C21.9879 27.0937 21.9894 27.0955 21.9894 27.0955C21.9897 27.0958 21.9905 27.097 21.9905 27.097C21.9882 27.0949 21.9864 27.0934 21.9864 27.0934H21.9879L21.987 27.0922C21.987 27.0922 21.6716 27.3927 21.4452 28.0264C22.7427 29.1689 24.2243 30.1001 25.8429 30.7726H25.8458C26.5569 31.0701 27.2918 31.3173 28.0505 31.5104C27.7324 30.5741 26.8533 29.7422 25.8399 29.0493Z" fill="#D83341"/>
  <path d="M32.7345 9.14755C32.232 8.86341 30.8634 9.06067 30.2879 10.4638C29.7125 11.8666 28.6525 12.8859 28.6525 12.8859C28.6525 12.8859 30.5402 13.5833 32.4167 12.179C34.2929 10.775 33.237 9.43168 32.7345 9.14755Z" fill="#D83341"/>
  <path d="M38.4511 14.6462C38.211 14.1211 36.9626 12.9542 35.4035 14.7042C33.8445 16.454 34.378 18.3941 34.378 18.3941C34.378 18.3941 35.4839 17.4251 36.931 16.9714C38.3779 16.5179 38.6912 15.171 38.4511 14.6462Z" fill="#D83341"/>
  <path d="M21.9905 27.0938C22.1639 27.1152 22.3365 27.1301 22.5082 27.1411L21.9905 27.0938Z" fill="#1D1D1D"/>
  <path d="M26.8825 20.2184C28.1324 21.4251 29.2255 23.6747 25.6047 26.8278C28.9075 25.9837 31.3495 23.8208 31.3495 23.8208C32.4147 23.0853 33.359 22.6214 34.1935 22.3504C34.2117 22.2132 34.2233 22.0749 34.22 21.9345C34.0826 16.3547 28.4502 14.0302 28.4502 14.0302C27.2982 13.5315 26.2899 13.3051 25.4062 13.2891C25.22 14.2935 24.7478 15.4866 23.8201 16.8944C23.8201 16.8944 23.0091 17.8516 22.2087 19.3689C22.5902 19.1675 23.0403 19.0366 23.5702 18.9991C24.7951 18.9125 25.9992 19.3657 26.8825 20.2184Z" fill="#1D1D1D"/>
  <path d="M20.4878 25.6628C20.4878 25.6622 20.4875 25.6619 20.4875 25.6613C19.9031 24.1106 19.6386 22.8349 19.5631 21.6338C19.5628 21.6293 19.5622 21.6251 19.5619 21.621V21.618C19.4194 19.3458 19.9543 17.35 20.2786 14.3352C20.2786 14.3337 20.2789 14.3326 20.2789 14.3317C20.3295 13.8494 20.3771 13.3406 20.4131 12.8021C20.6481 9.32733 19.3837 8.58947 18.2885 8.57757C18.1219 8.5743 17.9553 8.58947 17.7946 8.6222C16.6462 10.8298 15.9976 13.3406 15.9976 16.0005C15.9976 17.5803 16.2267 19.1069 16.6554 20.5469C17.4197 20.9396 18.1132 21.6805 18.711 22.5195C18.711 22.5195 18.711 22.5225 18.7142 22.5225C19.0356 22.9747 19.3298 23.4537 19.5916 23.9238C19.5916 23.9238 19.5928 23.9244 19.5934 23.9253C19.5937 23.9259 19.5934 23.9268 19.5949 23.9268C19.9754 24.6111 20.2908 25.2745 20.5199 25.7922L20.522 25.794L20.5232 25.7952C20.5883 25.944 20.6481 26.0808 20.6984 26.2025C20.624 26.0213 20.5559 25.8458 20.4902 25.6699C20.4902 25.6679 20.4884 25.6652 20.4878 25.6628Z" fill="#1D1D1D"/>
  <path d="M35.5151 27.1399C34.9736 27.1875 34.4679 27.2471 33.9859 27.3066C33.985 27.3066 33.9844 27.3069 33.9838 27.3069C30.0606 27.8126 27.8801 28.6454 24.5187 27.8867C24.5136 27.8855 24.5086 27.884 24.5035 27.8829C23.7579 27.7136 22.9567 27.4678 22.0612 27.1221C22.4569 27.2798 23.0222 27.5118 23.6529 27.8123C23.6535 27.8123 23.6541 27.8126 23.6547 27.8129C23.6571 27.8135 23.6594 27.8153 23.6618 27.8153C24.3551 28.1485 25.1286 28.5651 25.8367 29.0471C25.8379 29.0477 25.8388 29.0486 25.8397 29.0491C26.8531 29.7421 27.7322 30.5742 28.0503 31.5106C29.0083 31.7545 30.002 31.9122 31.0225 31.9717C31.3468 31.9925 31.6711 32.0015 31.9984 32.0015C33.4116 32.0015 34.7862 31.817 36.0893 31.4719C37.3479 31.1416 38.5409 30.6626 39.6537 30.0557C39.7489 29.773 39.7935 29.4755 39.7846 29.172C39.7489 28.0771 38.9813 26.8275 35.5151 27.1399Z" fill="#1D1D1D"/>
  <path d="M26.7592 12.4109C28.7136 11.8108 29.5565 10.0914 28.605 8.65702C27.6532 7.22296 25.7455 8.37258 26.3396 9.83669C26.9338 11.3005 26.7592 12.4109 26.7592 12.4109Z" fill="#1D1D1D"/>
  <path d="M34.6897 20.3211C34.6897 20.3211 35.8111 20.2416 37.2189 20.9587C38.6268 21.6757 39.9347 19.873 38.5872 18.8025C37.2395 17.7317 35.4543 18.425 34.6897 20.3211Z" fill="#1D1D1D"/>
  <path d="M33.4609 15.3684C33.9518 15.0277 34.0446 14.3119 33.6682 13.7692C33.2919 13.2271 32.5885 13.0634 32.0976 13.4041C31.6067 13.7448 31.5142 14.4606 31.8905 15.003C32.2669 15.5457 32.9699 15.7093 33.4609 15.3684Z" fill="#1D1D1D"/>
  <path d="M35.6763 12.9436C36.0592 12.6776 36.1315 12.1191 35.8379 11.6963C35.5442 11.273 34.9959 11.1456 34.613 11.4113C34.2301 11.677 34.1575 12.2354 34.4511 12.6585C34.7448 13.0816 35.2934 13.2092 35.6763 12.9436Z" fill="#1D1D1D"/>
  <path d="M38.9195 39.228C38.3789 39.6436 37.7259 39.7894 37.096 40.0116C36.4316 40.2458 35.783 40.5305 35.1737 40.8852C34.8325 41.0839 34.5016 41.302 34.1871 41.5406C34.1645 41.5579 34.0321 41.6436 33.9387 41.7173C33.8974 41.7501 33.8361 41.7212 33.8358 41.6685V41.6671C33.8316 41.0568 34.1229 40.4451 34.413 39.9242C34.7988 39.23 35.288 38.5895 35.839 38.0182C36.3629 37.4747 36.9606 36.9683 37.6452 36.6401C38.3075 36.3227 39.2295 36.1427 39.724 36.8436C40.2911 37.6484 39.5741 38.7246 38.9195 39.228ZM37.0856 45.5027C33.9824 48.3652 30.9102 47.3295 30.9102 47.3295C34.3778 45.8452 36.0092 43.0488 36.0092 43.0488C32.9003 43.9574 31.1414 46.4584 31.1414 46.4584C31.7582 43.6608 33.8938 42.2097 33.8938 42.2097C36.8639 39.856 39.5428 41.1503 39.5428 41.1503C38.3376 44.1484 37.0856 45.5027 37.0856 45.5027ZM34.3778 50.8983C32.6153 53.2773 30.458 53.7152 30.458 53.7152C26.0642 54.9842 23.1318 50.4603 23.1877 50.4838C28.2099 52.6016 31.6267 50.3184 31.6267 50.3184C29.3072 49.2015 23.6724 49.9971 23.6724 49.9971C24.3433 49.4157 25.0948 48.9936 25.8372 48.6868C28.0034 47.7913 30.427 47.7526 32.6427 48.5184C34.2508 49.0742 35.3689 49.7573 35.3689 49.7573C34.928 50.1697 34.3778 50.8983 34.3778 50.8983ZM10.8655 23.5833C11.3457 23.7398 11.4148 24.3789 11.4148 24.3789C11.6947 26.3557 10.3121 27.3937 10.3121 27.3937C10.3978 27.2574 9.71887 25.428 9.75517 24.6068C9.79177 23.7856 10.385 23.4271 10.8655 23.5833ZM12.59 26.3137C12.59 26.3137 13.1484 25.9953 13.5563 26.2932C13.9645 26.591 14.0213 27.2818 13.3769 27.7924C12.7328 28.3026 10.8524 28.8236 10.792 28.973C10.792 28.973 10.8239 27.2446 12.59 26.3137ZM12.7884 23.5738C12.7884 23.5738 13.0627 23.3176 13.3344 23.4316C13.6063 23.5455 13.7322 23.9302 13.4352 24.3072C13.1383 24.6842 12.1407 25.234 12.1267 25.3268C12.1267 25.3268 11.9113 24.3408 12.7884 23.5738ZM14.5899 35.4878C14.3811 36.0492 13.4052 37.0849 13.4239 37.2006C13.4239 37.2006 12.7908 36.1105 13.5406 34.863C13.5406 34.863 13.7685 34.4533 14.1356 34.4852C14.5024 34.5167 14.7991 34.9258 14.5899 35.4878ZM2.5697 35.6851C2.6658 35.3902 3.05823 35.3477 3.05823 35.3477C4.27183 35.176 4.90942 36.0245 4.90942 36.0245C4.82582 35.9722 3.70237 36.389 3.19807 36.367C2.69407 36.3447 2.4736 35.9799 2.5697 35.6851ZM39.2313 33.73C39.2938 33.8848 39.3206 34.0543 39.2998 34.2358C39.2075 35.0005 38.4221 35.5271 37.8062 35.8573C35.6135 37.0355 34.8726 38.3149 34.6495 38.8355C34.6257 38.8891 34.5454 38.8742 34.5454 38.8147C34.5483 38.66 34.5602 38.5023 34.5662 38.3625C34.5751 38.1453 34.5867 37.9251 34.6078 37.7079C34.6465 37.3092 34.709 36.9162 34.8012 36.5268C35.0214 35.6223 35.423 34.7505 36.0806 34.0779C36.3007 33.8547 36.5417 33.6527 36.7976 33.4712C37.0624 33.2867 37.354 33.1201 37.6634 33.0398C36.1877 32.4775 34.6078 32.1294 32.9596 32.0312C34.3817 35.2772 32.9536 38.1631 32.9536 38.1631C33.391 35.777 32.8643 33.2659 32.5162 32.0104C32.3437 32.0044 32.1711 32.0014 31.9986 32.0014C31.9986 32.897 31.9242 33.7747 31.7814 34.6286C33.5368 38.1807 31.7992 41.3645 31.7992 41.3645C32.3139 39.0914 31.9391 36.6636 31.6475 35.3515C31.3857 36.5714 30.987 37.7407 30.4663 38.8415C30.859 39.1241 31.1298 39.5883 31.1655 40.0703C31.2071 40.6088 31.0911 41.1473 30.9186 41.6531C29.3179 46.3926 24.3879 47.3295 24.3879 47.3295C25.0514 46.9966 25.4471 46.2587 25.7506 45.6161C25.9618 45.1668 26.1403 44.7057 26.304 44.2385C25.459 44.9526 24.5367 45.5774 23.5519 46.107H23.5489C22.5492 46.6425 21.4901 47.0769 20.3773 47.392C20.3743 47.3953 20.3714 47.3953 20.3714 47.3953C19.6216 47.6065 18.851 47.7672 18.0596 47.8683C18.137 47.8891 18.2173 47.907 18.2947 47.9246C18.616 47.9963 18.9403 48.0528 19.2676 48.1004C20.5707 48.2819 21.9006 48.2521 23.2008 48.0647C23.8524 47.9665 24.495 47.8296 25.1258 47.6452C25.7565 47.4637 26.3724 47.2346 26.9704 46.9668C27.5684 46.6961 28.1397 46.3777 28.6871 46.0177C29.2313 45.6577 29.7404 45.2469 30.2134 44.7979C30.6805 44.3424 31.103 43.8458 31.4779 43.3103C31.6624 43.0395 31.8379 42.7599 32.0045 42.4772C32.1711 42.1916 32.3258 41.903 32.4716 41.6055C33.0577 40.4213 33.501 39.1598 33.8462 37.8713C34.1943 36.5833 34.4353 35.2623 34.5454 33.9205C34.5751 35.2679 34.4204 36.6187 34.1496 37.943C34.0098 38.6035 33.8432 39.261 33.6468 39.9096C33.5457 40.2339 33.4356 40.5582 33.3166 40.8765C33.1976 41.1949 33.0667 41.5103 32.9268 41.8197C32.6442 42.4415 32.3199 43.0485 31.945 43.6227C31.5672 44.2028 31.1238 44.7384 30.6359 45.2293C30.145 45.7172 29.6065 46.1546 29.0382 46.5414C28.464 46.9282 27.86 47.2614 27.2352 47.55C26.6074 47.8296 25.9586 48.0677 25.2983 48.2551C24.6378 48.4366 23.9654 48.5764 23.2841 48.6657C22.6058 48.752 21.9185 48.7966 21.2342 48.7847C21.0646 48.7787 20.892 48.7787 20.7195 48.7668L20.4636 48.7549L20.2077 48.7341C19.8656 48.7014 19.5264 48.6565 19.1899 48.5973C18.851 48.5377 18.5178 48.4634 18.1846 48.3771C17.8543 48.2878 17.5271 48.1896 17.2057 48.0733C17.1254 48.0439 17.0451 48.0141 16.9677 47.9844L16.938 47.9725H16.935C16.6256 47.9903 16.3132 47.9989 15.9978 47.9989V47.5708C15.7776 47.4726 15.5575 47.3685 15.3403 47.2584C14.132 46.6515 12.9809 45.9553 11.8384 45.2442C13.0493 45.83 14.2424 46.4521 15.4742 46.9728C15.6467 47.0472 15.8223 47.1215 15.9978 47.19V46.101C15.5575 45.7381 15.1379 45.3453 14.7512 44.9228C14.65 44.8098 14.5459 44.6997 14.4477 44.5837C14.2454 44.3516 13.9865 44.1909 13.7247 44.0362C13.1535 43.6941 12.5614 43.3873 11.9574 43.102C11.9217 43.0842 11.8801 43.0693 11.8414 43.0544C11.8262 43.0485 11.8146 43.0455 11.7997 43.0425C11.5677 43.3638 11.0708 43.3936 11.0708 43.3936C9.96671 43.6881 8.88105 43.6105 7.81294 43.1642C7.14649 42.8848 6.55442 42.4829 5.99211 42.0309C5.47442 41.6114 4.98945 41.1559 4.51044 40.6921C4.12961 40.3202 3.75176 39.9483 3.37986 39.5704C3.12369 39.3145 2.88002 39.0468 2.63307 38.782C2.54382 38.6868 2.48729 38.5737 2.43968 38.4547C2.34745 38.2167 2.40398 38.0054 2.60927 37.8507C2.73126 37.7555 2.87704 37.7049 3.02283 37.6633C3.3382 37.5711 3.66548 37.5294 3.99573 37.5113C5.23937 37.4342 6.42649 37.6811 7.56897 38.1721C8.41096 38.535 9.19047 38.9989 9.8837 39.6061C10.211 39.8947 10.5144 40.2131 10.7849 40.5582C10.9578 40.7721 11.1214 40.9896 11.2761 41.2157C11.407 41.4091 11.5287 41.6114 11.6391 41.8167C11.7432 42.0131 11.8444 42.2124 11.889 42.4296C11.9006 42.4948 11.9039 42.5572 11.9069 42.623C11.9069 42.6409 11.8979 42.7361 11.9128 42.745C11.9307 42.7569 11.9515 42.7658 11.9723 42.7747C12.1211 42.8372 12.2639 42.9086 12.4067 42.98C12.7459 43.1556 13.0791 43.3311 13.4183 43.5066C13.4688 43.5334 13.5224 43.5572 13.576 43.584C13.6236 43.5334 13.573 43.5066 13.5551 43.4769C13.3588 43.1942 13.1594 42.9086 12.9601 42.6289C12.6477 42.1946 12.3769 41.7391 12.1032 41.2812C11.7938 40.7605 11.4933 40.2339 11.2077 39.6984C10.9161 39.1476 10.6186 38.5975 10.3568 38.0319C10.3032 37.9132 10.211 37.8597 10.092 37.824C9.69626 37.7079 9.30056 37.5856 8.90485 37.461C8.50617 37.3301 8.11344 37.1783 7.72666 37.0058C7.48567 37.2378 6.99148 37.2408 6.53955 36.9939C6.01888 36.7112 5.74516 36.2054 5.92962 35.8663C6.11706 35.5241 6.68831 35.4765 7.20897 35.7592C7.62253 35.9823 7.87542 36.3453 7.87542 36.6547C7.87542 36.6844 7.87245 36.7112 7.86947 36.738C8.37526 36.9522 8.88998 37.1426 9.41362 37.3063C9.55048 37.3479 9.68734 37.3896 9.8242 37.4312L10.089 37.4994L9.95808 37.1992L9.94916 37.1783C9.94618 37.1694 9.94023 37.1605 9.93725 37.1516C9.73196 36.6904 9.52965 36.2322 9.32436 35.774C9.28568 35.6877 9.24105 35.6074 9.19047 35.5301C8.8394 35.0094 8.44072 34.5304 7.97658 34.1109C7.56897 33.7419 7.13757 33.4057 6.66153 33.1291C6.63773 33.1171 6.6169 33.1052 6.59608 33.0963C6.43541 33.3373 6.11707 33.6676 5.525 33.7803C4.45689 34.0871 3.44234 33.9175 2.50216 33.2124C2.10646 32.9119 1.81191 32.5221 1.61852 32.0609C1.53522 31.8646 1.49356 31.6593 1.48166 31.4451C1.44893 30.8649 1.82679 30.4156 2.25225 30.2104C2.70448 29.9932 3.18647 29.9307 3.68333 29.9664C4.69491 30.0408 5.49524 30.499 6.10219 31.3082C6.16169 31.3826 6.21525 31.4599 6.2688 31.5403C6.2688 31.5403 6.76834 32.1829 6.73591 32.8167C6.75674 32.8315 6.78054 32.8464 6.80732 32.8613C7.10186 33.0249 7.37558 33.2243 7.64335 33.4296C7.86352 33.5991 8.07476 33.7836 8.27708 33.977C8.28006 33.977 8.71741 34.3754 8.71741 34.3754L8.54187 33.8758C8.27708 33.1915 8.01526 32.5043 7.78914 31.8081C7.56897 31.1327 7.38451 30.4484 7.22682 29.7581C7.22087 29.7343 7.21195 29.7105 7.20897 29.6837C7.206 29.6123 7.19112 29.5528 7.16434 29.5052C6.6526 29.3803 6.33723 29.056 6.33723 29.056C6.03971 28.8298 5.79276 28.5561 5.59045 28.2289C5.14714 27.5148 4.99838 26.7323 5.04598 25.9052C5.07574 25.453 5.17094 25.0186 5.37623 24.614C5.51012 24.3462 5.68863 24.1141 5.94152 23.9445C6.29558 23.7035 6.67641 23.6559 7.07509 23.7928C7.55112 23.9564 7.89923 24.2837 8.12832 24.727C8.32468 25.1049 8.46452 25.5125 8.53295 25.932C8.58353 26.2295 8.59245 26.53 8.57758 26.8275C8.54782 27.3244 8.45559 27.8361 8.30683 28.3092C8.16402 28.7644 7.926 29.2464 7.47377 29.4606C7.49162 29.5558 7.51215 29.651 7.53625 29.7462C7.68798 30.3978 7.86352 31.0434 8.06881 31.6801L8.09262 31.7456V31.7545L8.28898 32.3525C8.28898 32.3525 8.33956 32.171 8.34551 32.1413C8.41096 31.8259 8.5151 31.5224 8.65196 31.2309C8.69063 31.1476 8.72634 31.0613 8.76502 30.975C8.78287 30.9363 8.79179 30.8947 8.78287 30.856C8.56568 30.6358 8.54485 30.2282 8.75312 29.8742C8.99113 29.4665 9.43742 29.288 9.74982 29.4725C10.0592 29.654 10.1187 30.13 9.88073 30.5376C9.69031 30.859 9.36899 31.0375 9.08932 31.0047L9.07146 31.0404C8.98816 31.2428 8.88997 31.4391 8.80964 31.6444C8.6341 32.0907 8.56568 32.5548 8.60435 33.0338C8.61923 33.1767 8.64898 33.3165 8.70224 33.4504C8.97923 34.1555 9.26188 34.8606 9.56535 35.5568C9.77362 36.0299 9.97891 36.503 10.1899 36.976L10.4222 37.4521L10.449 37.0504L10.452 36.9939C10.4787 36.1965 10.6156 35.414 10.8536 34.6494C10.8655 34.6104 10.8804 34.572 10.8923 34.5304C10.9012 34.5036 10.9042 34.4798 10.8983 34.456C10.3211 34.1079 10.2675 33.614 10.2675 33.614C10.2556 33.5724 10.2467 33.5307 10.2378 33.4861C10.1604 33.0695 10.1277 32.65 10.2169 32.2276C10.3478 31.5879 10.6424 31.0404 11.1303 30.6061C11.407 30.3621 11.7343 30.2342 12.1032 30.2371C12.57 30.2401 13.0315 30.5257 13.2249 31.0434C13.326 31.3201 13.335 31.6028 13.2933 31.8914C13.2189 32.4269 13.0136 32.9148 12.725 33.37C12.5406 33.6616 12.3323 33.9264 12.0616 34.1436C11.7343 34.4498 11.4159 34.5274 11.2255 34.5423C11.2077 34.5691 11.1928 34.5985 11.1809 34.6375C11.1154 34.8636 11.0411 35.0868 10.9875 35.3158C10.8358 35.9615 10.7465 36.616 10.7584 37.2795V37.3777L10.7673 37.7168L11.1095 37.818C11.2523 37.8656 11.3921 37.9221 11.5287 37.9846C12.1716 38.2792 12.5614 38.779 12.7102 39.4693C12.7932 39.8531 12.8083 40.2398 12.7607 40.6266C12.731 40.8706 12.6864 41.1116 12.6358 41.3496C12.615 41.4567 12.6298 41.54 12.6834 41.6352C12.975 42.141 13.3201 42.6111 13.6503 43.0898C14.0133 43.6105 14.415 44.1017 14.8404 44.5718L15.1707 44.908L15.1558 44.6283C15.1439 44.539 15.132 44.4498 15.1231 44.3576C15.1201 44.3278 15.1112 44.301 15.0963 44.2772C14.8285 44.1076 14.6679 43.8518 14.6679 43.8518C14.4745 43.5929 14.3436 43.2954 14.2424 42.98C14.055 42.4058 13.9717 41.8134 13.9627 41.2127C13.9419 39.981 14.1502 38.7939 14.6411 37.66C14.8404 37.1932 15.0963 36.7556 15.4384 36.378C15.6051 36.1935 15.7836 36.0299 15.9978 35.9079V16.0007C7.16137 16.0007 0 23.162 0 32.0014C0 39.5496 5.22747 45.8779 12.2609 47.5619L11.9336 46.5146C11.9336 46.5146 13.2606 47.2405 14.7988 47.9546H14.8015C15.1915 47.9844 15.5872 47.9989 15.9859 47.9989H14.897C15.8282 48.4306 16.8249 48.8531 17.6461 49.106C19.8537 49.7814 23.9833 51.745 25.1377 55.7318L26.1017 59.5818C26.1017 59.5818 22.1651 57.8026 20.3505 56.8833C18.5357 55.9669 14.5905 54.1163 13.1951 50.5311L12.4007 47.9989H8.65196C8.65196 56.8357 15.8133 64 24.6497 64C33.4862 64 40.6505 56.8357 40.6505 47.9989H47.9874C47.9874 41.7691 44.4261 36.375 39.2313 33.73Z" fill="white"/>
  <path d="M15.474 44.4201C15.4502 44.435 15.4413 44.4588 15.4443 44.5064C15.4711 44.7771 15.5484 45.0357 15.6793 45.274C15.7686 45.4314 15.8697 45.5801 15.9977 45.7051V44.3011C15.9501 44.3309 15.9054 44.3544 15.8549 44.3725C15.718 44.4231 15.5901 44.435 15.474 44.4201Z" fill="white"/>
  <path d="M12.1508 38.8921C12.014 38.7106 11.8712 38.5499 11.6808 38.419C11.6748 38.4157 11.6659 38.4101 11.6599 38.4038C11.4249 38.2465 11.166 38.1063 10.8893 38.0319C10.8626 38.0233 10.8328 38.0174 10.8031 38.0084C10.7971 38.0084 10.7912 38.0055 10.7852 38.0055C10.7644 38.0025 10.7436 37.9995 10.7257 37.9906L10.7317 38.0055C10.7406 38.0263 10.7495 38.0438 10.7584 38.065C10.8774 38.3476 11.0024 38.627 11.1333 38.907C11.2523 39.1301 11.3684 39.3532 11.4903 39.5764C11.5409 39.6683 11.5915 39.7638 11.6451 39.8561C11.7551 40.0584 11.8712 40.2607 11.9842 40.463C12.0973 40.6653 12.2282 40.8557 12.3621 41.0461C12.4335 40.7903 12.4751 40.5285 12.4811 40.2634C12.4841 40.0402 12.4692 39.8171 12.4275 39.5972C12.3799 39.3294 12.2877 39.0765 12.1508 38.8921Z" fill="white"/>
  <path d="M36.0804 34.078C35.4229 34.7507 35.0212 35.6221 34.801 36.5266C34.7088 36.9164 34.6463 37.3091 34.6076 37.7078C34.5868 37.9253 34.5749 38.1454 34.566 38.3623C34.56 38.5022 34.5481 38.6598 34.5452 38.8149C34.5452 38.8741 34.6255 38.8892 34.6493 38.8354C34.8724 38.3147 35.6133 37.0354 37.806 35.8572C38.4219 35.5269 39.2073 35.0006 39.2996 34.2357C39.3204 34.0545 39.2936 33.8849 39.2311 33.7299H39.2282C38.7224 33.4713 38.2017 33.242 37.6662 33.0399H37.6632C37.3538 33.12 37.0622 33.2869 36.7974 33.4713C36.5415 33.6525 36.3005 33.8549 36.0804 34.078Z" fill="#D83341"/>
  <path d="M37.6454 36.6401C36.9605 36.9685 36.3628 37.4749 35.8388 38.0182C35.2881 38.5894 34.799 39.23 34.4128 39.9241C34.123 40.4451 33.8317 41.0571 33.8356 41.667V41.6685C33.8362 41.7212 33.8975 41.75 33.9388 41.7173C34.0323 41.6435 34.1647 41.5578 34.187 41.5409C34.5018 41.3019 34.8326 41.0842 35.1739 40.8854C35.7832 40.5305 36.4318 40.2457 37.0962 40.0116C37.726 39.7893 38.3791 39.6438 38.9197 39.2279C39.5739 38.7245 40.2913 37.6487 39.7239 36.8439C39.2297 36.1426 38.3077 36.3229 37.6454 36.6401Z" fill="#D83341"/>
  <path d="M33.8937 42.2099C33.8937 42.2099 31.7581 43.6609 31.1416 46.4582C31.1416 46.4582 32.9003 43.9572 36.0091 43.0486C36.0091 43.0486 34.3778 45.8453 30.9102 47.3297C30.9102 47.3297 33.9824 48.365 37.0858 45.5026C37.0858 45.5026 38.3375 44.1485 39.5428 41.1501C39.5428 41.1501 36.8639 39.8562 33.8937 42.2099Z" fill="#1D1D1D"/>
  <path d="M25.8371 48.6868C25.0948 48.9935 24.3433 49.4157 23.6723 49.9971C23.6723 49.9971 29.3071 49.2015 31.6266 50.3184C31.6266 50.3184 28.2102 52.6016 23.1877 50.4838C23.1317 50.4603 26.0641 54.9842 30.4579 53.7152C30.4579 53.7152 32.6153 53.2773 34.3781 50.8983C34.3781 50.8983 34.9279 50.1696 35.3691 49.7573C35.3691 49.7573 34.2508 49.0742 32.6426 48.5184C30.427 47.7526 28.0034 47.7913 25.8371 48.6868Z" fill="#1D1D1D"/>
  <path d="M12.2609 47.5618H12.2638C13.088 47.7582 13.93 47.8921 14.7987 47.9546C13.2605 47.2405 11.9336 46.5145 11.9336 46.5145L12.2609 47.5618Z" fill="#1D1D1D"/>
  <path d="M20.3506 56.8833C22.1654 57.8026 26.1017 59.5818 26.1017 59.5818L25.1377 55.7318C23.9833 51.745 19.8537 49.7814 17.6461 49.106C16.8249 48.8531 15.8282 48.4306 14.897 47.9992H12.4008L13.1951 50.5311C14.5905 54.1163 18.5357 55.9669 20.3506 56.8833Z" fill="#1D1D1D"/>
  <path d="M24.3878 47.3297C24.3878 47.3297 29.3178 46.3928 30.9184 41.6532C31.091 41.1474 31.207 40.6086 31.1654 40.0704C31.1297 39.5881 30.8589 39.1243 30.4662 38.8416C29.4784 40.9299 28.0503 42.7657 26.3039 44.2384C26.1402 44.7058 25.9617 45.1667 25.7505 45.6159C25.447 46.2586 25.0513 46.9967 24.3878 47.3297Z" fill="#1D1D1D"/>
  <path d="M31.7992 41.3644C31.7992 41.3644 33.5367 38.1809 31.7813 34.6285C31.7427 34.8727 31.698 35.1134 31.6475 35.3514C31.939 36.6635 32.3139 39.0913 31.7992 41.3644Z" fill="#D83341"/>
  <path d="M32.9536 38.1631C32.9536 38.1631 34.3817 35.2771 32.9595 32.0311C32.8108 32.0222 32.665 32.0133 32.5162 32.0103C32.8643 33.2659 33.391 35.777 32.9536 38.1631Z" fill="#D83341"/>
  <path d="M11.8383 45.2441C12.9807 45.9555 14.1322 46.6514 15.3401 47.2586C15.5573 47.3687 15.7775 47.4725 15.9976 47.5707V47.1899C15.8221 47.1217 15.6465 47.0474 15.474 46.973C14.2422 46.4523 13.0492 45.8302 11.8383 45.2441Z" fill="#D83341"/>
  <path d="M17.2056 48.0735C17.527 48.1898 17.8542 48.288 18.1845 48.3772C18.5177 48.4635 18.8509 48.5379 19.1901 48.5974C19.5263 48.6566 19.8655 48.7013 20.2076 48.7343L20.4635 48.7548L20.7194 48.7667C20.8919 48.7786 21.0645 48.7786 21.2341 48.7849C21.9184 48.7968 22.6057 48.7518 23.284 48.6655C23.9654 48.5763 24.6378 48.4368 25.2983 48.255C25.9588 48.0675 26.6074 47.8298 27.2351 47.5498C27.8599 47.2615 28.4639 46.928 29.0381 46.5415C29.6064 46.1548 30.1449 45.7171 30.6358 45.2292C31.1237 44.7383 31.5671 44.2027 31.9449 43.6225C32.3198 43.0483 32.6441 42.4414 32.9267 41.8196C33.0666 41.5101 33.1975 41.1951 33.3165 40.8767C33.4355 40.5581 33.5456 40.2338 33.6467 39.9098C33.8431 39.2612 34.0097 38.6036 34.1496 37.9428C34.4203 36.6189 34.575 35.2681 34.5453 33.9206C34.4352 35.2622 34.1942 36.5835 33.8461 37.8714C33.501 39.1597 33.0576 40.4212 32.4715 41.6056C32.3257 41.9032 32.171 42.1915 32.0044 42.4771C31.8378 42.76 31.6623 43.0394 31.4778 43.3101C31.1029 43.8457 30.6804 44.3425 30.2133 44.7978C29.7403 45.247 29.2315 45.6579 28.687 46.0179C28.1396 46.3779 27.5683 46.6959 26.9703 46.9667C26.3723 47.2348 25.7564 47.4636 25.1257 47.6453C24.4949 47.8298 23.8523 47.9667 23.2007 48.0649C21.9005 48.2523 20.5706 48.2817 19.2675 48.1006C18.9402 48.053 18.6159 47.9961 18.2946 47.9247C18.2172 47.9069 18.1369 47.8893 18.0595 47.8685C17.6876 47.9161 17.3157 47.9518 16.9379 47.9723L16.9676 47.9842C17.045 48.0143 17.1253 48.0437 17.2056 48.0735Z" fill="#D83341"/>
  <path d="M12.362 41.0462C12.2281 40.8555 12.0972 40.6654 11.9841 40.4631C11.8711 40.2605 11.7551 40.0585 11.645 39.8562C11.5914 39.7636 11.5408 39.6684 11.4903 39.5765C11.3683 39.3533 11.2522 39.1302 11.1332 38.9071C11.0023 38.6271 10.8774 38.3477 10.7583 38.0648C10.7494 38.0439 10.7405 38.0264 10.7316 38.0053L10.7256 37.9904C10.7435 37.9996 10.7643 38.0026 10.7851 38.0053C10.7911 38.0053 10.797 38.0085 10.803 38.0085C10.8327 38.0172 10.8625 38.0234 10.8893 38.032C11.166 38.1064 11.4248 38.2466 11.6598 38.404C11.6658 38.4102 11.6747 38.4159 11.6807 38.4191C11.8711 38.5497 12.0139 38.7104 12.1508 38.8922C12.2876 39.0766 12.3798 39.3292 12.4275 39.5973C12.4691 39.8172 12.484 40.0403 12.481 40.2635C12.4751 40.5286 12.4334 40.7904 12.362 41.0462ZM14.641 37.6601C14.1501 38.794 13.9418 39.9811 13.9627 41.2129C13.9716 41.8136 14.0549 42.4056 14.2423 42.9801C14.3435 43.2955 14.4744 43.593 14.6678 43.8519C14.6678 43.8519 14.8285 44.1078 15.0962 44.277C15.1111 44.3008 15.12 44.3276 15.123 44.3577C15.1319 44.4496 15.1438 44.5389 15.1557 44.6284L15.1706 44.9078L14.8404 44.5719C14.4149 44.1018 14.0132 43.6106 13.6503 43.0899C13.32 42.6112 12.9749 42.1411 12.6833 41.635C12.6298 41.5398 12.6149 41.4568 12.6357 41.3497C12.6863 41.1117 12.7309 40.8704 12.7607 40.6267C12.8083 40.24 12.7934 39.8529 12.7101 39.4691C12.5613 38.7791 12.1716 38.279 11.5289 37.9847C11.3921 37.9223 11.2522 37.8657 11.1094 37.8178L10.7673 37.717L10.7583 37.3778V37.2796C10.7464 36.6158 10.8357 35.9613 10.9874 35.3157C11.041 35.0869 11.1154 34.8637 11.1808 34.6376C11.1927 34.5986 11.2076 34.5689 11.2255 34.5424C11.4159 34.5275 11.7342 34.4499 12.0615 34.1437C12.3322 33.9262 12.5405 33.6617 12.725 33.3699C13.0136 32.915 13.2189 32.4267 13.2932 31.8912C13.3349 31.6029 13.326 31.3202 13.2248 31.0432C13.0314 30.5258 12.5703 30.2402 12.1032 30.237C11.7342 30.2343 11.4069 30.3619 11.1303 30.6062C10.6423 31.0406 10.3478 31.5877 10.2169 32.2274C10.1276 32.6499 10.1603 33.0694 10.2377 33.4862C10.2466 33.5305 10.2555 33.5725 10.2674 33.6141C10.2674 33.6141 10.321 34.108 10.8982 34.4561C10.9041 34.4799 10.9012 34.5037 10.8922 34.5305C10.8803 34.5719 10.8655 34.6105 10.8536 34.6495C10.6155 35.4138 10.4787 36.1963 10.4519 36.994L10.4489 37.0502L10.4221 37.4522L10.1901 36.9758C9.97884 36.5028 9.77355 36.03 9.56528 35.557C9.26181 34.8608 8.97916 34.1556 8.70247 33.4505C8.64891 33.3166 8.61916 33.1768 8.60429 33.0337C8.56561 32.555 8.63404 32.0905 8.80958 31.6442C8.88991 31.4389 8.98809 31.2429 9.0714 31.0406L9.08925 31.0049C9.36892 31.0373 9.69024 30.8591 9.88066 30.5377C10.1187 30.1301 10.0592 29.6538 9.74975 29.4726C9.43735 29.2879 8.99107 29.4667 8.75305 29.8743C8.54478 30.2283 8.56561 30.6359 8.7828 30.8561C8.79172 30.8945 8.7828 30.9364 8.76495 30.9748C8.72627 31.0611 8.69057 31.1474 8.65189 31.231C8.51503 31.5225 8.4109 31.826 8.34544 32.1411C8.33949 32.1709 8.28891 32.3523 8.28891 32.3523L8.09255 31.7546V31.7457L8.06874 31.6802C7.86345 31.0432 7.68792 30.3976 7.53618 29.7463C7.51238 29.6511 7.49155 29.5556 7.4737 29.4607C7.92593 29.2462 8.16395 28.7645 8.30676 28.309C8.45552 27.8362 8.54776 27.3242 8.57751 26.8273C8.59238 26.5298 8.58346 26.2296 8.53288 25.9321C8.46445 25.5126 8.32461 25.1047 8.12825 24.7268C7.89916 24.2838 7.55105 23.9565 7.07502 23.7929C6.67634 23.656 6.29551 23.7034 5.94146 23.9446C5.68856 24.1139 5.51005 24.3463 5.37617 24.6141C5.17087 25.0184 5.07567 25.4528 5.04592 25.905C4.99831 26.7324 5.14707 27.5149 5.59038 28.2287C5.7927 28.5562 6.03964 28.8297 6.33716 29.0561C6.33716 29.0561 6.65254 29.3804 7.16428 29.505C7.19105 29.5529 7.20593 29.6122 7.2089 29.6839C7.21188 29.7103 7.22081 29.7341 7.22676 29.7582C7.38444 30.4482 7.56891 31.1328 7.78907 31.8082C8.01519 32.5044 8.27701 33.1917 8.54181 33.8757L8.71734 34.3755C8.71734 34.3755 8.27999 33.9768 8.27701 33.9768C8.0747 33.7837 7.86345 33.5993 7.64329 33.4294C7.37552 33.2244 7.1018 33.025 6.80725 32.8611C6.78047 32.8462 6.75667 32.8316 6.73584 32.8168C6.76857 32.1828 6.26873 31.5404 6.26873 31.5404C6.21518 31.4598 6.16162 31.3827 6.10212 31.3083C5.49517 30.4991 4.69484 30.0409 3.68326 29.9665C3.1864 29.9308 2.70441 29.9933 2.25218 30.2105C1.82672 30.4158 1.44887 30.8647 1.48159 31.4449C1.4935 31.6594 1.53515 31.8647 1.61845 32.0611C1.81184 32.5222 2.10639 32.9117 2.5021 33.2125C3.44227 33.9176 4.45682 34.0869 5.52493 33.7804C6.117 33.6674 6.43535 33.3374 6.59601 33.0961C6.61683 33.1054 6.63766 33.1173 6.66146 33.1292C7.1375 33.4056 7.56891 33.7418 7.97651 34.1107C8.44065 34.5305 8.83933 35.0095 9.1904 35.5302C9.24098 35.6075 9.28561 35.6876 9.32429 35.7739C9.52958 36.232 9.7319 36.6902 9.93719 37.1514C9.94016 37.1603 9.94611 37.1695 9.94909 37.1785L9.95801 37.199L10.0889 37.4995L9.82413 37.4313C9.68727 37.3897 9.55041 37.3477 9.41355 37.3064C8.88991 37.1428 8.37519 36.952 7.8694 36.7381C7.87238 36.7113 7.87535 36.6846 7.87535 36.6545C7.87535 36.3451 7.62246 35.9821 7.2089 35.759C6.68824 35.4763 6.117 35.5239 5.92956 35.8664C5.74509 36.2053 6.01881 36.7113 6.53948 36.994C6.99171 37.2409 7.4856 37.2377 7.72659 37.0059C8.11337 37.1785 8.5061 37.3302 8.90478 37.4608C9.30049 37.5858 9.69619 37.7077 10.0919 37.8241C10.2109 37.8598 10.3031 37.9133 10.3567 38.032C10.6185 38.5976 10.916 39.1478 11.2076 39.6985C11.4932 40.234 11.7937 40.7606 12.1032 41.2813C12.3769 41.7392 12.6476 42.1944 12.96 42.6288C13.1594 42.9087 13.3587 43.1944 13.5551 43.477C13.5729 43.5068 13.6235 43.5332 13.5759 43.5838C13.5223 43.557 13.4688 43.5332 13.4182 43.5068C13.079 43.3312 12.7458 43.1557 12.4066 42.9801C12.2638 42.9087 12.121 42.8373 11.9722 42.7749C11.9514 42.7656 11.9306 42.757 11.9127 42.7451C11.8979 42.7362 11.9068 42.6407 11.9068 42.6231C11.9038 42.5574 11.9008 42.4949 11.8889 42.4294C11.8443 42.2125 11.7431 42.0132 11.639 41.8168C11.5289 41.6112 11.4069 41.4092 11.276 41.2155C11.1213 40.9897 10.9577 40.7722 10.7851 40.558C10.5144 40.2129 10.2109 39.8948 9.88363 39.6059C9.1904 38.999 8.4109 38.5352 7.56891 38.1722C6.42642 37.681 5.2393 37.434 3.99566 37.5114C3.66541 37.5295 3.33814 37.5709 3.02276 37.6634C2.87698 37.7051 2.73119 37.7554 2.60921 37.8509C2.40391 38.0053 2.34739 38.2165 2.43962 38.4548C2.48722 38.5735 2.54375 38.6866 2.63301 38.7821C2.87995 39.0466 3.12392 39.3147 3.37979 39.5705C3.75169 39.9484 4.12955 40.3203 4.51037 40.6922C4.98939 41.156 5.47435 41.6112 5.99204 42.031C6.55435 42.483 7.14642 42.8849 7.81288 43.1643C8.88098 43.6106 9.96694 43.6882 11.0707 43.3937C11.0707 43.3937 11.5676 43.3639 11.7997 43.0426C11.8146 43.0456 11.8265 43.0483 11.8413 43.0545C11.88 43.0694 11.9217 43.0843 11.9574 43.1018C12.5613 43.3875 13.1534 43.6939 13.7246 44.0364C13.9865 44.1908 14.2453 44.3514 14.4476 44.5838C14.5458 44.6995 14.6499 44.8096 14.7511 44.9227C15.1379 45.3452 15.5574 45.7382 15.9977 46.1009V45.7052C15.8698 45.5802 15.7686 45.4314 15.6794 45.274C15.5485 45.0357 15.4711 44.7772 15.4443 44.5064C15.4414 44.4588 15.4503 44.435 15.4741 44.4202C15.5901 44.435 15.7181 44.4231 15.8549 44.3726C15.9055 44.3544 15.9501 44.3309 15.9977 44.3008V35.9077C15.7835 36.03 15.605 36.1934 15.4384 36.3781C15.0962 36.7557 14.8404 37.1933 14.641 37.6601Z" fill="#1D1D1D"/>
  <path d="M13.377 27.7924C14.0214 27.2818 13.9643 26.591 13.5564 26.2932C13.1485 25.9954 12.5897 26.3137 12.5897 26.3137C10.8237 27.2447 10.7921 28.973 10.7921 28.973C10.8522 28.8236 12.7326 28.3026 13.377 27.7924Z" fill="#D83341"/>
  <path d="M13.4351 24.3071C13.7321 23.9301 13.6065 23.5455 13.3346 23.4318C13.0626 23.3176 12.7886 23.574 12.7886 23.574C11.9112 24.341 12.1266 25.3267 12.1266 25.3267C12.1406 25.2339 13.1382 24.6841 13.4351 24.3071Z" fill="#D83341"/>
  <path d="M13.5405 34.863C12.7907 36.1106 13.4238 37.2004 13.4238 37.2004C13.4051 37.0849 14.381 36.0493 14.5898 35.4878C14.799 34.9258 14.5024 34.5167 14.1355 34.4849C13.7687 34.4534 13.5405 34.863 13.5405 34.863Z" fill="#D83341"/>
  <path d="M10.3122 27.3936C10.3122 27.3936 11.6944 26.3556 11.4148 24.3791C11.4148 24.3791 11.3457 23.7398 10.8652 23.5836C10.385 23.4271 9.79149 23.7859 9.75519 24.6068C9.71889 25.4282 10.3978 27.2574 10.3122 27.3936Z" fill="#D83341"/>
  <path d="M3.19823 36.3669C3.70253 36.3889 4.82568 35.9721 4.90929 36.0248C4.90929 36.0248 4.27199 35.1759 3.0584 35.3476C3.0584 35.3476 2.66567 35.3902 2.56987 35.685C2.47377 35.9798 2.69393 36.3446 3.19823 36.3669Z" fill="#D83341"/>
  <path d="M21.9905 27.0938L22.5082 27.1411C23.5882 27.2098 24.6334 27.0762 25.6045 26.8278C29.2257 23.6746 28.1326 21.4251 26.8824 20.2183C25.999 19.3656 24.7949 18.9125 23.5703 18.9991C23.0402 19.0365 22.59 19.1675 22.2086 19.3689C21.2773 21.135 20.3601 23.66 20.751 26.3261C20.751 26.3261 20.7492 26.3244 20.7463 26.3205V26.3217L20.7492 26.3247L20.7519 26.3276C20.7519 26.3276 20.5558 26.5419 20.1453 26.7471C20.5526 27.1994 20.987 27.6248 21.4451 28.0265C21.6716 27.3928 21.9869 27.0923 21.9869 27.0923C21.9881 27.0929 21.9893 27.0935 21.9905 27.0938Z" fill="white"/>
  <path d="M37.2189 20.9587C35.811 20.2416 34.6897 20.3211 34.6897 20.3211C35.4543 18.425 37.2394 17.7317 38.5872 18.8025C39.9347 19.873 38.6268 21.6757 37.2189 20.9587ZM35.4034 14.7042C36.9625 12.9544 38.2109 14.1213 38.451 14.6461C38.6911 15.171 38.3778 16.5178 36.9309 16.9716C35.4838 17.425 34.3779 18.394 34.3779 18.394C34.3779 18.394 33.8444 16.4539 35.4034 14.7042ZM34.6129 11.4115C34.9958 11.1455 35.5442 11.2731 35.8378 11.6962C36.1315 12.1193 36.0592 12.6777 35.6763 12.9437C35.2934 13.2094 34.7447 13.0818 34.4511 12.6587C34.1574 12.2356 34.23 11.6772 34.6129 11.4115ZM33.4609 15.3682C32.97 15.7092 32.2667 15.5455 31.8903 15.0032C31.5139 14.4608 31.6067 13.7446 32.0977 13.404C32.5886 13.0633 33.2916 13.227 33.668 13.7693C34.0446 14.3117 33.9518 15.0276 33.4609 15.3682ZM28.6526 12.886C28.6526 12.886 29.7124 11.8667 30.2878 10.4639C30.8632 9.06074 32.2318 8.86349 32.7344 9.14762C33.2369 9.43146 34.2931 10.7748 32.4166 12.1791C30.5401 13.5831 28.6526 12.886 28.6526 12.886ZM26.7592 12.4108C26.7592 12.4108 26.9339 11.3005 26.3397 9.83668C25.7456 8.37257 27.6533 7.22294 28.6047 8.657C29.5565 10.0914 28.7136 11.8107 26.7592 12.4108ZM39.7282 16.0005V8.00037H31.9986V-1.33514e-05C25.8217 -1.33514e-05 20.4636 3.49886 17.7946 8.62219C17.9552 8.58947 18.1218 8.57429 18.2887 8.57757C19.3836 8.58947 20.6481 9.32732 20.4131 12.8021C20.3774 13.3409 20.3294 13.8494 20.2789 14.3317C20.2789 14.3325 20.2786 14.3337 20.2786 14.3352C20.5701 13.9357 20.8983 13.5334 21.2702 13.1294C21.8462 12.5037 22.3514 11.8152 22.7507 11.0643C23.0928 10.4201 23.4264 9.63258 23.5921 8.79089C23.5921 8.79089 26.0062 10.0479 25.4061 13.2891C26.2897 13.3049 27.2983 13.5316 28.45 14.03C28.45 14.03 34.0824 16.3548 34.2199 21.9342C34.2232 22.0747 34.2119 22.2133 34.1934 22.3502C37.9529 21.1292 39.4563 23.8729 39.4563 23.8729C38.6182 24.0571 37.8381 24.4076 37.2014 24.7637C36.4593 25.179 35.7822 25.6991 35.169 26.2885C34.7727 26.6693 34.3773 27.0067 33.9837 27.3069C33.9845 27.3066 33.9851 27.3066 33.986 27.3063C34.4677 27.2471 34.9738 27.1876 35.515 27.14C38.9811 26.8276 39.7488 28.0772 39.7848 29.1718C39.7934 29.4753 39.7488 29.7728 39.6538 30.0557C44.6254 27.3393 47.9991 22.0643 47.9991 16.0005H39.7282Z" fill="white"/>
  <path d="M20.6993 26.2667C20.5916 26.1406 20.3259 25.8142 20.0084 25.3227C20.2087 25.7118 20.452 26.0219 20.6993 26.2667Z" fill="#D83341"/>
  <path d="M20.6986 26.2026C20.648 26.0807 20.5885 25.9438 20.523 25.795L20.5219 25.7939C20.5867 26.025 20.6563 26.1982 20.7224 26.2904C20.7146 26.283 20.7069 26.2743 20.6992 26.2666C20.7224 26.2937 20.7387 26.3124 20.7462 26.3205V26.3187C20.7313 26.283 20.7164 26.2413 20.6986 26.2026Z" fill="#D83341"/>
  <path d="M23.592 8.79075C23.4263 9.63244 23.0928 10.4203 22.7506 11.0641C22.3513 11.8154 21.8461 12.5035 21.2701 13.1292C20.8982 13.5333 20.5701 13.9355 20.2785 14.3351C19.9542 17.3499 19.4193 19.3457 19.5621 21.6178V21.6208C19.5624 21.625 19.563 21.6294 19.563 21.6336C19.6385 22.835 19.9033 24.1108 20.4874 25.6612C20.4874 25.6618 20.4877 25.6627 20.4877 25.6627C20.4885 25.6653 20.4903 25.6677 20.4903 25.6701C20.5558 25.8456 20.6242 26.0212 20.6986 26.2027C20.7165 26.2413 20.7313 26.283 20.7462 26.3187V26.3205C20.7492 26.3244 20.7513 26.3261 20.7513 26.3261C20.36 23.6603 21.2773 21.135 22.2088 19.3689C23.0092 17.8515 23.8199 16.8944 23.8199 16.8944C24.7479 15.4865 25.2201 14.2937 25.406 13.289C26.0061 10.0481 23.592 8.79075 23.592 8.79075Z" fill="#D83341"/>
  <path d="M20.5201 25.7921C20.291 25.2744 19.9756 24.6109 19.5948 23.9266C19.5933 23.9266 19.5939 23.9261 19.5933 23.9255C19.593 23.9246 19.5918 23.9237 19.5918 23.9237C19.33 23.4536 19.0355 22.9746 18.7141 22.5223C18.7112 22.5223 18.7112 22.5194 18.7112 22.5194C18.1131 21.6804 17.4199 20.9395 16.6553 20.5468C16.9825 21.6655 17.4348 22.7336 17.9882 23.7362C18.5892 24.8252 19.3151 25.8338 20.1452 26.7472C20.5558 26.5419 20.7522 26.3277 20.7522 26.3277L20.7492 26.3247L20.7462 26.3217V26.3205C20.7388 26.3125 20.5867 26.0251 20.5219 25.7939L20.5201 25.7921Z" fill="#D83341"/>
  <path d="M25.6047 26.8279C24.6336 27.076 23.5881 27.2096 22.5081 27.1412L24.9555 27.3646C25.1884 27.1828 25.4024 27.0043 25.6047 26.8279Z" fill="#D83341"/>
  <path d="M34.1935 22.3503C33.3589 22.6213 32.4146 23.0854 31.3495 23.8209C31.3495 23.8209 28.9074 25.9839 25.6046 26.828C25.4023 27.0044 25.1884 27.1829 24.9557 27.3647L22.5083 27.1413C22.3363 27.13 22.1641 27.1154 21.9906 27.0937C22.0135 27.1026 22.0385 27.1136 22.0614 27.1222C22.9567 27.4679 23.7582 27.7134 24.5038 27.883C24.5085 27.8842 24.5139 27.8854 24.5186 27.8866C27.8801 28.6452 30.0609 27.8125 33.9837 27.307C34.3774 27.0068 34.7728 26.6694 35.1691 26.2883C35.7823 25.6992 36.4594 25.1788 37.2014 24.7638C37.8381 24.4076 38.6182 24.0568 39.4561 23.873C39.4561 23.873 37.953 21.1292 34.1935 22.3503Z" fill="#D83341"/>
  <path d="M21.9863 27.0928C21.9863 27.0928 21.9884 27.0945 21.9915 27.0972L21.9897 27.0951C21.9887 27.0945 21.9874 27.0938 21.9863 27.0928Z" fill="#D83341"/>
  <path d="M21.988 27.093C21.988 27.093 21.9869 27.093 21.9862 27.093C21.9877 27.0937 21.9888 27.0945 21.9898 27.0956L21.988 27.093Z" fill="#D83341"/>
  <path d="M21.9869 27.0922L21.9879 27.0935L21.9907 27.0938C21.9894 27.0932 21.9882 27.0926 21.9869 27.0922Z" fill="#D83341"/>
  <path d="M21.9913 27.0938L21.9877 27.0934C21.9891 27.0938 21.9902 27.0938 21.9913 27.0938Z" fill="#D83341"/>
  <path d="M25.8399 29.0493C25.839 29.0487 25.8378 29.0478 25.8369 29.0469C25.1288 28.5652 24.3553 28.1484 23.662 27.8152C23.6594 27.8152 23.6573 27.8137 23.6549 27.8128C23.6543 27.8128 23.6534 27.8122 23.6528 27.8122C23.0224 27.512 22.4571 27.2796 22.0614 27.1219C22.0387 27.1136 22.0135 27.1026 21.9905 27.0937C21.9897 27.0937 21.9888 27.0937 21.9879 27.0934C21.9879 27.0937 21.9894 27.0955 21.9894 27.0955C21.9897 27.0958 21.9905 27.097 21.9905 27.097C21.9882 27.0949 21.9864 27.0934 21.9864 27.0934H21.9879L21.987 27.0922C21.987 27.0922 21.6716 27.3927 21.4452 28.0264C22.7427 29.1689 24.2243 30.1001 25.8429 30.7726H25.8458C26.5569 31.0701 27.2918 31.3173 28.0505 31.5104C27.7324 30.5741 26.8533 29.7422 25.8399 29.0493Z" fill="#D83341"/>
  <path d="M32.7345 9.14755C32.232 8.86341 30.8634 9.06067 30.2879 10.4638C29.7125 11.8666 28.6525 12.8859 28.6525 12.8859C28.6525 12.8859 30.5402 13.5833 32.4167 12.179C34.2929 10.775 33.237 9.43168 32.7345 9.14755Z" fill="#D83341"/>
  <path d="M38.4511 14.6462C38.211 14.1211 36.9626 12.9542 35.4035 14.7042C33.8445 16.454 34.378 18.3941 34.378 18.3941C34.378 18.3941 35.4839 17.4251 36.931 16.9714C38.3779 16.5179 38.6912 15.171 38.4511 14.6462Z" fill="#D83341"/>
  <path d="M21.9905 27.0938C22.1639 27.1152 22.3365 27.1301 22.5082 27.1411L21.9905 27.0938Z" fill="#1D1D1D"/>
  <path d="M26.8825 20.2184C28.1324 21.4251 29.2255 23.6747 25.6047 26.8278C28.9075 25.9837 31.3495 23.8208 31.3495 23.8208C32.4147 23.0853 33.359 22.6214 34.1935 22.3504C34.2117 22.2132 34.2233 22.0749 34.22 21.9345C34.0826 16.3547 28.4502 14.0302 28.4502 14.0302C27.2982 13.5315 26.2899 13.3051 25.4062 13.2891C25.22 14.2935 24.7478 15.4866 23.8201 16.8944C23.8201 16.8944 23.0091 17.8516 22.2087 19.3689C22.5902 19.1675 23.0403 19.0366 23.5702 18.9991C24.7951 18.9125 25.9992 19.3657 26.8825 20.2184Z" fill="#1D1D1D"/>
  <path d="M20.4878 25.6628C20.4878 25.6622 20.4875 25.6619 20.4875 25.6613C19.9031 24.1106 19.6386 22.8349 19.5631 21.6338C19.5628 21.6293 19.5622 21.6251 19.5619 21.621V21.618C19.4194 19.3458 19.9543 17.35 20.2786 14.3352C20.2786 14.3337 20.2789 14.3326 20.2789 14.3317C20.3295 13.8494 20.3771 13.3406 20.4131 12.8021C20.6481 9.32733 19.3837 8.58947 18.2885 8.57757C18.1219 8.5743 17.9553 8.58947 17.7946 8.6222C16.6462 10.8298 15.9976 13.3406 15.9976 16.0005C15.9976 17.5803 16.2267 19.1069 16.6554 20.5469C17.4197 20.9396 18.1132 21.6805 18.711 22.5195C18.711 22.5195 18.711 22.5225 18.7142 22.5225C19.0356 22.9747 19.3298 23.4537 19.5916 23.9238C19.5916 23.9238 19.5928 23.9244 19.5934 23.9253C19.5937 23.9259 19.5934 23.9268 19.5949 23.9268C19.9754 24.6111 20.2908 25.2745 20.5199 25.7922L20.522 25.794L20.5232 25.7952C20.5883 25.944 20.6481 26.0808 20.6984 26.2025C20.624 26.0213 20.5559 25.8458 20.4902 25.6699C20.4902 25.6679 20.4884 25.6652 20.4878 25.6628Z" fill="#1D1D1D"/>
  <path d="M35.5151 27.1399C34.9736 27.1875 34.4679 27.2471 33.9859 27.3066C33.985 27.3066 33.9844 27.3069 33.9838 27.3069C30.0606 27.8126 27.8801 28.6454 24.5187 27.8867C24.5136 27.8855 24.5086 27.884 24.5035 27.8829C23.7579 27.7136 22.9567 27.4678 22.0612 27.1221C22.4569 27.2798 23.0222 27.5118 23.6529 27.8123C23.6535 27.8123 23.6541 27.8126 23.6547 27.8129C23.6571 27.8135 23.6594 27.8153 23.6618 27.8153C24.3551 28.1485 25.1286 28.5651 25.8367 29.0471C25.8379 29.0477 25.8388 29.0486 25.8397 29.0491C26.8531 29.7421 27.7322 30.5742 28.0503 31.5106C29.0083 31.7545 30.002 31.9122 31.0225 31.9717C31.3468 31.9925 31.6711 32.0015 31.9984 32.0015C33.4116 32.0015 34.7862 31.817 36.0893 31.4719C37.3479 31.1416 38.5409 30.6626 39.6537 30.0557C39.7489 29.773 39.7935 29.4755 39.7846 29.172C39.7489 28.0771 38.9813 26.8275 35.5151 27.1399Z" fill="#1D1D1D"/>
  <path d="M26.7592 12.4109C28.7136 11.8108 29.5565 10.0914 28.605 8.65702C27.6532 7.22296 25.7455 8.37258 26.3396 9.83669C26.9338 11.3005 26.7592 12.4109 26.7592 12.4109Z" fill="#1D1D1D"/>
  <path d="M34.6897 20.3211C34.6897 20.3211 35.8111 20.2416 37.2189 20.9587C38.6268 21.6757 39.9347 19.873 38.5872 18.8025C37.2395 17.7317 35.4543 18.425 34.6897 20.3211Z" fill="#1D1D1D"/>
  <path d="M33.4609 15.3684C33.9518 15.0277 34.0446 14.3119 33.6682 13.7692C33.2919 13.2271 32.5885 13.0634 32.0976 13.4041C31.6067 13.7448 31.5142 14.4606 31.8905 15.003C32.2669 15.5457 32.9699 15.7093 33.4609 15.3684Z" fill="#1D1D1D"/>
  <path d="M35.6763 12.9436C36.0592 12.6776 36.1315 12.1191 35.8379 11.6963C35.5442 11.273 34.9959 11.1456 34.613 11.4113C34.2301 11.677 34.1575 12.2354 34.4511 12.6585C34.7448 13.0816 35.2934 13.2092 35.6763 12.9436Z" fill="#1D1D1D"/>
  <path d="M38.9195 39.228C38.3789 39.6436 37.7259 39.7894 37.096 40.0116C36.4316 40.2458 35.783 40.5305 35.1737 40.8852C34.8325 41.0839 34.5016 41.302 34.1871 41.5406C34.1645 41.5579 34.0321 41.6436 33.9387 41.7173C33.8974 41.7501 33.8361 41.7212 33.8358 41.6685V41.6671C33.8316 41.0568 34.1229 40.4451 34.413 39.9242C34.7988 39.23 35.288 38.5895 35.839 38.0182C36.3629 37.4747 36.9606 36.9683 37.6452 36.6401C38.3075 36.3227 39.2295 36.1427 39.724 36.8436C40.2911 37.6484 39.5741 38.7246 38.9195 39.228ZM37.0856 45.5027C33.9824 48.3652 30.9102 47.3295 30.9102 47.3295C34.3778 45.8452 36.0092 43.0488 36.0092 43.0488C32.9003 43.9574 31.1414 46.4584 31.1414 46.4584C31.7582 43.6608 33.8938 42.2097 33.8938 42.2097C36.8639 39.856 39.5428 41.1503 39.5428 41.1503C38.3376 44.1484 37.0856 45.5027 37.0856 45.5027ZM34.3778 50.8983C32.6153 53.2773 30.458 53.7152 30.458 53.7152C26.0642 54.9842 23.1318 50.4603 23.1877 50.4838C28.2099 52.6016 31.6267 50.3184 31.6267 50.3184C29.3072 49.2015 23.6724 49.9971 23.6724 49.9971C24.3433 49.4157 25.0948 48.9936 25.8372 48.6868C28.0034 47.7913 30.427 47.7526 32.6427 48.5184C34.2508 49.0742 35.3689 49.7573 35.3689 49.7573C34.928 50.1697 34.3778 50.8983 34.3778 50.8983ZM10.8655 23.5833C11.3457 23.7398 11.4148 24.3789 11.4148 24.3789C11.6947 26.3557 10.3121 27.3937 10.3121 27.3937C10.3978 27.2574 9.71887 25.428 9.75517 24.6068C9.79177 23.7856 10.385 23.4271 10.8655 23.5833ZM12.59 26.3137C12.59 26.3137 13.1484 25.9953 13.5563 26.2932C13.9645 26.591 14.0213 27.2818 13.3769 27.7924C12.7328 28.3026 10.8524 28.8236 10.792 28.973C10.792 28.973 10.8239 27.2446 12.59 26.3137ZM12.7884 23.5738C12.7884 23.5738 13.0627 23.3176 13.3344 23.4316C13.6063 23.5455 13.7322 23.9302 13.4352 24.3072C13.1383 24.6842 12.1407 25.234 12.1267 25.3268C12.1267 25.3268 11.9113 24.3408 12.7884 23.5738ZM14.5899 35.4878C14.3811 36.0492 13.4052 37.0849 13.4239 37.2006C13.4239 37.2006 12.7908 36.1105 13.5406 34.863C13.5406 34.863 13.7685 34.4533 14.1356 34.4852C14.5024 34.5167 14.7991 34.9258 14.5899 35.4878ZM2.5697 35.6851C2.6658 35.3902 3.05823 35.3477 3.05823 35.3477C4.27183 35.176 4.90942 36.0245 4.90942 36.0245C4.82582 35.9722 3.70237 36.389 3.19807 36.367C2.69407 36.3447 2.4736 35.9799 2.5697 35.6851ZM39.2313 33.73C39.2938 33.8848 39.3206 34.0543 39.2998 34.2358C39.2075 35.0005 38.4221 35.5271 37.8062 35.8573C35.6135 37.0355 34.8726 38.3149 34.6495 38.8355C34.6257 38.8891 34.5454 38.8742 34.5454 38.8147C34.5483 38.66 34.5602 38.5023 34.5662 38.3625C34.5751 38.1453 34.5867 37.9251 34.6078 37.7079C34.6465 37.3092 34.709 36.9162 34.8012 36.5268C35.0214 35.6223 35.423 34.7505 36.0806 34.0779C36.3007 33.8547 36.5417 33.6527 36.7976 33.4712C37.0624 33.2867 37.354 33.1201 37.6634 33.0398C36.1877 32.4775 34.6078 32.1294 32.9596 32.0312C34.3817 35.2772 32.9536 38.1631 32.9536 38.1631C33.391 35.777 32.8643 33.2659 32.5162 32.0104C32.3437 32.0044 32.1711 32.0014 31.9986 32.0014C31.9986 32.897 31.9242 33.7747 31.7814 34.6286C33.5368 38.1807 31.7992 41.3645 31.7992 41.3645C32.3139 39.0914 31.9391 36.6636 31.6475 35.3515C31.3857 36.5714 30.987 37.7407 30.4663 38.8415C30.859 39.1241 31.1298 39.5883 31.1655 40.0703C31.2071 40.6088 31.0911 41.1473 30.9186 41.6531C29.3179 46.3926 24.3879 47.3295 24.3879 47.3295C25.0514 46.9966 25.4471 46.2587 25.7506 45.6161C25.9618 45.1668 26.1403 44.7057 26.304 44.2385C25.459 44.9526 24.5367 45.5774 23.5519 46.107H23.5489C22.5492 46.6425 21.4901 47.0769 20.3773 47.392C20.3743 47.3953 20.3714 47.3953 20.3714 47.3953C19.6216 47.6065 18.851 47.7672 18.0596 47.8683C18.137 47.8891 18.2173 47.907 18.2947 47.9246C18.616 47.9963 18.9403 48.0528 19.2676 48.1004C20.5707 48.2819 21.9006 48.2521 23.2008 48.0647C23.8524 47.9665 24.495 47.8296 25.1258 47.6452C25.7565 47.4637 26.3724 47.2346 26.9704 46.9668C27.5684 46.6961 28.1397 46.3777 28.6871 46.0177C29.2313 45.6577 29.7404 45.2469 30.2134 44.7979C30.6805 44.3424 31.103 43.8458 31.4779 43.3103C31.6624 43.0395 31.8379 42.7599 32.0045 42.4772C32.1711 42.1916 32.3258 41.903 32.4716 41.6055C33.0577 40.4213 33.501 39.1598 33.8462 37.8713C34.1943 36.5833 34.4353 35.2623 34.5454 33.9205C34.5751 35.2679 34.4204 36.6187 34.1496 37.943C34.0098 38.6035 33.8432 39.261 33.6468 39.9096C33.5457 40.2339 33.4356 40.5582 33.3166 40.8765C33.1976 41.1949 33.0667 41.5103 32.9268 41.8197C32.6442 42.4415 32.3199 43.0485 31.945 43.6227C31.5672 44.2028 31.1238 44.7384 30.6359 45.2293C30.145 45.7172 29.6065 46.1546 29.0382 46.5414C28.464 46.9282 27.86 47.2614 27.2352 47.55C26.6074 47.8296 25.9586 48.0677 25.2983 48.2551C24.6378 48.4366 23.9654 48.5764 23.2841 48.6657C22.6058 48.752 21.9185 48.7966 21.2342 48.7847C21.0646 48.7787 20.892 48.7787 20.7195 48.7668L20.4636 48.7549L20.2077 48.7341C19.8656 48.7014 19.5264 48.6565 19.1899 48.5973C18.851 48.5377 18.5178 48.4634 18.1846 48.3771C17.8543 48.2878 17.5271 48.1896 17.2057 48.0733C17.1254 48.0439 17.0451 48.0141 16.9677 47.9844L16.938 47.9725H16.935C16.6256 47.9903 16.3132 47.9989 15.9978 47.9989V47.5708C15.7776 47.4726 15.5575 47.3685 15.3403 47.2584C14.132 46.6515 12.9809 45.9553 11.8384 45.2442C13.0493 45.83 14.2424 46.4521 15.4742 46.9728C15.6467 47.0472 15.8223 47.1215 15.9978 47.19V46.101C15.5575 45.7381 15.1379 45.3453 14.7512 44.9228C14.65 44.8098 14.5459 44.6997 14.4477 44.5837C14.2454 44.3516 13.9865 44.1909 13.7247 44.0362C13.1535 43.6941 12.5614 43.3873 11.9574 43.102C11.9217 43.0842 11.8801 43.0693 11.8414 43.0544C11.8262 43.0485 11.8146 43.0455 11.7997 43.0425C11.5677 43.3638 11.0708 43.3936 11.0708 43.3936C9.96671 43.6881 8.88105 43.6105 7.81294 43.1642C7.14649 42.8848 6.55442 42.4829 5.99211 42.0309C5.47442 41.6114 4.98945 41.1559 4.51044 40.6921C4.12961 40.3202 3.75176 39.9483 3.37986 39.5704C3.12369 39.3145 2.88002 39.0468 2.63307 38.782C2.54382 38.6868 2.48729 38.5737 2.43968 38.4547C2.34745 38.2167 2.40398 38.0054 2.60927 37.8507C2.73126 37.7555 2.87704 37.7049 3.02283 37.6633C3.3382 37.5711 3.66548 37.5294 3.99573 37.5113C5.23937 37.4342 6.42649 37.6811 7.56897 38.1721C8.41096 38.535 9.19047 38.9989 9.8837 39.6061C10.211 39.8947 10.5144 40.2131 10.7849 40.5582C10.9578 40.7721 11.1214 40.9896 11.2761 41.2157C11.407 41.4091 11.5287 41.6114 11.6391 41.8167C11.7432 42.0131 11.8444 42.2124 11.889 42.4296C11.9006 42.4948 11.9039 42.5572 11.9069 42.623C11.9069 42.6409 11.8979 42.7361 11.9128 42.745C11.9307 42.7569 11.9515 42.7658 11.9723 42.7747C12.1211 42.8372 12.2639 42.9086 12.4067 42.98C12.7459 43.1556 13.0791 43.3311 13.4183 43.5066C13.4688 43.5334 13.5224 43.5572 13.576 43.584C13.6236 43.5334 13.573 43.5066 13.5551 43.4769C13.3588 43.1942 13.1594 42.9086 12.9601 42.6289C12.6477 42.1946 12.3769 41.7391 12.1032 41.2812C11.7938 40.7605 11.4933 40.2339 11.2077 39.6984C10.9161 39.1476 10.6186 38.5975 10.3568 38.0319C10.3032 37.9132 10.211 37.8597 10.092 37.824C9.69626 37.7079 9.30056 37.5856 8.90485 37.461C8.50617 37.3301 8.11344 37.1783 7.72666 37.0058C7.48567 37.2378 6.99148 37.2408 6.53955 36.9939C6.01888 36.7112 5.74516 36.2054 5.92962 35.8663C6.11706 35.5241 6.68831 35.4765 7.20897 35.7592C7.62253 35.9823 7.87542 36.3453 7.87542 36.6547C7.87542 36.6844 7.87245 36.7112 7.86947 36.738C8.37526 36.9522 8.88998 37.1426 9.41362 37.3063C9.55048 37.3479 9.68734 37.3896 9.8242 37.4312L10.089 37.4994L9.95808 37.1992L9.94916 37.1783C9.94618 37.1694 9.94023 37.1605 9.93725 37.1516C9.73196 36.6904 9.52965 36.2322 9.32436 35.774C9.28568 35.6877 9.24105 35.6074 9.19047 35.5301C8.8394 35.0094 8.44072 34.5304 7.97658 34.1109C7.56897 33.7419 7.13757 33.4057 6.66153 33.1291C6.63773 33.1171 6.6169 33.1052 6.59608 33.0963C6.43541 33.3373 6.11707 33.6676 5.525 33.7803C4.45689 34.0871 3.44234 33.9175 2.50216 33.2124C2.10646 32.9119 1.81191 32.5221 1.61852 32.0609C1.53522 31.8646 1.49356 31.6593 1.48166 31.4451C1.44893 30.8649 1.82679 30.4156 2.25225 30.2104C2.70448 29.9932 3.18647 29.9307 3.68333 29.9664C4.69491 30.0408 5.49524 30.499 6.10219 31.3082C6.16169 31.3826 6.21525 31.4599 6.2688 31.5403C6.2688 31.5403 6.76834 32.1829 6.73591 32.8167C6.75674 32.8315 6.78054 32.8464 6.80732 32.8613C7.10186 33.0249 7.37558 33.2243 7.64335 33.4296C7.86352 33.5991 8.07476 33.7836 8.27708 33.977C8.28006 33.977 8.71741 34.3754 8.71741 34.3754L8.54187 33.8758C8.27708 33.1915 8.01526 32.5043 7.78914 31.8081C7.56897 31.1327 7.38451 30.4484 7.22682 29.7581C7.22087 29.7343 7.21195 29.7105 7.20897 29.6837C7.206 29.6123 7.19112 29.5528 7.16434 29.5052C6.6526 29.3803 6.33723 29.056 6.33723 29.056C6.03971 28.8298 5.79276 28.5561 5.59045 28.2289C5.14714 27.5148 4.99838 26.7323 5.04598 25.9052C5.07574 25.453 5.17094 25.0186 5.37623 24.614C5.51012 24.3462 5.68863 24.1141 5.94152 23.9445C6.29558 23.7035 6.67641 23.6559 7.07509 23.7928C7.55112 23.9564 7.89923 24.2837 8.12832 24.727C8.32468 25.1049 8.46452 25.5125 8.53295 25.932C8.58353 26.2295 8.59245 26.53 8.57758 26.8275C8.54782 27.3244 8.45559 27.8361 8.30683 28.3092C8.16402 28.7644 7.926 29.2464 7.47377 29.4606C7.49162 29.5558 7.51215 29.651 7.53625 29.7462C7.68798 30.3978 7.86352 31.0434 8.06881 31.6801L8.09262 31.7456V31.7545L8.28898 32.3525C8.28898 32.3525 8.33956 32.171 8.34551 32.1413C8.41096 31.8259 8.5151 31.5224 8.65196 31.2309C8.69063 31.1476 8.72634 31.0613 8.76502 30.975C8.78287 30.9363 8.79179 30.8947 8.78287 30.856C8.56568 30.6358 8.54485 30.2282 8.75312 29.8742C8.99113 29.4665 9.43742 29.288 9.74982 29.4725C10.0592 29.654 10.1187 30.13 9.88073 30.5376C9.69031 30.859 9.36899 31.0375 9.08932 31.0047L9.07146 31.0404C8.98816 31.2428 8.88997 31.4391 8.80964 31.6444C8.6341 32.0907 8.56568 32.5548 8.60435 33.0338C8.61923 33.1767 8.64898 33.3165 8.70224 33.4504C8.97923 34.1555 9.26188 34.8606 9.56535 35.5568C9.77362 36.0299 9.97891 36.503 10.1899 36.976L10.4222 37.4521L10.449 37.0504L10.452 36.9939C10.4787 36.1965 10.6156 35.414 10.8536 34.6494C10.8655 34.6104 10.8804 34.572 10.8923 34.5304C10.9012 34.5036 10.9042 34.4798 10.8983 34.456C10.3211 34.1079 10.2675 33.614 10.2675 33.614C10.2556 33.5724 10.2467 33.5307 10.2378 33.4861C10.1604 33.0695 10.1277 32.65 10.2169 32.2276C10.3478 31.5879 10.6424 31.0404 11.1303 30.6061C11.407 30.3621 11.7343 30.2342 12.1032 30.2371C12.57 30.2401 13.0315 30.5257 13.2249 31.0434C13.326 31.3201 13.335 31.6028 13.2933 31.8914C13.2189 32.4269 13.0136 32.9148 12.725 33.37C12.5406 33.6616 12.3323 33.9264 12.0616 34.1436C11.7343 34.4498 11.4159 34.5274 11.2255 34.5423C11.2077 34.5691 11.1928 34.5985 11.1809 34.6375C11.1154 34.8636 11.0411 35.0868 10.9875 35.3158C10.8358 35.9615 10.7465 36.616 10.7584 37.2795V37.3777L10.7673 37.7168L11.1095 37.818C11.2523 37.8656 11.3921 37.9221 11.5287 37.9846C12.1716 38.2792 12.5614 38.779 12.7102 39.4693C12.7932 39.8531 12.8083 40.2398 12.7607 40.6266C12.731 40.8706 12.6864 41.1116 12.6358 41.3496C12.615 41.4567 12.6298 41.54 12.6834 41.6352C12.975 42.141 13.3201 42.6111 13.6503 43.0898C14.0133 43.6105 14.415 44.1017 14.8404 44.5718L15.1707 44.908L15.1558 44.6283C15.1439 44.539 15.132 44.4498 15.1231 44.3576C15.1201 44.3278 15.1112 44.301 15.0963 44.2772C14.8285 44.1076 14.6679 43.8518 14.6679 43.8518C14.4745 43.5929 14.3436 43.2954 14.2424 42.98C14.055 42.4058 13.9717 41.8134 13.9627 41.2127C13.9419 39.981 14.1502 38.7939 14.6411 37.66C14.8404 37.1932 15.0963 36.7556 15.4384 36.378C15.6051 36.1935 15.7836 36.0299 15.9978 35.9079V16.0007C7.16137 16.0007 0 23.162 0 32.0014C0 39.5496 5.22747 45.8779 12.2609 47.5619L11.9336 46.5146C11.9336 46.5146 13.2606 47.2405 14.7988 47.9546H14.8015C15.1915 47.9844 15.5872 47.9989 15.9859 47.9989H14.897C15.8282 48.4306 16.8249 48.8531 17.6461 49.106C19.8537 49.7814 23.9833 51.745 25.1377 55.7318L26.1017 59.5818C26.1017 59.5818 22.1651 57.8026 20.3505 56.8833C18.5357 55.9669 14.5905 54.1163 13.1951 50.5311L12.4007 47.9989H8.65196C8.65196 56.8357 15.8133 64 24.6497 64C33.4862 64 40.6505 56.8357 40.6505 47.9989H47.9874C47.9874 41.7691 44.4261 36.375 39.2313 33.73Z" fill="white"/>
  <path d="M15.474 44.4201C15.4502 44.435 15.4413 44.4588 15.4443 44.5064C15.4711 44.7771 15.5484 45.0357 15.6793 45.274C15.7686 45.4314 15.8697 45.5801 15.9977 45.7051V44.3011C15.9501 44.3309 15.9054 44.3544 15.8549 44.3725C15.718 44.4231 15.5901 44.435 15.474 44.4201Z" fill="white"/>
  <path d="M12.1508 38.8921C12.014 38.7106 11.8712 38.5499 11.6808 38.419C11.6748 38.4157 11.6659 38.4101 11.6599 38.4038C11.4249 38.2465 11.166 38.1063 10.8893 38.0319C10.8626 38.0233 10.8328 38.0174 10.8031 38.0084C10.7971 38.0084 10.7912 38.0055 10.7852 38.0055C10.7644 38.0025 10.7436 37.9995 10.7257 37.9906L10.7317 38.0055C10.7406 38.0263 10.7495 38.0438 10.7584 38.065C10.8774 38.3476 11.0024 38.627 11.1333 38.907C11.2523 39.1301 11.3684 39.3532 11.4903 39.5764C11.5409 39.6683 11.5915 39.7638 11.6451 39.8561C11.7551 40.0584 11.8712 40.2607 11.9842 40.463C12.0973 40.6653 12.2282 40.8557 12.3621 41.0461C12.4335 40.7903 12.4751 40.5285 12.4811 40.2634C12.4841 40.0402 12.4692 39.8171 12.4275 39.5972C12.3799 39.3294 12.2877 39.0765 12.1508 38.8921Z" fill="white"/>
  <path d="M36.0804 34.078C35.4229 34.7507 35.0212 35.6221 34.801 36.5266C34.7088 36.9164 34.6463 37.3091 34.6076 37.7078C34.5868 37.9253 34.5749 38.1454 34.566 38.3623C34.56 38.5022 34.5481 38.6598 34.5452 38.8149C34.5452 38.8741 34.6255 38.8892 34.6493 38.8354C34.8724 38.3147 35.6133 37.0354 37.806 35.8572C38.4219 35.5269 39.2073 35.0006 39.2996 34.2357C39.3204 34.0545 39.2936 33.8849 39.2311 33.7299H39.2282C38.7224 33.4713 38.2017 33.242 37.6662 33.0399H37.6632C37.3538 33.12 37.0622 33.2869 36.7974 33.4713C36.5415 33.6525 36.3005 33.8549 36.0804 34.078Z" fill="#D83341"/>
  <path d="M37.6454 36.6401C36.9605 36.9685 36.3628 37.4749 35.8388 38.0182C35.2881 38.5894 34.799 39.23 34.4128 39.9241C34.123 40.4451 33.8317 41.0571 33.8356 41.667V41.6685C33.8362 41.7212 33.8975 41.75 33.9388 41.7173C34.0323 41.6435 34.1647 41.5578 34.187 41.5409C34.5018 41.3019 34.8326 41.0842 35.1739 40.8854C35.7832 40.5305 36.4318 40.2457 37.0962 40.0116C37.726 39.7893 38.3791 39.6438 38.9197 39.2279C39.5739 38.7245 40.2913 37.6487 39.7239 36.8439C39.2297 36.1426 38.3077 36.3229 37.6454 36.6401Z" fill="#D83341"/>
  <path d="M33.8937 42.2099C33.8937 42.2099 31.7581 43.6609 31.1416 46.4582C31.1416 46.4582 32.9003 43.9572 36.0091 43.0486C36.0091 43.0486 34.3778 45.8453 30.9102 47.3297C30.9102 47.3297 33.9824 48.365 37.0858 45.5026C37.0858 45.5026 38.3375 44.1485 39.5428 41.1501C39.5428 41.1501 36.8639 39.8562 33.8937 42.2099Z" fill="#1D1D1D"/>
  <path d="M25.8371 48.6868C25.0948 48.9935 24.3433 49.4157 23.6723 49.9971C23.6723 49.9971 29.3071 49.2015 31.6266 50.3184C31.6266 50.3184 28.2102 52.6016 23.1877 50.4838C23.1317 50.4603 26.0641 54.9842 30.4579 53.7152C30.4579 53.7152 32.6153 53.2773 34.3781 50.8983C34.3781 50.8983 34.9279 50.1696 35.3691 49.7573C35.3691 49.7573 34.2508 49.0742 32.6426 48.5184C30.427 47.7526 28.0034 47.7913 25.8371 48.6868Z" fill="#1D1D1D"/>
  <path d="M12.2609 47.5618H12.2638C13.088 47.7582 13.93 47.8921 14.7987 47.9546C13.2605 47.2405 11.9336 46.5145 11.9336 46.5145L12.2609 47.5618Z" fill="#1D1D1D"/>
  <path d="M20.3506 56.8833C22.1654 57.8026 26.1017 59.5818 26.1017 59.5818L25.1377 55.7318C23.9833 51.745 19.8537 49.7814 17.6461 49.106C16.8249 48.8531 15.8282 48.4306 14.897 47.9992H12.4008L13.1951 50.5311C14.5905 54.1163 18.5357 55.9669 20.3506 56.8833Z" fill="#1D1D1D"/>
  <path d="M24.3878 47.3297C24.3878 47.3297 29.3178 46.3928 30.9184 41.6532C31.091 41.1474 31.207 40.6086 31.1654 40.0704C31.1297 39.5881 30.8589 39.1243 30.4662 38.8416C29.4784 40.9299 28.0503 42.7657 26.3039 44.2384C26.1402 44.7058 25.9617 45.1667 25.7505 45.6159C25.447 46.2586 25.0513 46.9967 24.3878 47.3297Z" fill="#1D1D1D"/>
  <path d="M31.7992 41.3644C31.7992 41.3644 33.5367 38.1809 31.7813 34.6285C31.7427 34.8727 31.698 35.1134 31.6475 35.3514C31.939 36.6635 32.3139 39.0913 31.7992 41.3644Z" fill="#D83341"/>
  <path d="M32.9536 38.1631C32.9536 38.1631 34.3817 35.2771 32.9595 32.0311C32.8108 32.0222 32.665 32.0133 32.5162 32.0103C32.8643 33.2659 33.391 35.777 32.9536 38.1631Z" fill="#D83341"/>
  <path d="M11.8383 45.2441C12.9807 45.9555 14.1322 46.6514 15.3401 47.2586C15.5573 47.3687 15.7775 47.4725 15.9976 47.5707V47.1899C15.8221 47.1217 15.6465 47.0474 15.474 46.973C14.2422 46.4523 13.0492 45.8302 11.8383 45.2441Z" fill="#D83341"/>
  <path d="M17.2056 48.0735C17.527 48.1898 17.8542 48.288 18.1845 48.3772C18.5177 48.4635 18.8509 48.5379 19.1901 48.5974C19.5263 48.6566 19.8655 48.7013 20.2076 48.7343L20.4635 48.7548L20.7194 48.7667C20.8919 48.7786 21.0645 48.7786 21.2341 48.7849C21.9184 48.7968 22.6057 48.7518 23.284 48.6655C23.9654 48.5763 24.6378 48.4368 25.2983 48.255C25.9588 48.0675 26.6074 47.8298 27.2351 47.5498C27.8599 47.2615 28.4639 46.928 29.0381 46.5415C29.6064 46.1548 30.1449 45.7171 30.6358 45.2292C31.1237 44.7383 31.5671 44.2027 31.9449 43.6225C32.3198 43.0483 32.6441 42.4414 32.9267 41.8196C33.0666 41.5101 33.1975 41.1951 33.3165 40.8767C33.4355 40.5581 33.5456 40.2338 33.6467 39.9098C33.8431 39.2612 34.0097 38.6036 34.1496 37.9428C34.4203 36.6189 34.575 35.2681 34.5453 33.9206C34.4352 35.2622 34.1942 36.5835 33.8461 37.8714C33.501 39.1597 33.0576 40.4212 32.4715 41.6056C32.3257 41.9032 32.171 42.1915 32.0044 42.4771C31.8378 42.76 31.6623 43.0394 31.4778 43.3101C31.1029 43.8457 30.6804 44.3425 30.2133 44.7978C29.7403 45.247 29.2315 45.6579 28.687 46.0179C28.1396 46.3779 27.5683 46.6959 26.9703 46.9667C26.3723 47.2348 25.7564 47.4636 25.1257 47.6453C24.4949 47.8298 23.8523 47.9667 23.2007 48.0649C21.9005 48.2523 20.5706 48.2817 19.2675 48.1006C18.9402 48.053 18.6159 47.9961 18.2946 47.9247C18.2172 47.9069 18.1369 47.8893 18.0595 47.8685C17.6876 47.9161 17.3157 47.9518 16.9379 47.9723L16.9676 47.9842C17.045 48.0143 17.1253 48.0437 17.2056 48.0735Z" fill="#D83341"/>
  <path d="M12.362 41.0462C12.2281 40.8555 12.0972 40.6654 11.9841 40.4631C11.8711 40.2605 11.7551 40.0585 11.645 39.8562C11.5914 39.7636 11.5408 39.6684 11.4903 39.5765C11.3683 39.3533 11.2522 39.1302 11.1332 38.9071C11.0023 38.6271 10.8774 38.3477 10.7583 38.0648C10.7494 38.0439 10.7405 38.0264 10.7316 38.0053L10.7256 37.9904C10.7435 37.9996 10.7643 38.0026 10.7851 38.0053C10.7911 38.0053 10.797 38.0085 10.803 38.0085C10.8327 38.0172 10.8625 38.0234 10.8893 38.032C11.166 38.1064 11.4248 38.2466 11.6598 38.404C11.6658 38.4102 11.6747 38.4159 11.6807 38.4191C11.8711 38.5497 12.0139 38.7104 12.1508 38.8922C12.2876 39.0766 12.3798 39.3292 12.4275 39.5973C12.4691 39.8172 12.484 40.0403 12.481 40.2635C12.4751 40.5286 12.4334 40.7904 12.362 41.0462ZM14.641 37.6601C14.1501 38.794 13.9418 39.9811 13.9627 41.2129C13.9716 41.8136 14.0549 42.4056 14.2423 42.9801C14.3435 43.2955 14.4744 43.593 14.6678 43.8519C14.6678 43.8519 14.8285 44.1078 15.0962 44.277C15.1111 44.3008 15.12 44.3276 15.123 44.3577C15.1319 44.4496 15.1438 44.5389 15.1557 44.6284L15.1706 44.9078L14.8404 44.5719C14.4149 44.1018 14.0132 43.6106 13.6503 43.0899C13.32 42.6112 12.9749 42.1411 12.6833 41.635C12.6298 41.5398 12.6149 41.4568 12.6357 41.3497C12.6863 41.1117 12.7309 40.8704 12.7607 40.6267C12.8083 40.24 12.7934 39.8529 12.7101 39.4691C12.5613 38.7791 12.1716 38.279 11.5289 37.9847C11.3921 37.9223 11.2522 37.8657 11.1094 37.8178L10.7673 37.717L10.7583 37.3778V37.2796C10.7464 36.6158 10.8357 35.9613 10.9874 35.3157C11.041 35.0869 11.1154 34.8637 11.1808 34.6376C11.1927 34.5986 11.2076 34.5689 11.2255 34.5424C11.4159 34.5275 11.7342 34.4499 12.0615 34.1437C12.3322 33.9262 12.5405 33.6617 12.725 33.3699C13.0136 32.915 13.2189 32.4267 13.2932 31.8912C13.3349 31.6029 13.326 31.3202 13.2248 31.0432C13.0314 30.5258 12.5703 30.2402 12.1032 30.237C11.7342 30.2343 11.4069 30.3619 11.1303 30.6062C10.6423 31.0406 10.3478 31.5877 10.2169 32.2274C10.1276 32.6499 10.1603 33.0694 10.2377 33.4862C10.2466 33.5305 10.2555 33.5725 10.2674 33.6141C10.2674 33.6141 10.321 34.108 10.8982 34.4561C10.9041 34.4799 10.9012 34.5037 10.8922 34.5305C10.8803 34.5719 10.8655 34.6105 10.8536 34.6495C10.6155 35.4138 10.4787 36.1963 10.4519 36.994L10.4489 37.0502L10.4221 37.4522L10.1901 36.9758C9.97884 36.5028 9.77355 36.03 9.56528 35.557C9.26181 34.8608 8.97916 34.1556 8.70247 33.4505C8.64891 33.3166 8.61916 33.1768 8.60429 33.0337C8.56561 32.555 8.63404 32.0905 8.80958 31.6442C8.88991 31.4389 8.98809 31.2429 9.0714 31.0406L9.08925 31.0049C9.36892 31.0373 9.69024 30.8591 9.88066 30.5377C10.1187 30.1301 10.0592 29.6538 9.74975 29.4726C9.43735 29.2879 8.99107 29.4667 8.75305 29.8743C8.54478 30.2283 8.56561 30.6359 8.7828 30.8561C8.79172 30.8945 8.7828 30.9364 8.76495 30.9748C8.72627 31.0611 8.69057 31.1474 8.65189 31.231C8.51503 31.5225 8.4109 31.826 8.34544 32.1411C8.33949 32.1709 8.28891 32.3523 8.28891 32.3523L8.09255 31.7546V31.7457L8.06874 31.6802C7.86345 31.0432 7.68792 30.3976 7.53618 29.7463C7.51238 29.6511 7.49155 29.5556 7.4737 29.4607C7.92593 29.2462 8.16395 28.7645 8.30676 28.309C8.45552 27.8362 8.54776 27.3242 8.57751 26.8273C8.59238 26.5298 8.58346 26.2296 8.53288 25.9321C8.46445 25.5126 8.32461 25.1047 8.12825 24.7268C7.89916 24.2838 7.55105 23.9565 7.07502 23.7929C6.67634 23.656 6.29551 23.7034 5.94146 23.9446C5.68856 24.1139 5.51005 24.3463 5.37617 24.6141C5.17087 25.0184 5.07567 25.4528 5.04592 25.905C4.99831 26.7324 5.14707 27.5149 5.59038 28.2287C5.7927 28.5562 6.03964 28.8297 6.33716 29.0561C6.33716 29.0561 6.65254 29.3804 7.16428 29.505C7.19105 29.5529 7.20593 29.6122 7.2089 29.6839C7.21188 29.7103 7.22081 29.7341 7.22676 29.7582C7.38444 30.4482 7.56891 31.1328 7.78907 31.8082C8.01519 32.5044 8.27701 33.1917 8.54181 33.8757L8.71734 34.3755C8.71734 34.3755 8.27999 33.9768 8.27701 33.9768C8.0747 33.7837 7.86345 33.5993 7.64329 33.4294C7.37552 33.2244 7.1018 33.025 6.80725 32.8611C6.78047 32.8462 6.75667 32.8316 6.73584 32.8168C6.76857 32.1828 6.26873 31.5404 6.26873 31.5404C6.21518 31.4598 6.16162 31.3827 6.10212 31.3083C5.49517 30.4991 4.69484 30.0409 3.68326 29.9665C3.1864 29.9308 2.70441 29.9933 2.25218 30.2105C1.82672 30.4158 1.44887 30.8647 1.48159 31.4449C1.4935 31.6594 1.53515 31.8647 1.61845 32.0611C1.81184 32.5222 2.10639 32.9117 2.5021 33.2125C3.44227 33.9176 4.45682 34.0869 5.52493 33.7804C6.117 33.6674 6.43535 33.3374 6.59601 33.0961C6.61683 33.1054 6.63766 33.1173 6.66146 33.1292C7.1375 33.4056 7.56891 33.7418 7.97651 34.1107C8.44065 34.5305 8.83933 35.0095 9.1904 35.5302C9.24098 35.6075 9.28561 35.6876 9.32429 35.7739C9.52958 36.232 9.7319 36.6902 9.93719 37.1514C9.94016 37.1603 9.94611 37.1695 9.94909 37.1785L9.95801 37.199L10.0889 37.4995L9.82413 37.4313C9.68727 37.3897 9.55041 37.3477 9.41355 37.3064C8.88991 37.1428 8.37519 36.952 7.8694 36.7381C7.87238 36.7113 7.87535 36.6846 7.87535 36.6545C7.87535 36.3451 7.62246 35.9821 7.2089 35.759C6.68824 35.4763 6.117 35.5239 5.92956 35.8664C5.74509 36.2053 6.01881 36.7113 6.53948 36.994C6.99171 37.2409 7.4856 37.2377 7.72659 37.0059C8.11337 37.1785 8.5061 37.3302 8.90478 37.4608C9.30049 37.5858 9.69619 37.7077 10.0919 37.8241C10.2109 37.8598 10.3031 37.9133 10.3567 38.032C10.6185 38.5976 10.916 39.1478 11.2076 39.6985C11.4932 40.234 11.7937 40.7606 12.1032 41.2813C12.3769 41.7392 12.6476 42.1944 12.96 42.6288C13.1594 42.9087 13.3587 43.1944 13.5551 43.477C13.5729 43.5068 13.6235 43.5332 13.5759 43.5838C13.5223 43.557 13.4688 43.5332 13.4182 43.5068C13.079 43.3312 12.7458 43.1557 12.4066 42.9801C12.2638 42.9087 12.121 42.8373 11.9722 42.7749C11.9514 42.7656 11.9306 42.757 11.9127 42.7451C11.8979 42.7362 11.9068 42.6407 11.9068 42.6231C11.9038 42.5574 11.9008 42.4949 11.8889 42.4294C11.8443 42.2125 11.7431 42.0132 11.639 41.8168C11.5289 41.6112 11.4069 41.4092 11.276 41.2155C11.1213 40.9897 10.9577 40.7722 10.7851 40.558C10.5144 40.2129 10.2109 39.8948 9.88363 39.6059C9.1904 38.999 8.4109 38.5352 7.56891 38.1722C6.42642 37.681 5.2393 37.434 3.99566 37.5114C3.66541 37.5295 3.33814 37.5709 3.02276 37.6634C2.87698 37.7051 2.73119 37.7554 2.60921 37.8509C2.40391 38.0053 2.34739 38.2165 2.43962 38.4548C2.48722 38.5735 2.54375 38.6866 2.63301 38.7821C2.87995 39.0466 3.12392 39.3147 3.37979 39.5705C3.75169 39.9484 4.12955 40.3203 4.51037 40.6922C4.98939 41.156 5.47435 41.6112 5.99204 42.031C6.55435 42.483 7.14642 42.8849 7.81288 43.1643C8.88098 43.6106 9.96694 43.6882 11.0707 43.3937C11.0707 43.3937 11.5676 43.3639 11.7997 43.0426C11.8146 43.0456 11.8265 43.0483 11.8413 43.0545C11.88 43.0694 11.9217 43.0843 11.9574 43.1018C12.5613 43.3875 13.1534 43.6939 13.7246 44.0364C13.9865 44.1908 14.2453 44.3514 14.4476 44.5838C14.5458 44.6995 14.6499 44.8096 14.7511 44.9227C15.1379 45.3452 15.5574 45.7382 15.9977 46.1009V45.7052C15.8698 45.5802 15.7686 45.4314 15.6794 45.274C15.5485 45.0357 15.4711 44.7772 15.4443 44.5064C15.4414 44.4588 15.4503 44.435 15.4741 44.4202C15.5901 44.435 15.7181 44.4231 15.8549 44.3726C15.9055 44.3544 15.9501 44.3309 15.9977 44.3008V35.9077C15.7835 36.03 15.605 36.1934 15.4384 36.3781C15.0962 36.7557 14.8404 37.1933 14.641 37.6601Z" fill="#1D1D1D"/>
  <path d="M13.377 27.7924C14.0214 27.2818 13.9643 26.591 13.5564 26.2932C13.1485 25.9954 12.5897 26.3137 12.5897 26.3137C10.8237 27.2447 10.7921 28.973 10.7921 28.973C10.8522 28.8236 12.7326 28.3026 13.377 27.7924Z" fill="#D83341"/>
  <path d="M13.4351 24.3071C13.7321 23.9301 13.6065 23.5455 13.3346 23.4318C13.0626 23.3176 12.7886 23.574 12.7886 23.574C11.9112 24.341 12.1266 25.3267 12.1266 25.3267C12.1406 25.2339 13.1382 24.6841 13.4351 24.3071Z" fill="#D83341"/>
  <path d="M13.5405 34.863C12.7907 36.1106 13.4238 37.2004 13.4238 37.2004C13.4051 37.0849 14.381 36.0493 14.5898 35.4878C14.799 34.9258 14.5024 34.5167 14.1355 34.4849C13.7687 34.4534 13.5405 34.863 13.5405 34.863Z" fill="#D83341"/>
  <path d="M10.3122 27.3936C10.3122 27.3936 11.6944 26.3556 11.4148 24.3791C11.4148 24.3791 11.3457 23.7398 10.8652 23.5836C10.385 23.4271 9.79149 23.7859 9.75519 24.6068C9.71889 25.4282 10.3978 27.2574 10.3122 27.3936Z" fill="#D83341"/>
  <path d="M3.19823 36.3669C3.70253 36.3889 4.82568 35.9721 4.90929 36.0248C4.90929 36.0248 4.27199 35.1759 3.0584 35.3476C3.0584 35.3476 2.66567 35.3902 2.56987 35.685C2.47377 35.9798 2.69393 36.3446 3.19823 36.3669Z" fill="#D83341"/>
  <path d="M 139.811 29.6 C 139.811 28 140.187 26.544 140.939 25.232 C 141.707 23.904 142.747 22.864 144.059 22.112 C 145.371 21.344 146.827 20.96 148.427 20.96 C 149.659 20.96 150.811 21.2 151.883 21.68 C 152.955 22.144 153.875 22.816 154.643 23.696 C 155.427 24.56 156.003 25.568 156.371 26.72 L 153.707 26.72 C 153.211 25.648 152.507 24.808 151.595 24.2 C 150.699 23.576 149.643 23.264 148.427 23.264 C 147.291 23.264 146.259 23.544 145.331 24.104 C 144.403 24.664 143.667 25.432 143.123 26.408 C 142.595 27.368 142.331 28.432 142.331 29.6 C 142.331 30.768 142.595 31.84 143.123 32.816 C 143.667 33.776 144.403 34.536 145.331 35.096 C 146.259 35.656 147.291 35.936 148.427 35.936 C 149.643 35.936 150.699 35.632 151.595 35.024 C 152.507 34.4 153.211 33.552 153.707 32.48 L 156.371 32.48 C 156.003 33.632 155.427 34.648 154.643 35.528 C 153.875 36.392 152.955 37.064 151.883 37.544 C 150.811 38.008 149.659 38.24 148.427 38.24 C 146.827 38.24 145.371 37.864 144.059 37.112 C 142.747 36.344 141.707 35.304 140.939 33.992 C 140.187 32.664 139.811 31.2 139.811 29.6 Z" fill="black"/>
  <path d="M 131.151 35.936 C 132.367 35.936 133.423 35.632 134.319 35.024 C 135.231 34.4 135.935 33.552 136.431 32.48 L 139.095 32.48 C 138.727 33.632 138.151 34.648 137.367 35.528 C 136.599 36.392 135.679 37.064 134.607 37.544 C 133.535 38.008 132.383 38.24 131.151 38.24 C 129.567 38.24 128.119 37.864 126.807 37.112 C 125.511 36.344 124.487 35.304 123.735 33.992 C 122.983 32.664 122.607 31.2 122.607 29.6 C 122.607 28 122.983 26.544 123.735 25.232 C 124.487 23.904 125.511 22.864 126.807 22.112 C 128.119 21.344 129.567 20.96 131.151 20.96 C 132.383 20.96 133.535 21.2 134.607 21.68 C 135.679 22.144 136.599 22.816 137.367 23.696 C 138.151 24.56 138.727 25.568 139.095 26.72 L 136.431 26.72 C 135.935 25.648 135.231 24.808 134.319 24.2 C 133.423 23.576 132.367 23.264 131.151 23.264 C 130.143 23.264 129.207 23.488 128.343 23.936 C 127.495 24.384 126.791 25.008 126.231 25.808 C 125.671 26.592 125.311 27.48 125.151 28.472 L 132.471 28.472 L 132.471 30.728 L 125.151 30.728 C 125.311 31.72 125.671 32.616 126.231 33.416 C 126.791 34.2 127.495 34.816 128.343 35.264 C 129.207 35.712 130.143 35.936 131.151 35.936 Z" fill="black"/>
  <path d="M 113.947 35.936 C 115.163 35.936 116.219 35.632 117.115 35.024 C 118.027 34.4 118.731 33.552 119.227 32.48 L 121.891 32.48 C 121.523 33.632 120.947 34.648 120.163 35.528 C 119.395 36.392 118.475 37.064 117.403 37.544 C 116.331 38.008 115.179 38.24 113.947 38.24 C 112.363 38.24 110.915 37.864 109.603 37.112 C 108.307 36.344 107.283 35.304 106.531 33.992 C 105.779 32.664 105.403 31.2 105.403 29.6 C 105.403 28 105.779 26.544 106.531 25.232 C 107.283 23.904 108.307 22.864 109.603 22.112 C 110.915 21.344 112.363 20.96 113.947 20.96 C 115.179 20.96 116.331 21.2 117.403 21.68 C 118.475 22.144 119.395 22.816 120.163 23.696 C 120.947 24.56 121.523 25.568 121.891 26.72 L 119.227 26.72 C 118.731 25.648 118.027 24.808 117.115 24.2 C 116.219 23.576 115.163 23.264 113.947 23.264 C 112.939 23.264 112.003 23.488 111.139 23.936 C 110.291 24.384 109.587 25.008 109.027 25.808 C 108.467 26.592 108.107 27.48 107.947 28.472 L 115.267 28.472 L 115.267 30.728 L 107.947 30.728 C 108.107 31.72 108.467 32.616 109.027 33.416 C 109.587 34.2 110.291 34.816 111.139 35.264 C 112.003 35.712 112.939 35.936 113.947 35.936 Z" fill="black"/>
  <path d="M 96.743 35.936 C 97.959 35.936 99.015 35.632 99.911 35.024 C 100.823 34.4 101.527 33.552 102.023 32.48 L 104.687 32.48 C 104.319 33.632 103.743 34.648 102.959 35.528 C 102.191 36.392 101.271 37.064 100.199 37.544 C 99.127 38.008 97.975 38.24 96.743 38.24 C 95.159 38.24 93.711 37.864 92.399 37.112 C 91.103 36.344 90.079 35.304 89.327 33.992 C 88.575 32.664 88.199 31.2 88.199 29.6 C 88.199 28 88.575 26.544 89.327 25.232 C 90.079 23.904 91.103 22.864 92.399 22.112 C 93.711 21.344 95.159 20.96 96.743 20.96 C 97.975 20.96 99.127 21.2 100.199 21.68 C 101.271 22.144 102.191 22.816 102.959 23.696 C 103.743 24.56 104.319 25.568 104.687 26.72 L 102.023 26.72 C 101.527 25.648 100.823 24.808 99.911 24.2 C 99.015 23.576 97.959 23.264 96.743 23.264 C 95.735 23.264 94.799 23.488 93.935 23.936 C 93.087 24.384 92.383 25.008 91.823 25.808 C 91.263 26.592 90.903 27.48 90.743 28.472 L 98.063 28.472 L 98.063 30.728 L 90.743 30.728 C 90.903 31.72 91.263 32.616 91.823 33.416 C 92.383 34.2 93.087 34.816 93.935 35.264 C 94.799 35.712 95.735 35.936 96.743 35.936 Z" fill="black"/>
  <path d="M 75.894 34.808 C 76.374 34.808 76.846 34.864 77.31 34.976 C 77.774 35.072 78.366 35.232 79.086 35.456 C 79.694 35.648 80.206 35.8 80.622 35.912 C 81.054 36.008 81.47 36.056 81.87 36.056 C 82.814 36.056 83.59 35.84 84.198 35.408 C 84.822 34.976 85.134 34.44 85.134 33.8 C 85.134 33.176 84.926 32.68 84.51 32.312 C 84.11 31.944 83.622 31.672 83.046 31.496 C 82.486 31.32 81.742 31.144 80.814 30.968 L 80.214 30.848 C 78.87 30.592 77.734 30.28 76.806 29.912 C 75.878 29.528 75.142 29 74.598 28.328 C 74.054 27.656 73.782 26.792 73.782 25.736 C 73.782 24.792 74.046 23.96 74.574 23.24 C 75.118 22.504 75.878 21.944 76.854 21.56 C 77.83 21.16 78.95 20.96 80.214 20.96 C 82.086 20.96 83.654 21.392 84.918 22.256 C 86.198 23.104 87.03 24.272 87.414 25.76 L 84.894 25.76 C 84.59 24.992 84.014 24.384 83.166 23.936 C 82.334 23.488 81.318 23.264 80.118 23.264 C 78.934 23.264 77.99 23.488 77.286 23.936 C 76.598 24.368 76.254 24.968 76.254 25.736 C 76.254 26.328 76.462 26.808 76.878 27.176 C 77.294 27.528 77.806 27.792 78.414 27.968 C 79.038 28.144 79.894 28.328 80.982 28.52 C 82.246 28.744 83.35 29.024 84.294 29.36 C 85.238 29.696 86.022 30.2 86.646 30.872 C 87.27 31.528 87.582 32.384 87.582 33.44 C 87.582 34.4 87.35 35.248 86.886 35.984 C 86.438 36.704 85.806 37.264 84.99 37.664 C 84.174 38.048 83.222 38.24 82.134 38.24 C 81.414 38.24 80.75 38.168 80.142 38.024 C 79.534 37.896 78.846 37.704 78.078 37.448 C 77.71 37.32 77.342 37.216 76.974 37.136 C 76.622 37.04 76.318 36.992 76.062 36.992 C 75.742 36.992 75.502 37.072 75.342 37.232 C 75.182 37.376 75.102 37.576 75.102 37.832 L 75.102 38 L 72.774 38 C 72.774 35.872 73.814 34.808 75.894 34.808 Z" fill="black"/>
  <path d="M 56.58 29.6 C 56.58 28 56.956 26.544 57.708 25.232 C 58.476 23.904 59.516 22.864 60.828 22.112 C 62.14 21.344 63.596 20.96 65.196 20.96 C 66.428 20.96 67.58 21.2 68.652 21.68 C 69.724 22.144 70.644 22.816 71.412 23.696 C 72.196 24.56 72.772 25.568 73.14 26.72 L 70.476 26.72 C 69.98 25.648 69.276 24.808 68.364 24.2 C 67.468 23.576 66.412 23.264 65.196 23.264 C 64.06 23.264 63.028 23.544 62.1 24.104 C 61.172 24.664 60.436 25.432 59.892 26.408 C 59.364 27.368 59.1 28.432 59.1 29.6 C 59.1 30.768 59.364 31.84 59.892 32.816 C 60.436 33.776 61.172 34.536 62.1 35.096 C 63.028 35.656 64.06 35.936 65.196 35.936 C 66.412 35.936 67.468 35.632 68.364 35.024 C 69.276 34.4 69.98 33.552 70.476 32.48 L 73.14 32.48 C 72.772 33.632 72.196 34.648 71.412 35.528 C 70.644 36.392 69.724 37.064 68.652 37.544 C 67.58 38.008 66.428 38.24 65.196 38.24 C 63.596 38.24 62.14 37.864 60.828 37.112 C 59.516 36.344 58.476 35.304 57.708 33.992 C 56.956 32.664 56.58 31.2 56.58 29.6 Z" fill="black"/>
  <path d="M175.08 27.2H175.8V26.4801H176.52V25.7599H177.24V25.0398V24.32V23.5998V22.88V22.1598H176.52V22.88H175.8V23.5998H175.08V24.32H174.36V25.0398V25.7599V26.4801V27.2V27.9201H175.08V27.2Z" fill="#D83341"/>
  <path d="M171.48 26.4801H172.2V27.2H172.92V27.9201H173.64V27.2V26.4801V25.7599V25.0398V24.32H172.92V23.5998H172.2V22.88H171.48V22.1598H170.76V22.88V23.5998V24.32V25.0398V25.7599H171.48V26.4801Z" fill="#D83341"/>
  <path d="M172.92 30.8001H172.2V31.5199H171.48V32.2401H170.76V32.9598V33.68V34.3998V35.12V35.8401H171.48V35.12H172.2V34.3998H172.92V33.68H173.64V32.9598V32.2401V31.5199V30.8001V30.0799H172.92V30.8001Z" fill="#D83341"/>
  <path d="M176.52 31.5199H175.8V30.8001H175.08V30.0799H174.36V30.8001V31.5199V32.2401V32.9598V33.68H175.08V34.3998H175.8V35.12H176.52V35.8401H177.24V35.12V34.3998V33.68V32.9598V32.2401H176.52V31.5199Z" fill="#D83341"/>
  <path d="M172.2 27.9201V27.1999H171.48V26.4801H170.76V25.7599H170.04H169.32H168.6H167.88H167.16V26.4801H167.88V27.1999H168.6V27.9201H169.32V28.64H170.04H170.76H171.48H172.2H172.92V27.9201H172.2Z" fill="#D83341"/>
  <path d="M175.08 29.3601V28.64H174.36V27.9201H173.64V28.64H172.92V29.3601H173.64V30.0799H174.36V29.3601H175.08Z" fill="#D83341"/>
  <path d="M168.6 25.0398H170.04V23.5998H169.32V22.88H168.6V23.5998H167.88V24.32H168.6V25.0398Z" fill="#D83341"/>
  <path d="M179.4 25.0398V24.32H180.12V23.5998H179.4V22.88H178.68V23.5998H177.96V24.32V25.0398H178.68H179.4Z" fill="#D83341"/>
  <path d="M179.4 32.9598H177.96V34.3998H178.68V35.12H179.4V34.3998H180.12V33.68H179.4V32.9598Z" fill="#D83341"/>
  <path d="M168.6 32.9598V33.68H167.88V34.3998H168.6V35.12H169.32V34.3998H170.04V33.68V32.9598H169.32H168.6Z" fill="#D83341"/>
  <path d="M171.48 31.5199V30.8001H172.2V30.0799H172.92V29.3601H172.2H171.48H170.76H170.04H169.32V30.0799H168.6V30.8001H167.88V31.5199H167.16V32.2401H167.88H168.6H169.32H170.04H170.76V31.5199H171.48Z" fill="#D83341"/>
  <path d="M180.12 30.8001H179.4V30.0799H178.68V29.3601H177.96H177.24H176.52H175.8H175.08V30.0799H175.8V30.8001H176.52V31.5199H177.24V32.2401H177.96H178.68H179.4H180.12H180.84V31.5199H180.12V30.8001Z" fill="#D83341"/>
  <path d="M176.52 26.4801V27.1999H175.8V27.9201H175.08V28.64H175.8H176.52H177.24H177.96H178.68V27.9201H179.4V27.1999H180.12V26.4801H180.84V25.7599H180.12H179.4H178.68H177.96H177.24V26.4801H176.52Z" fill="#D83341"/>
  <path d="M167.16 30.8001V30.0799H167.88V29.3601H168.6V28.64H167.88V27.9202H167.16V27.2H166.44V27.9202H165.72V28.64H165V29.3601H165.72V30.0799H166.44V30.8001H167.16Z" fill="#D83341"/>
  <path d="M175.08 35.12H174.36V34.3999H173.64V35.12H172.92V35.8401H172.2V36.56H172.92V37.2802H173.64V38H174.36V37.2802H175.08V36.56H175.8V35.8401H175.08V35.12Z" fill="#D83341"/>
  <path d="M182.28 28.64V27.9202H181.56V27.2H180.84V27.9202H180.12V28.64H179.4V29.3601H180.12V30.0799H180.84V30.8001H181.56V30.0799H182.28V29.3601H183V28.64H182.28Z" fill="#D83341"/>
  <path d="M172.92 22.88H173.64V23.5998H174.36V22.88H175.08V22.1598H175.8V21.44H175.08V20.7198H174.36V20H173.64V20.7198H172.92V21.44H172.2V22.1598H172.92V22.88Z" fill="#D83341"/>
  <text style="fill: rgb(0, 0, 0); font-family: Arial, sans-serif; font-size: 10px; letter-spacing: -0.1px;" x="55.585" y="53.338">The Center for Slavic, Eurasian and East European Studies</text>
</svg>