<svg width="20" height="20" viewBox="0 0 20 20" fill="none" xmlns="http://www.w3.org/2000/svg">
<circle cx="10" cy="10" r="8.75" fill="#FFFA37"/>
<path fill-rule="evenodd" clip-rule="evenodd" d="M13.141 5.11594C12.5375 4.3555 11.542 3.75 10.0074 3.75C8.69319 3.76294 6.06486 4.49028 6.06486 7.29611C6.06486 7.70589 6.0973 8.25468 6.12564 8.65883C6.09224 8.64912 6.05117 8.63095 5.98609 8.59975L5.97705 8.59542C5.86197 8.54016 5.68698 8.45614 5.44363 8.45614C5.19778 8.45614 4.96007 8.55245 4.7836 8.69523C4.60818 8.83715 4.45833 9.05531 4.45833 9.31909C4.45833 9.64898 4.64401 9.86802 4.86111 10.0085C5.05395 10.1332 5.29711 10.2129 5.4896 10.2759L5.50864 10.2822C5.71468 10.3497 5.86569 10.4013 5.9698 10.4662C6.05085 10.5167 6.06315 10.5486 6.06467 10.579C6.06362 10.5833 6.06114 10.5926 6.05575 10.6078C6.04463 10.639 6.02615 10.6812 5.99914 10.734C5.94525 10.8392 5.86667 10.9686 5.77319 11.1066C5.58462 11.3851 5.35448 11.6706 5.18257 11.836C5.01301 11.9991 4.73476 12.2018 4.44385 12.3632C4.29958 12.4432 4.1585 12.5095 4.03229 12.555C3.90201 12.602 3.80654 12.62 3.74755 12.62C3.70085 12.62 3.66043 12.6296 3.64279 12.634C3.618 12.6402 3.59234 12.6484 3.56695 12.6579C3.51661 12.6768 3.4566 12.7052 3.39717 12.7452C3.2836 12.8216 3.125 12.9757 3.125 13.2188C3.125 13.3458 3.15479 13.4532 3.20628 13.5464C3.25135 13.6279 3.3093 13.6899 3.34264 13.7255L3.34759 13.7308L3.35682 13.7407C3.54022 13.938 3.8438 14.0753 4.13851 14.1695C4.39174 14.2504 4.67487 14.3107 4.95076 14.347C4.95466 14.3647 4.95873 14.3839 4.96319 14.4049L4.96462 14.4117C4.98199 14.4936 5.005 14.6021 5.03888 14.7021C5.07085 14.7965 5.12874 14.9361 5.24727 15.0355C5.39823 15.1621 5.59568 15.1749 5.7245 15.1744C5.86279 15.1738 6.02425 15.1543 6.17747 15.1359L6.19051 15.1343C6.40609 15.1083 6.63161 15.0815 6.8652 15.0815C7.29147 15.0815 7.56468 15.2596 7.99339 15.5523L7.99628 15.5543C8.14477 15.6557 8.31102 15.7693 8.50001 15.8809C9.13262 16.2548 9.64661 16.2515 9.93794 16.2497C9.95716 16.2496 9.9754 16.2495 9.99265 16.2495C10.0099 16.2495 10.0282 16.2496 10.0476 16.2497C10.3394 16.2516 10.867 16.255 11.5 15.8809C11.689 15.7693 11.8552 15.6557 12.0037 15.5543L12.0066 15.5523C12.4353 15.2596 12.7085 15.0815 13.1348 15.0815C13.3684 15.0815 13.5939 15.1083 13.8095 15.1343L13.8225 15.1359C13.9757 15.1543 14.1372 15.1738 14.2755 15.1744C14.4043 15.1749 14.6018 15.1621 14.7527 15.0355C14.8713 14.9361 14.9292 14.7965 14.9611 14.7021C14.995 14.6021 15.018 14.4936 15.0354 14.4117L15.0368 14.4049C15.0413 14.3839 15.0453 14.3647 15.0492 14.347C15.3251 14.3107 15.6083 14.2504 15.8615 14.1695C16.1562 14.0753 16.4598 13.938 16.6432 13.7406L16.6524 13.7308L16.6573 13.7255C16.6907 13.6899 16.7486 13.628 16.7937 13.5464C16.8452 13.4532 16.875 13.3458 16.875 13.2188C16.875 12.9757 16.7164 12.8216 16.6028 12.7452C16.5434 12.7052 16.4834 12.6768 16.433 12.6579C16.4077 12.6484 16.382 12.6402 16.3572 12.634C16.3396 12.6296 16.2991 12.62 16.2525 12.62C16.1935 12.62 16.098 12.602 15.9677 12.555C15.8415 12.5095 15.7004 12.4432 15.5562 12.3632C15.2652 12.2018 14.987 11.9991 14.8174 11.836C14.6455 11.6706 14.4154 11.3851 14.2268 11.1066C14.1333 10.9686 14.0548 10.8392 14.0009 10.734C13.9739 10.6812 13.9554 10.639 13.9443 10.6078C13.9389 10.5926 13.9364 10.5833 13.9353 10.579C13.9368 10.5486 13.9492 10.5167 14.0302 10.4662C14.1343 10.4013 14.2853 10.3497 14.4914 10.2822L14.5104 10.2759C14.7029 10.2129 14.946 10.1332 15.1389 10.0085C15.356 9.86802 15.5417 9.64898 15.5417 9.31909C15.5417 9.05531 15.3918 8.83716 15.2164 8.69523C15.0399 8.55245 14.8022 8.45614 14.5564 8.45614C14.313 8.45614 14.138 8.54016 14.023 8.59541L14.0139 8.59975C13.9488 8.63095 13.9078 8.64912 13.8744 8.65883C13.9027 8.25467 13.9351 7.70589 13.9351 7.29611C13.9351 6.73981 13.7329 5.8619 13.141 5.11594ZM7.36452 5.48296C6.86385 6.10968 6.69232 6.85385 6.69232 7.29611C6.69232 7.70617 6.72705 8.27582 6.75636 8.6843C6.7661 8.81996 6.73828 8.97809 6.61981 9.10363C6.49989 9.23069 6.33674 9.27193 6.191 9.27193C5.98056 9.27193 5.8205 9.19494 5.71811 9.14569L5.70622 9.13998C5.59199 9.08521 5.53193 9.05973 5.44363 9.05973C5.3633 9.05973 5.26523 9.09425 5.18746 9.15717C5.10864 9.22094 5.08578 9.28337 5.08578 9.31909C5.08578 9.39181 5.11261 9.44378 5.21122 9.50756C5.32767 9.58288 5.4936 9.63951 5.71112 9.71086L5.73006 9.71706C5.9107 9.77624 6.13444 9.84955 6.31101 9.95961C6.5092 10.0831 6.69232 10.2817 6.69232 10.5876C6.69232 10.6678 6.67015 10.7449 6.64933 10.8034C6.62675 10.8668 6.59623 10.9338 6.56203 11.0006C6.49349 11.1345 6.40079 11.2857 6.29891 11.4361C6.09677 11.7346 5.83981 12.0574 5.62625 12.2628C5.41034 12.4705 5.08565 12.704 4.75724 12.8861C4.59185 12.9778 4.41918 13.0601 4.25267 13.1202C4.10363 13.174 3.943 13.2161 3.7889 13.2227C3.78506 13.2243 3.78082 13.2262 3.77637 13.2285C3.76927 13.232 3.76262 13.2359 3.75683 13.2398L3.75386 13.2418C3.75444 13.246 3.75511 13.2491 3.75566 13.2512C3.75689 13.2561 3.75836 13.2595 3.76033 13.2631C3.76637 13.274 3.7759 13.2862 3.81444 13.3275L3.82455 13.3383C3.89399 13.413 4.0651 13.51 4.33634 13.5967C4.59467 13.6792 4.90015 13.7389 5.18875 13.7663C5.33315 13.7799 5.41638 13.8702 5.45161 13.9188C5.48787 13.9688 5.50861 14.0217 5.52072 14.0567C5.54417 14.1246 5.56187 14.2082 5.57584 14.2742L5.57797 14.2842C5.59703 14.3741 5.61371 14.4509 5.63547 14.5151C5.64316 14.5378 5.65025 14.5551 5.65636 14.5678C5.67013 14.5694 5.69124 14.5709 5.72183 14.5708C5.85454 14.5702 5.9874 14.5505 6.11889 14.5346C6.32925 14.5093 6.58957 14.4779 6.8652 14.4779C7.50444 14.4779 7.92625 14.7661 8.33372 15.0445L8.3566 15.0602C8.50738 15.1631 8.65849 15.2662 8.82843 15.3666C9.30731 15.6496 9.67169 15.6476 9.93791 15.6461C9.95664 15.646 9.97488 15.6459 9.99265 15.6459C10.0103 15.6459 10.0284 15.646 10.047 15.6461C10.3162 15.6475 10.6928 15.6496 11.1716 15.3666C11.3415 15.2662 11.4926 15.1631 11.6434 15.0602L11.6663 15.0445C12.0738 14.7661 12.4956 14.4779 13.1348 14.4779C13.4104 14.4779 13.6708 14.5093 13.8811 14.5346L13.8875 14.5354C14.0576 14.5559 14.1821 14.5704 14.2782 14.5708C14.3088 14.5709 14.3299 14.5694 14.3436 14.5678C14.3497 14.5551 14.3568 14.5378 14.3645 14.5151C14.3863 14.4509 14.403 14.3741 14.422 14.2842L14.4242 14.2742C14.4381 14.2082 14.4558 14.1246 14.4793 14.0567C14.4914 14.0217 14.5121 13.9688 14.5484 13.9188C14.5836 13.8702 14.6668 13.7799 14.8112 13.7663C15.0999 13.7389 15.4053 13.6792 15.6637 13.5967C15.9349 13.51 16.106 13.413 16.1754 13.3383L16.1856 13.3275C16.2241 13.2862 16.2336 13.274 16.2397 13.2631C16.2416 13.2595 16.2431 13.2561 16.2443 13.2512C16.2449 13.2491 16.2456 13.246 16.2461 13.2418L16.2432 13.2398C16.2374 13.2359 16.2307 13.232 16.2236 13.2285C16.2192 13.2262 16.2149 13.2243 16.2111 13.2227C16.057 13.2161 15.8964 13.174 15.7473 13.1202C15.5808 13.0601 15.4081 12.9778 15.2428 12.8861C14.9144 12.704 14.5897 12.4705 14.3737 12.2628C14.1602 12.0574 13.9032 11.7346 13.7011 11.4361C13.5992 11.2857 13.5065 11.1345 13.438 11.0006C13.4038 10.9338 13.3733 10.8668 13.3507 10.8034C13.3299 10.7449 13.3077 10.6678 13.3077 10.5876C13.3077 10.2817 13.4908 10.0831 13.689 9.95961C13.8656 9.84955 14.0893 9.77624 14.2699 9.71706L14.2889 9.71086C14.5064 9.63951 14.6723 9.58288 14.7888 9.50756C14.8874 9.44378 14.9142 9.39181 14.9142 9.31909C14.9142 9.28337 14.8914 9.22094 14.8125 9.15717C14.7348 9.09425 14.6367 9.05973 14.5564 9.05973C14.4681 9.05973 14.408 9.08521 14.2938 9.13998L14.2819 9.14569C14.1795 9.19494 14.0194 9.27193 13.809 9.27193C13.6633 9.27193 13.5001 9.23069 13.3802 9.10363C13.2617 8.97809 13.2339 8.81996 13.2436 8.6843C13.273 8.27582 13.3077 7.70617 13.3077 7.29611C13.3077 6.8527 13.1392 6.10845 12.6422 5.48218C12.1568 4.8704 11.3452 4.35359 10.0074 4.35359C8.66935 4.35359 7.85376 4.87055 7.36452 5.48296Z" fill="black"/>
<path fill-rule="evenodd" clip-rule="evenodd" d="M7.36457 5.48298C6.86389 6.1097 6.69236 6.85386 6.69236 7.29612C6.69236 7.70618 6.72709 8.27584 6.75641 8.68431C6.76615 8.81998 6.73833 8.97811 6.61985 9.10364C6.49993 9.23071 6.33679 9.27195 6.19105 9.27195C5.98061 9.27195 5.82055 9.19496 5.71816 9.1457L5.70627 9.13999C5.59203 9.08523 5.53197 9.05975 5.44367 9.05975C5.36335 9.05975 5.26528 9.09426 5.18751 9.15718C5.10868 9.22096 5.08583 9.28338 5.08583 9.3191C5.08583 9.39183 5.11266 9.4438 5.21126 9.50757C5.32771 9.5829 5.49365 9.63953 5.71117 9.71087L5.7301 9.71708C5.91074 9.77626 6.13449 9.84956 6.31105 9.95962C6.50925 10.0832 6.69236 10.2817 6.69236 10.5876C6.69236 10.6678 6.67019 10.745 6.64938 10.8034C6.62679 10.8668 6.59627 10.9338 6.56207 11.0006C6.49353 11.1345 6.40084 11.2857 6.29896 11.4361C6.09681 11.7346 5.83986 12.0574 5.6263 12.2628C5.41039 12.4705 5.08569 12.704 4.75729 12.8861C4.5919 12.9778 4.41922 13.0601 4.25272 13.1202C4.10368 13.174 3.94304 13.2161 3.78895 13.2227C3.78511 13.2243 3.78086 13.2262 3.77642 13.2285C3.76931 13.232 3.76267 13.2359 3.75687 13.2398L3.75391 13.2419C3.75449 13.246 3.75515 13.2491 3.75571 13.2513C3.75694 13.2561 3.7584 13.2595 3.76037 13.2631C3.76641 13.274 3.77594 13.2862 3.81449 13.3275L3.8246 13.3384C3.89403 13.4131 4.06515 13.51 4.33639 13.5967C4.59472 13.6793 4.90019 13.7389 5.1888 13.7663C5.3332 13.78 5.41643 13.8702 5.45165 13.9188C5.48791 13.9688 5.50865 14.0217 5.52077 14.0568C5.54421 14.1246 5.56192 14.2082 5.57589 14.2742L5.57801 14.2842C5.59708 14.3741 5.61376 14.4509 5.63551 14.5152C5.6432 14.5379 5.6503 14.5551 5.6564 14.5679C5.67017 14.5694 5.69129 14.5709 5.72188 14.5708C5.85458 14.5703 5.98745 14.5505 6.11893 14.5346C6.32929 14.5093 6.58962 14.4779 6.86524 14.4779C7.50448 14.4779 7.92629 14.7661 8.33377 15.0445L8.35664 15.0602C8.50743 15.1631 8.65854 15.2662 8.82847 15.3666C9.30736 15.6496 9.67173 15.6476 9.93795 15.6461C9.95668 15.646 9.97493 15.6459 9.99269 15.6459C10.0103 15.6459 10.0284 15.646 10.0471 15.6461C10.3162 15.6475 10.6928 15.6496 11.1716 15.3666C11.3416 15.2662 11.4927 15.1631 11.6434 15.0602L11.6663 15.0445C12.0738 14.7661 12.4956 14.4779 13.1349 14.4779C13.4105 14.4779 13.6708 14.5093 13.8812 14.5346L13.8875 14.5354C14.0576 14.5559 14.1821 14.5704 14.2782 14.5708C14.3088 14.5709 14.3299 14.5694 14.3437 14.5679C14.3498 14.5551 14.3569 14.5379 14.3646 14.5152C14.3863 14.4509 14.403 14.3741 14.4221 14.2842L14.4242 14.2742C14.4382 14.2082 14.4559 14.1246 14.4793 14.0568C14.4914 14.0217 14.5122 13.9688 14.5484 13.9188C14.5837 13.8702 14.6669 13.78 14.8113 13.7663C15.0999 13.7389 15.4054 13.6793 15.6637 13.5967C15.9349 13.51 16.1061 13.4131 16.1755 13.3384L16.1856 13.3275C16.2241 13.2862 16.2337 13.274 16.2397 13.2631C16.2417 13.2595 16.2432 13.2561 16.2444 13.2513C16.2449 13.2491 16.2456 13.246 16.2462 13.2419L16.2432 13.2398C16.2374 13.2359 16.2308 13.232 16.2237 13.2285C16.2192 13.2262 16.215 13.2243 16.2111 13.2227C16.057 13.2161 15.8964 13.174 15.7474 13.1202C15.5809 13.0601 15.4082 12.9778 15.2428 12.8861C14.9144 12.704 14.5897 12.4705 14.3738 12.2628C14.1602 12.0574 13.9033 11.7346 13.7011 11.4361C13.5993 11.2857 13.5066 11.1345 13.438 11.0006C13.4038 10.9338 13.3733 10.8668 13.3507 10.8034C13.3299 10.745 13.3077 10.6678 13.3077 10.5876C13.3077 10.2817 13.4908 10.0832 13.689 9.95962C13.8656 9.84956 14.0893 9.77626 14.27 9.71708L14.2889 9.71087C14.5064 9.63953 14.6724 9.5829 14.7888 9.50757C14.8874 9.4438 14.9143 9.39183 14.9143 9.3191C14.9143 9.28338 14.8914 9.22096 14.8126 9.15718C14.7348 9.09426 14.6367 9.05975 14.5564 9.05975C14.4681 9.05975 14.4081 9.08523 14.2938 9.13999L14.2819 9.14571C14.1795 9.19496 14.0195 9.27195 13.809 9.27195C13.6633 9.27195 13.5002 9.23071 13.3802 9.10364C13.2618 8.97811 13.2339 8.81998 13.2437 8.68431C13.273 8.27584 13.3077 7.70618 13.3077 7.29612C13.3077 6.85272 13.1392 6.10847 12.6423 5.4822C12.1568 4.87041 11.3453 4.35361 10.0074 4.35361C8.66939 4.35361 7.8538 4.87057 7.36457 5.48298Z" fill="white"/>
</svg>
